<svg viewBox="0 0 1460 400" xmlns="http://www.w3.org/2000/svg"><g><g><g><g><g><line x1="58" y1="378" x2="53" y2="378" style="visibility: inherit;" fill="rgb(0, 0, 0)" stroke="rgb(204, 204, 204)" stroke-width="1px"></line><line x1="58" y1="336" x2="53" y2="336" style="visibility: inherit;" fill="rgb(0, 0, 0)" stroke="rgb(204, 204, 204)" stroke-width="1px"></line><line x1="58" y1="294" x2="53" y2="294" style="visibility: inherit;" fill="rgb(0, 0, 0)" stroke="rgb(204, 204, 204)" stroke-width="1px"></line><line x1="58" y1="252" x2="53" y2="252" style="visibility: inherit;" fill="rgb(0, 0, 0)" stroke="rgb(204, 204, 204)" stroke-width="1px"></line><line x1="58" y1="209.99999999999997" x2="53" y2="209.99999999999997" style="visibility: inherit;" fill="rgb(0, 0, 0)" stroke="rgb(204, 204, 204)" stroke-width="1px"></line><line x1="58" y1="168.00000000000003" x2="53" y2="168.00000000000003" style="visibility: inherit;" fill="rgb(0, 0, 0)" stroke="rgb(204, 204, 204)" stroke-width="1px"></line><line x1="58" y1="126" x2="53" y2="126" style="visibility: inherit;" fill="rgb(0, 0, 0)" stroke="rgb(204, 204, 204)" stroke-width="1px"></line><line x1="58" y1="84.00000000000006" x2="53" y2="84.00000000000006" style="visibility: inherit;" fill="rgb(0, 0, 0)" stroke="rgb(204, 204, 204)" stroke-width="1px"></line><line x1="58" y1="42" x2="53" y2="42" style="visibility: inherit;" fill="rgb(0, 0, 0)" stroke="rgb(204, 204, 204)" stroke-width="1px"></line><line x1="58" y1="0" x2="53" y2="0" style="visibility: inherit;" fill="rgb(0, 0, 0)" stroke="rgb(204, 204, 204)" stroke-width="1px"></line></g><g transform="translate(48, 0)"><text x="0" y="378" dx="0em" dy="0.3em" style="text-anchor: end; visibility: hidden; font-family: &quot;Helvetica Neue&quot;, sans-serif; font-size: 12px; font-weight: 200;" fill="rgb(50, 49, 63)" stroke="none" stroke-width="1px">0.35</text><text x="0" y="336" dx="0em" dy="0.3em" style="text-anchor: end; visibility: inherit; font-family: &quot;Helvetica Neue&quot;, sans-serif; font-size: 12px; font-weight: 200;" fill="rgb(50, 49, 63)" stroke="none" stroke-width="1px">0.4</text><text x="0" y="294" dx="0em" dy="0.3em" style="text-anchor: end; visibility: inherit; font-family: &quot;Helvetica Neue&quot;, sans-serif; font-size: 12px; font-weight: 200;" fill="rgb(50, 49, 63)" stroke="none" stroke-width="1px">0.45</text><text x="0" y="252" dx="0em" dy="0.3em" style="text-anchor: end; visibility: inherit; font-family: &quot;Helvetica Neue&quot;, sans-serif; font-size: 12px; font-weight: 200;" fill="rgb(50, 49, 63)" stroke="none" stroke-width="1px">0.5</text><text x="0" y="209.99999999999997" dx="0em" dy="0.3em" style="text-anchor: end; visibility: inherit; font-family: &quot;Helvetica Neue&quot;, sans-serif; font-size: 12px; font-weight: 200;" fill="rgb(50, 49, 63)" stroke="none" stroke-width="1px">0.55</text><text x="0" y="168.00000000000003" dx="0em" dy="0.3em" style="text-anchor: end; visibility: inherit; font-family: &quot;Helvetica Neue&quot;, sans-serif; font-size: 12px; font-weight: 200;" fill="rgb(50, 49, 63)" stroke="none" stroke-width="1px">0.6</text><text x="0" y="126" dx="0em" dy="0.3em" style="text-anchor: end; visibility: inherit; font-family: &quot;Helvetica Neue&quot;, sans-serif; font-size: 12px; font-weight: 200;" fill="rgb(50, 49, 63)" stroke="none" stroke-width="1px">0.65</text><text x="0" y="84.00000000000006" dx="0em" dy="0.3em" style="text-anchor: end; visibility: inherit; font-family: &quot;Helvetica Neue&quot;, sans-serif; font-size: 12px; font-weight: 200;" fill="rgb(50, 49, 63)" stroke="none" stroke-width="1px">0.7</text><text x="0" y="42" dx="0em" dy="0.3em" style="text-anchor: end; visibility: inherit; font-family: &quot;Helvetica Neue&quot;, sans-serif; font-size: 12px; font-weight: 200;" fill="rgb(50, 49, 63)" stroke="none" stroke-width="1px">0.75</text><text x="0" y="0" dx="0em" dy="0.3em" style="text-anchor: end; visibility: hidden; font-family: &quot;Helvetica Neue&quot;, sans-serif; font-size: 12px; font-weight: 200;" fill="rgb(50, 49, 63)" stroke="none" stroke-width="1px">0.8</text></g><line x1="58" y1="0" x2="58" y2="378" fill="rgb(0, 0, 0)" stroke="rgb(204, 204, 204)" stroke-width="1px"></line></g></g><g transform="translate(58, 0)" clip-path="url(#clip_0)"><clipPath id="clip_0"><rect width="1402" height="378"></rect></clipPath><g><g><g><line x1="0" y1="0" x2="0" y2="378" fill="rgb(0, 0, 0)" stroke="rgb(60, 60, 60)" stroke-width="1px" opacity="0.25"></line><line x1="116.83333333333333" y1="0" x2="116.83333333333333" y2="378" fill="rgb(0, 0, 0)" stroke="rgb(60, 60, 60)" stroke-width="1px" opacity="0.25"></line><line x1="233.66666666666666" y1="0" x2="233.66666666666666" y2="378" fill="rgb(0, 0, 0)" stroke="rgb(60, 60, 60)" stroke-width="1px" opacity="0.25"></line><line x1="350.5" y1="0" x2="350.5" y2="378" fill="rgb(0, 0, 0)" stroke="rgb(60, 60, 60)" stroke-width="1px" opacity="0.25"></line><line x1="467.3333333333333" y1="0" x2="467.3333333333333" y2="378" fill="rgb(0, 0, 0)" stroke="rgb(60, 60, 60)" stroke-width="1px" opacity="0.25"></line><line x1="584.1666666666667" y1="0" x2="584.1666666666667" y2="378" fill="rgb(0, 0, 0)" stroke="rgb(60, 60, 60)" stroke-width="1px" opacity="0.25"></line><line x1="701" y1="0" x2="701" y2="378" fill="rgb(0, 0, 0)" stroke="rgb(60, 60, 60)" stroke-width="1px" opacity="0.25"></line><line x1="817.8333333333334" y1="0" x2="817.8333333333334" y2="378" fill="rgb(0, 0, 0)" stroke="rgb(60, 60, 60)" stroke-width="1px" opacity="0.25"></line><line x1="934.6666666666666" y1="0" x2="934.6666666666666" y2="378" fill="rgb(0, 0, 0)" stroke="rgb(60, 60, 60)" stroke-width="1px" opacity="0.25"></line><line x1="1051.5" y1="0" x2="1051.5" y2="378" fill="rgb(0, 0, 0)" stroke="rgb(60, 60, 60)" stroke-width="1px" opacity="0.25"></line><line x1="1168.3333333333335" y1="0" x2="1168.3333333333335" y2="378" fill="rgb(0, 0, 0)" stroke="rgb(60, 60, 60)" stroke-width="1px" opacity="0.25"></line><line x1="1285.1666666666665" y1="0" x2="1285.1666666666665" y2="378" fill="rgb(0, 0, 0)" stroke="rgb(60, 60, 60)" stroke-width="1px" opacity="0.25"></line><line x1="1402" y1="0" x2="1402" y2="378" fill="rgb(0, 0, 0)" stroke="rgb(60, 60, 60)" stroke-width="1px" opacity="0.25"></line></g><g><line x1="0" y1="378" x2="1402" y2="378" fill="rgb(0, 0, 0)" stroke="rgb(60, 60, 60)" stroke-width="1px" opacity="0.25"></line><line x1="0" y1="336" x2="1402" y2="336" fill="rgb(0, 0, 0)" stroke="rgb(60, 60, 60)" stroke-width="1px" opacity="0.25"></line><line x1="0" y1="294" x2="1402" y2="294" fill="rgb(0, 0, 0)" stroke="rgb(60, 60, 60)" stroke-width="1px" opacity="0.25"></line><line x1="0" y1="252" x2="1402" y2="252" fill="rgb(0, 0, 0)" stroke="rgb(60, 60, 60)" stroke-width="1px" opacity="0.25"></line><line x1="0" y1="209.99999999999997" x2="1402" y2="209.99999999999997" fill="rgb(0, 0, 0)" stroke="rgb(60, 60, 60)" stroke-width="1px" opacity="0.25"></line><line x1="0" y1="168.00000000000003" x2="1402" y2="168.00000000000003" fill="rgb(0, 0, 0)" stroke="rgb(60, 60, 60)" stroke-width="1px" opacity="0.25"></line><line x1="0" y1="126" x2="1402" y2="126" fill="rgb(0, 0, 0)" stroke="rgb(60, 60, 60)" stroke-width="1px" opacity="0.25"></line><line x1="0" y1="84.00000000000006" x2="1402" y2="84.00000000000006" fill="rgb(0, 0, 0)" stroke="rgb(60, 60, 60)" stroke-width="1px" opacity="0.25"></line><line x1="0" y1="42" x2="1402" y2="42" fill="rgb(0, 0, 0)" stroke="rgb(60, 60, 60)" stroke-width="1px" opacity="0.25"></line><line x1="0" y1="0" x2="1402" y2="0" fill="rgb(0, 0, 0)" stroke="rgb(60, 60, 60)" stroke-width="1px" opacity="0.25"></line></g></g></g><g><g><line x1="0" y1="672" x2="1402" y2="672" fill="rgb(0, 0, 0)" stroke="rgb(153, 153, 153)" stroke-width="1.5px"></line></g></g><g><g><line x1="116.83333333333333" y1="0" x2="116.83333333333333" y2="378" fill="rgb(0, 0, 0)" stroke="rgb(153, 153, 153)" stroke-width="1.5px"></line></g></g><g><g><g><g><g><path stroke="rgb(0, 119, 187)" stroke-width="2px" d="M117.88483333333333,69.34488487243664L119.28683333333333,69.66932384678944L119.46208333333333,69.63552002355823L120.98091666666667,69.51562780814527L122.32449999999999,69.38607642706705L125.88791666666667,69.0797654694336L126.06316666666667,69.00316940614022L126.58891666666668,69.13426322794584L130.21075,69.39513833671958L130.50283333333334,69.37169420961203L131.72958333333335,69.3759112310525L132.43058333333335,69.44048202933652L132.78108333333333,69.58602958554769L134.82566666666665,69.64375512017449L134.9425,69.7667909819076L135.40983333333332,69.84891829724597L137.10391666666666,69.97220966625588L138.27225,70.1153367434759L141.42675,70.21172830970727L143.70499999999998,70.29650794658937L144.52283333333332,70.32945399659422L148.14466666666667,70.33840959436213L149.72191666666666,70.33301045155844L150.65658333333334,70.40224318509678L151.0655,70.5214669633857L151.12391666666664,70.51539035933718L153.05166666666665,70.59917233453928L153.8695,70.68088668092395L154.62891666666667,70.79070414700152L155.44675,70.91350630837314L156.03091666666666,70.99751595626486L158.54283333333333,71.02391365977189L159.01016666666666,71.20081234588429L159.4775,71.2396284513988L161.52208333333334,71.22740550871089L161.75575,71.33229298181516L161.87258333333332,71.38691972843117L162.69041666666666,71.36844511959623L162.80725,71.48543975980562L163.21616666666668,71.60633173889039L163.6835,71.61908934939208L164.03400000000002,71.74494182744144L165.66966666666667,71.72256153522471L172.03708333333333,71.82175276059024L173.55591666666666,71.7616357852412L173.61433333333335,71.85415881743108L173.96483333333333,71.84239989694197L174.31533333333334,71.97035128003483L175.36683333333332,71.98306875360214L175.54208333333335,72.07144436599168L176.0678333333333,72.23676425355734L178.93024999999997,72.1794940279513L179.1055,72.26301081136563L179.8065,72.37793731851559L180.68275,72.40708880554809L181.03324999999998,72.49342674726671L181.32533333333333,72.59173847374007L184.363,72.4637496225618L184.65508333333335,72.47312360820484L184.7135,72.51141412707369L185.76500000000001,72.6364368326748L186.52441666666667,72.68581058645651L189.50366666666665,72.74789408570985L190.49675,72.85018792904731L193.70966666666666,72.80684575388665L193.88491666666667,72.91689779613563L194.70275,72.96021647130863L194.93641666666667,73.08920714957429L197.74041666666668,73.18938350997416L198.14933333333335,73.32187321017528L199.43449999999999,73.43959260189723L200.13549999999998,73.43604866001215L200.71966666666665,73.42310356911491L202.47216666666665,73.5064653294504L203.11475000000002,73.54797024459452L203.93258333333333,73.64749990061347L205.80191666666664,73.62630740174274L207.49599999999998,73.58148604012723L208.43066666666667,73.55821392900651L209.36533333333335,73.68993601340185L209.599,73.74102877603588L210.59208333333333,73.73600965823971L212.63666666666668,73.70861669647661L215.09016666666668,73.77197089545541L215.61591666666666,73.94827105259367L216.2585,73.93130945619885L216.66741666666667,73.94606450590089L217.19316666666668,74.01545852359635L218.011,74.1427426920153L218.1278333333333,74.15258902621099L218.30308333333335,74.26356940914474L220.87341666666666,74.35824170713425L223.50216666666668,74.49469825096406L224.5536666666667,74.54929680228634L225.07941666666667,74.54531691672258L225.83883333333333,74.36452018321711L226.01408333333333,74.5188289947555L226.48141666666666,74.53492517928464L228.81808333333336,74.65958006749344L229.81116666666665,74.76927803408688L230.39533333333333,74.89637772801518L230.57058333333336,74.99539162787937L233.72508333333332,74.9791211100557L234.4260833333333,75.11246737866429L235.76966666666667,75.21490657934658L237.9310833333333,75.1934668121541L238.10633333333334,75.06556807715748L238.16475,75.13663377184758L238.63208333333333,75.11837081951478L238.86575,75.24505779938056L239.27466666666666,75.35459017221996L242.37075000000002,75.45486571624542L242.77966666666666,75.62552746465951L244.5905833333333,75.79393263305957L244.82425,75.83272274088671L245.29158333333334,75.89087206909443L245.7589166666667,75.97449733834105L245.99258333333333,75.80751715066322L247.16091666666668,75.82944744663541L247.45299999999997,75.89490039404882L247.5114166666667,75.8976601554258L248.67975,76.00488718572353L248.97183333333334,76.10901216762937L250.08175,76.1601691523727L251.01641666666666,76.14392128525287L251.60058333333333,76.17087061774754L252.30158333333333,76.2386482235126L253.82041666666666,76.29391738789019L254.34616666666668,76.24370875850093L256.39075,76.10180846737802L256.44916666666666,76.10423927177737L256.566,76.21658872043002L259.1363333333333,76.33429051352209L259.6036666666667,76.46986965999082L260.12941666666666,76.30987773445389L260.24625000000003,76.38786668131064L260.5383333333333,76.50963510431092L261.99875000000003,76.43585746823419L262.05716666666666,76.52720194960449L262.6413333333333,76.47923197976547L262.7581666666667,76.59989901592706L263.05025,76.57659726996923L263.86808333333335,76.71253048390417L264.21858333333336,76.8254215730849L264.7443333333333,76.92825661131707L265.62058333333334,76.93648521299923L265.97108333333335,76.972375614209L269.0671666666667,77.08688495300146L273.68208333333337,77.00660817584861L274.73358333333334,77.10845398140412L276.89500000000004,77.15418168124916L277.7128333333333,77.23838907230214L279.7574166666667,77.31725676206992L284.606,77.3270116930803L286.008,77.3066129689235L290.1555833333333,77.42338706184847L290.6229166666667,77.5253960816915L292.72591666666665,77.66150083230684L293.83583333333337,77.71181726385873L294.30316666666664,77.76770849713711L294.47841666666665,77.92991233758892L297.8665833333333,77.87863804515428L301.48841666666664,78.09559607039864L302.42308333333335,77.93857099162824L303.4745833333333,78.01283833285197L303.533,78.0980536274194L305.5191666666667,78.18757773088902L306.1033333333333,78.27515077814138L306.27858333333336,78.3635380273169L306.337,78.35033546584833L306.4538333333333,78.31071129709471L306.51225,78.39303468909401L307.97266666666667,78.41576162039172L309.9004166666667,78.32573494401163L312.2370833333333,78.21583705357881L314.048,78.34670804993362L315.62525,78.38068080846074L315.9173333333333,78.56806089656754L317.2025,78.50489386032774L318.31241666666665,78.46322227510547L319.1886666666667,78.40065695893577L320.12333333333333,78.56716065034686L321.8174166666667,78.69641934036923L321.99266666666665,78.9019660897643L323.4530833333333,79.10992752521071L327.1333333333333,79.01321470488483L328.18483333333336,79.19956227370682L328.3016666666667,79.16795077032475L328.4185,79.33068110269988L328.769,79.46673115546827L330.4046666666667,79.62110445313772L331.22249999999997,79.65472591428795L334.4938333333333,79.59653719270807L334.72749999999996,79.60311656915763L335.3700833333333,79.72827364177539L338.40775,79.86982607915587L339.6345,79.88770410323121L339.9265833333333,79.74627298123107L340.04341666666664,79.82156465909782L340.62758333333335,79.72778741214427L342.55533333333335,79.82130716880312L343.2563333333333,79.77601706989117L346.294,79.78275588991056L347.92966666666666,79.93911825300029L349.56533333333334,80.09498316598075L351.78516666666667,80.2174907579203L352.42775,80.31370000720352L352.603,80.27737295130413L355.93275,80.33829063222493L356.2248333333333,80.51834041454964L356.86741666666666,80.55763589342945L361.1318333333333,80.71167855997999L361.8328333333333,80.78729231015319L361.94966666666664,80.57717522012103L362.24175,80.66821865532933L362.3001666666667,80.73054637905659L363.76058333333333,80.42262807067664L364.05266666666665,80.31585790951272L364.22791666666666,80.44099275405773L364.69525,80.52318898540176L365.86358333333334,80.36989484373032L366.03883333333334,80.4282998525398L366.9735,80.50568596781727L368.25866666666667,80.56859991618154L369.0180833333333,80.49384201391786L369.13491666666664,80.58010857638436L372.05575000000005,80.76251103631517L373.45775,80.91455064604071L373.8666666666667,80.95657573984283L374.2171666666667,81.02825944175135L375.61916666666673,81.06783434268203L375.7944166666667,81.15423022351018L379.24100000000004,81.21735413969196L380.23408333333333,81.18385344842L381.46083333333337,81.01400824487587L384.26483333333334,80.7572186402067L384.44008333333335,80.9862282135893L385.37474999999995,81.01923819702245L387.1856666666667,81.2100660667827L388.8213333333333,81.32375789604976L389.2886666666667,81.21886775100296L389.52233333333334,81.24433661993714L389.98966666666666,81.35162765612188L392.15108333333336,81.20740686288548L392.4431666666666,81.30687579244807L394.3125,80.90194949247126L394.7798333333334,81.02771896056618L395.3055833333333,80.93633018138155L396.5323333333333,81.03361777984202L397.23333333333335,80.99374564274228L397.35016666666667,81.09475692536631L399.57,81.27682017463258L400.27099999999996,81.17946083199405L402.72450000000003,81.29508763943142L406.69683333333336,81.13002639112278L407.2225833333333,81.30165349995048L407.3978333333334,81.39743995491932L411.83750000000003,81.50063571994457L411.95433333333335,81.59488543583842L412.01275,81.70297178636793L415.1088333333333,81.92009984158472L416.7445,82.16135568232448L420.59999999999997,82.06520777088872L422.87825,82.13556190815893L425.7990833333334,82.26190976716816L428.13575000000003,82.09572331288831L429.07041666666663,82.23518174907281L429.88824999999997,82.19549010620807L433.45166666666665,82.37847014449676L434.7368333333333,82.4539590822489L437.8329166666667,82.55813964288876L439.00124999999997,82.54416726264719L439.1180833333333,82.18680219537367L440.98741666666666,82.01567717738624L442.38941666666665,82.19845770764658L443.20725,82.39066913021452L445.7191666666667,82.33672177919095L447.3548333333333,82.45607197327638L447.47166666666664,82.54872095089877L447.7053333333334,82.24696750264297L448.58158333333336,82.18490009122786L450.97666666666663,82.08226357796212L451.15191666666664,82.01772961151397L454.248,81.97662724495598L456.0589166666666,82.20304017072175L456.1173333333333,82.08083471451437L457.11041666666665,82.28358590010117L457.28566666666666,82.49676546516139L459.27183333333335,82.63454465213414L459.38866666666667,82.53446561066772L459.79758333333336,82.698826901124L461.9005833333334,82.14022980268828L463.1273333333333,82.05809401349086L464.5293333333333,81.68095076257254L464.82141666666666,81.93939623761514L465.1719166666666,82.31505815589696L466.7491666666667,82.4706877099187L467.91749999999996,82.57838268708718L468.20958333333334,82.65796739346433L469.08583333333337,82.6141459312326L469.37791666666664,82.59066648468666L471.88983333333334,82.26331317275515L473.35025,82.24654859577618L473.46708333333333,81.93987519724197L474.40175,82.13558215547613L474.98591666666664,82.39160295452922L477.90675,82.25715795044772L479.01666666666665,82.50044691213452L479.77608333333336,82.7769877021833L480.1265833333333,82.9928627941947L480.886,82.97445225433677L484.21574999999996,82.87804958755856L485.5593333333333,82.79396016102027L485.8514166666667,83.11099808076045L487.2534166666667,83.4988177830108L487.89599999999996,83.50063830302679L488.5385833333333,83.46340752164622L489.29799999999994,83.32115708431746L490.7,83.50047175464522L496.2495833333333,83.53438591105999L496.308,83.80931058778577L496.5416666666667,83.87806415471186L497.71,84.01839085377685L497.7684166666666,84.2821282325225L500.8645,84.48420203707724L501.4486666666667,84.65143540289182L502.55858333333333,84.57214008078085L505.7130833333334,84.33077952814625L506.2388333333333,84.61652377019323L506.58933333333334,84.50422683404662L506.9398333333333,84.76581488644115L507.11508333333336,84.91160395973083L507.524,84.79846191757343L507.99133333333333,84.91364373746654L508.16658333333334,84.7497751752473L508.8675833333333,84.63674296668256L510.4448333333333,84.4830789567286L510.67850000000004,84.64810825217455L511.3210833333334,84.80593849893324L515.936,84.6659838463192L516.7538333333333,84.9108630786626L517.2211666666667,84.71655283039155L518.0974166666666,84.45364718283241L521.8945,84.28479664612462L523.5885833333333,84.38772461588565L523.7638333333333,84.66685495548182L525.2826666666666,84.8004634454361L526.5678333333333,84.93389087061581L531.0659166666667,84.9377381427716L531.9421666666667,85.1005157691356L532.4095,85.36020687208696L533.7530833333333,85.24295674480828L534.8045833333333,85.26343554303963L537.14125,85.33304291596755L538.368,85.62607942810098L540.1789166666666,85.44636476374717L543.275,85.53439310008372L543.9175833333334,85.79071320736693L544.9690833333333,85.84299082374213L545.55325,85.94620356873412L545.6116666666667,85.9017532698823L546.7215833333333,85.76368468725985L548.0651666666668,85.927101406747L549.1750833333333,86.20327209751605L551.4533333333333,86.05011293386684L551.6285833333334,86.22585009280635L552.0375,86.37772074516835L552.6216666666667,86.57926860569239L552.7969166666667,86.86406569301613L553.6731666666667,86.37419982363673L555.6009166666666,86.19173552910962L556.7108333333333,86.45085177856032L561.32575,86.24533332217868L563.3703333333333,85.97775396546643L564.3634166666667,85.90440147414154L565.2396666666667,85.99489975258115L565.88225,85.88426092204958L566.23275,86.06206929810247L567.6931666666667,85.9330688863169L567.9852500000001,85.91260319251774L568.2773333333333,85.93178083549168L569.3288333333334,85.90609955616839L569.9714166666668,86.09717245251142L570.1466666666666,86.34576443997122L571.3149999999999,86.50033746751876L571.7823333333333,86.7378608950437L572.3665,86.61697438240174L574.4110833333333,86.72808968215782L574.7031666666667,86.89372215811011L578.2665833333333,86.53372216780434L578.3249999999999,86.64587571966649L580.1943333333334,86.87427685006213L583.1735833333333,86.78009053868647L583.6409166666667,87.02678497277645L585.6855,87.104926303416L586.3280833333333,86.9373107021637L587.0290833333333,86.58005069755961L588.0221666666666,86.72646329483223L591.5271666666666,86.92416211625459L594.6816666666667,86.86352659033673L594.9153333333334,86.81625515990123L595.7331666666666,86.33903441681116L596.7262499999999,86.62269419711964L597.0767500000001,86.51450044487729L599.53025,86.67611044311042L600.4649166666667,86.85849709558534L601.1075000000001,87.15990471953342L602.1005833333334,87.16681400692943L603.2689166666667,86.69647265571024L603.561,86.8235559071357L603.6778333333333,86.92118744950204L604.0283333333333,86.85517149961015L605.1966666666666,86.63035716264108L605.3719166666667,86.56174736000293L605.664,86.79300270293464L606.18975,86.88010357564622L611.4472499999999,87.04510559430412L611.5056666666667,87.27002900908548L611.6225000000001,87.34252254434335L613.2581666666666,87.46290046851016L613.55025,87.55137916847013L613.8423333333334,87.24180618174637L617.2305,87.38041818293965L618.7493333333333,87.71053685480314L619.2750833333333,88.02783464877041L621.2028333333333,88.03634235567807L621.26125,87.87584205473433L621.787,87.95622473388585L624.0068333333334,88.36085772768575L624.4741666666666,88.13538239431563L624.76625,88.43094750747605L626.6355833333333,87.76301278917782L629.3811666666667,87.95331270191662L629.6148333333333,87.94492978772968L630.9584166666667,87.87936664661754L632.0099166666666,87.9398963711592L632.1851666666666,87.7529059341922L633.4119166666667,87.40875006675543L634.0545,87.61760181760087L635.4565,87.56582093851813L635.8654166666666,87.81295720206134L636.8584999999999,88.04350891661136L636.9753333333333,88.08329268326582L637.1505833333333,88.11727943782819L638.3773333333334,87.78713424566843L638.78625,87.58693635433161L639.4288333333334,87.43423344725551L640.1298333333333,87.65936774167733L641.1229166666667,87.43671404386055L642.1744166666667,87.73208237292584L642.5249166666666,88.06414133830935L643.1090833333333,88.30127511828749L644.219,88.03185488108261L645.79625,88.39843323143066L646.2635833333334,88.45728562434215L647.4903333333333,88.84308043941286L651.6379166666667,88.95488895346568L655.2013333333333,89.05228916933976L655.7855,89.21200655679309L656.1944166666667,89.09581471820252L657.7716666666666,89.33950553057997L658.9984166666667,89.20579317566552L660.51725,89.4825889607942L661.043,89.63959002079446L662.9123333333333,89.95173089683198L664.1390833333334,89.27774969069287L666.651,88.91993435798611L666.8262500000001,88.37753025122169L667.9945833333334,88.74018734202707L668.4035,88.54637536131713L669.9223333333333,88.73500640120102L674.0115000000001,88.21777985228351L674.5372500000001,88.45128013669819L674.9461666666666,88.75828936533878L675.7055833333333,89.10904869844103L676.99075,89.16622693054228L677.6333333333333,89.29036794117496L678.2759166666667,89.51907598673318L679.2105833333334,89.73615937760297L680.6125833333333,89.37338234008706L680.9630833333333,88.93566449077866L682.3066666666667,88.44242239948926L683.3581666666666,88.2723708204723L686.9215833333333,87.68479208484706L687.4473333333334,88.09322178346133L690.0176666666666,88.38476722366903L691.6533333333333,88.2087549640238L691.8285833333333,88.19440237046052L694.16525,88.65851278656942L695.56725,88.30695098409296L699.3643333333333,88.70548908088023L703.9208333333333,89.0602463271274L704.2129166666667,89.02300158536218L704.3881666666666,89.35462479880755L705.206,89.60410799434419L705.9069999999999,89.6619689815285L707.2505833333333,89.95834294687648L707.6010833333333,89.86204082330966L708.4773333333333,89.85792564181219L708.8278333333334,89.87489435331713L709.412,90.058385124121L710.814,90.53406277602772L711.8070833333334,90.3747349473428L713.09225,90.07330961837084L715.3120833333334,90.39072882047759L715.9546666666668,90.49088135409431L717.1229999999999,90.71448984870932L717.5319166666667,90.92600206604527L717.8240000000001,90.81630233974477L724.1329999999999,90.70153358841475L724.30825,90.99038310169004L725.1845,90.89746606232961L725.535,91.09656318315245L725.8270833333333,91.28834557423409L728.3389999999999,91.0542125834537L728.9815833333333,90.94416728323392L729.5657500000001,91.21222475740336L729.7994166666667,91.30666609028208L729.8578333333332,90.58953148247167L731.4935,90.18339447254954L732.0192499999999,90.54376227211105L733.3628333333334,90.94912277859964L733.42125,90.57682627451379L734.12225,90.82477370249597L735.9331666666667,90.69135534530182L736.4589166666667,90.42217000787934L737.452,90.34506382045424L737.7440833333333,89.87348113182583L738.2698333333333,89.65436507894361L738.7371666666667,89.55431468404129L739.2044999999999,89.34741875102839L740.1975833333333,89.377780782829L741.9500833333333,89.72862856989366L742.53425,89.67249386871049L744.6956666666666,89.31136898848644L745.2214166666668,89.11301608462395L745.2798333333333,88.99650954279446L746.5649999999999,89.31589127239943L746.9739166666667,89.65690581368585L748.6095833333333,89.90045967257123L749.19375,90.16996430086277L749.4858333333333,90.57103372138124L750.1284166666667,90.05239671912051L750.6541666666667,89.81972809329676L751.4720000000001,89.30189749382822L753.6918333333333,89.2790907137213L753.8670833333333,89.26371315323928L755.85325,89.67540092338163L756.0869166666666,89.88620913153323L757.4305,90.2486484200848L757.781,90.52486148635921L757.8978333333333,90.90383130999442L760.2345,90.73621555431725L760.5849999999999,91.0256828890872L760.7018333333333,91.01919776833529L761.3444166666667,90.4307389493323L761.6365000000001,90.71968882299342L762.4543333333332,90.69727681450064L762.9800833333333,90.98000547878621L763.91475,90.48459628794438L765.3751666666667,90.44336719254648L766.4850833333334,89.9487942819905L767.0108333333334,90.1843426681088L768.0623333333333,90.02225487907594L769.6395833333333,89.9089113308084L770.9831666666668,90.33690641214167L771.1,90.73115897098626L771.1584166666667,91.14979266567661L774.605,91.12228447771633L774.78025,91.25121573728899L775.306,91.314923007689L777.5258333333334,91.1214419964881L780.5050833333333,91.4396052402862L783.4259166666667,91.84632853718529L783.89325,91.67331727505956L785.99625,92.0233619609757L786.9893333333333,91.97306847422533L788.1576666666667,92.27294600058656L789.7933333333334,92.55378802774857L789.9685833333333,93.12689404064679L790.3774999999999,92.297275996395L790.4943333333333,92.35913780067995L791.4874166666667,92.42258370209163L791.95475,92.61708562788795L792.4805,92.9004544906827L793.35675,93.17875768631455L794.2914166666667,93.31071246591699L796.5696666666668,92.81630323377505L797.2706666666667,92.65868616935404L797.9716666666667,93.15505540682159L798.6142500000001,93.18173486003269L799.4320833333334,93.32147038873552L799.5489166666666,93.41519652686418L801.6519166666667,92.76016545816304L803.7549166666666,91.58870022790427L805.3321666666667,91.442418319517L805.6826666666667,91.84235112548072L806.2084166666667,91.80370403167433L807.9609166666667,92.12653088880887L809.3629166666666,92.22439762696638L810.4144166666666,91.5321925085612L812.3421666666667,91.85775532787369L813.9194166666666,92.4567528694584L814.6788333333333,92.76752469235345L814.7956666666668,93.16272639968412L814.8540833333333,92.60465486852343L816.0224166666667,92.54113520725173L816.3145000000001,92.75902773737255L817.1323333333333,92.65755830647322L817.7165000000001,92.46537570582626L818.0085833333333,92.86284973403417L818.4175,92.46253498986573L819.5274166666666,92.18812553298739L820.2284166666667,92.66928611287705L822.273,92.49551506293409L825.8948333333333,92.89522299966274L826.7710833333333,93.04557954386286L827.4136666666666,92.77539541794255L827.6473333333334,92.64840901606055L828.582,93.06871939042924L830.5097499999999,93.158512021403L831.0355,93.46843470619615L833.6058333333334,93.17183090227047L834.7741666666667,92.98563511338227L834.9494166666666,93.33065300156414L835.8840833333334,93.43914531715023L836.81875,94.02690365943164L840.9663333333333,94.50244663233701L841.4920833333333,94.85262448786926L843.303,94.66960947903868L844.4129166666667,94.76859418943377L844.5881666666668,94.4209379452696L845.8733333333334,94.75555440015825L849.6704166666667,95.04431681036374L850.13775,94.00522271296427L851.3644999999999,94.39605468184749L852.6496666666666,94.67157096052273L854.34375,95.03529004244132L857.0309166666667,93.87015456426877L858.6665833333333,93.70655343473317L862.1131666666666,94.07880995150674L863.0478333333334,93.74322621543712L864.85875,94.14137625039115L865.3260833333334,94.18729667137859L866.5528333333333,93.90576798551007L868.0132500000001,94.42565801379504L868.3053333333332,94.8270829630323L869.0647499999999,94.9526283789657L869.8241666666665,95.08582946952532L870.1746666666667,94.86818027715816L872.6281666666666,95.33124787538691L872.6865833333334,94.88582953493903L873.8549166666667,94.55339476368528L877.2430833333333,94.8500659441035L878.2361666666666,95.133393047847L879.8134166666666,95.39110959016335L879.8718333333334,95.72232552611842L880.3391666666666,95.44492098608941L881.0401666666666,95.78188612134778L881.7411666666667,96.09985286756165L882.6174166666667,95.57222738246207L882.8510833333333,94.69226397610026L883.8441666666666,94.97198976962193L884.8956666666667,94.78183309855285L885.9471666666667,94.77736279024566L886.8234166666666,95.1814288758822L887.4075833333333,95.05550625493942L887.5828333333334,95.46130544603994L888.2838333333334,95.86767226674908L888.34225,95.36030307045951L888.5759166666667,95.8110947403764L890.2115833333332,96.21700777016042L891.7304166666665,96.49781528124271L893.6581666666666,96.69431126233519L894.5344166666666,97.13329597058413L896.6374166666667,96.97633561702469L899.7335,96.57660368820899L899.9671666666667,96.93262938112366L901.1355000000001,97.25532764727791L903.9979166666667,97.11955138209572L905.692,97.61646135054656L908.1455000000001,97.06493536481952L911.12475,97.44476933719233L912.001,96.37772909258354L912.4683333333334,96.59845214330068L912.8188333333334,96.47586977364898L915.7396666666667,96.0888606294036L915.9149166666667,95.784908509182L916.0901666666666,96.03768970034406L916.8495833333333,95.85051903766254L918.4268333333333,96.4394748251089L919.88725,96.8798857908194L920.2961666666666,97.25378364047873L921.5813333333333,97.26008163452093L922.8080833333332,96.51139787795978L923.5674999999999,96.24367054665856L925.6120833333333,96.95755841312615L926.9556666666667,96.70830284932214L927.1309166666667,97.14584142052382L927.8903333333334,96.25413192851272L928.124,96.70156677983897L930.9864166666666,97.02667066876796L931.0448333333334,97.56289159733677L932.15475,97.58755808768404L932.33,97.3710994484569L932.8557500000001,97.70996171431676L932.9141666666667,98.1287366163204L933.2646666666666,98.47542459262138L934.433,98.86959483825274L934.5498333333333,97.56857042189182L939.34,98.05352184788995L939.6905,98.53267293306737L944.07175,99.17992613094714L945.7074166666667,99.65883109579505L947.5767500000001,100.07507659759426L947.92725,100.79796174949865L949.2708333333334,100.4493218606865L951.4322500000001,100.92162301176342L951.4906666666666,100.75984407718784L951.8411666666666,101.20207959690197L952.3669166666666,101.4471218252184L953.36,101.10812126523996L954.061,101.38636793222571L954.4114999999999,100.61527088506193L955.5798333333333,101.04153255160224L955.8135,101.1943540352953L957.2154999999999,100.43122657786779L957.8580833333333,100.3955044311794L960.7789166666666,100.35439160613834L962.1809166666666,100.85605285367268L963.5245,100.43857236317046L965.6274999999999,100.59804026857478L967.0295,100.80010966461441L967.1463333333332,101.11930434657592L967.20475,101.58758440345804L970.70975,101.41133982320929L971.5859999999999,101.21735767651126L971.9365,100.18191794468805L973.689,100.58630293431207L974.21475,101.10177868270438L974.4484166666666,101.37098505633134L974.7989166666666,101.8369927835974L975.7335833333334,102.04757456656517L978.2455,101.62929449098368L978.9465,101.89677991005749L980.1732499999999,102.25064149345212L980.2316666666667,102.44651656970677L980.4653333333333,102.91688401942235L980.6990000000001,102.85305225707742L980.9326666666667,102.4959923716491L981.92575,102.6247292526678L982.2762500000001,102.03792408332964L982.5099166666668,102.24747440991808L984.0871666666666,101.79212897210863L985.6644166666666,102.10751864885981L986.7743333333333,102.42493064695356L988.6436666666667,102.71075757026756L988.7020833333333,102.81847490009386L988.7605000000001,103.26807898876683L990.1625,103.85293680157793L993.9595833333334,104.20474399237588L994.6605833333333,103.97738115448851L998.3408333333333,104.24932891038287L1000.7943333333333,104.35499805577643L1001.0279999999999,104.0202109149784L1003.5983333333334,104.63583663654748L1004.7082499999999,104.13400915630359L1006.8696666666666,104.52939731050111L1008.6221666666668,104.7424028185984L1009.0310833333333,105.05190472933111L1009.6152500000001,104.47150769489582L1010.6667500000001,104.67350084566459L1012.0103333333333,104.5495283259973L1013.0034166666667,104.66771044238567L1013.3539166666667,103.77223010378219L1013.7628333333333,103.26998789761711L1016.5084166666667,103.58744974192211L1016.8004999999999,103.9457723733475L1017.7351666666666,103.84428350555726L1018.0856666666666,103.13553414080127L1018.6698333333334,103.25884659497171L1019.7213333333334,103.71525503936414L1020.7144166666667,102.86003901883333L1020.8312500000001,102.31686170382801L1022.7005833333333,102.06052531423524L1023.8689166666667,102.2685775389869L1024.5115,102.43952840377966L1027.2570833333332,103.0614072235818L1027.9580833333334,102.5158297076693L1028.6006666666667,103.14496207777836L1032.3393333333333,102.85290121877068L1034.15025,103.15031957383945L1036.3116666666667,103.66522570380249L1037.7136666666665,104.06648990706992L1038.2394166666666,103.57088614589156L1038.5899166666666,104.03437013504606L1039.4661666666666,103.76594663657409L1040.45925,104.41766872296517L1041.2770833333334,104.97985339175375L1041.4523333333334,105.20913382254201L1042.56225,104.58913105043058L1043.6721666666665,104.17244643684279L1050.27325,104.74830171091173L1050.7405833333332,104.83090898289709L1051.0910833333332,105.13935718568086L1052.4930833333333,105.91213835822589L1052.5515,104.28532930638994L1054.7713333333334,104.65193725272445L1056.3485833333334,105.13214450203293L1057.0495833333332,104.46549087771302L1058.0426666666667,104.80944200070775L1058.2763333333335,105.02353500905679L1061.7229166666666,104.65232029045342L1062.4823333333334,104.33138034061108L1063.0665,104.663085946551L1063.3001666666667,105.16536938953124L1064.7605833333334,105.4545797477735L1066.04575,105.58376573953063L1070.2517500000001,106.17507269420736L1071.5369166666667,106.59257807930021L1071.7705833333334,106.69237515465937L1071.8874166666667,107.15963657162018L1071.9458333333332,107.19647300880581L1072.53,107.46642770179187L1073.6983333333333,107.62272584853622L1075.2171666666668,107.41794362032726L1077.2033333333334,107.83651200852165L1077.7290833333334,108.13470610830643L1081.0004166666665,108.52481059210578L1084.1549166666666,108.82137669780127L1085.6737500000002,108.02515685451073L1085.9658333333332,108.38001216929808L1087.1341666666667,108.87225195229655L1090.1134166666668,108.28841741852614L1090.3470833333333,107.57661375687593L1092.2164166666666,107.29034359235771L1095.0788333333333,107.76138755027745L1096.2471666666668,107.40581278886782L1098.1165,107.56044898248007L1098.7006666666666,107.99706962388603L1098.7590833333334,108.03910024402927L1100.2195,108.48711122270026L1100.5115833333332,108.87646707754755L1100.74525,108.21591641283669L1101.5630833333335,107.58794137815875L1104.0165833333333,108.07515356557843L1105.4769999999999,107.71226858470027L1109.85825,108.00311161118526L1113.7721666666666,108.38218056225594L1115.5830833333334,108.93768794465564L1117.56925,109.1862596553745L1117.6276666666668,108.86466150795508L1118.9128333333333,109.49376411579749L1121.1326666666666,109.42030915165822L1121.42475,109.75011536443782L1121.7168333333334,109.28821340563286L1122.301,109.763359990791L1123.87825,109.38142669819553L1123.9366666666667,109.34822154393174L1124.3455833333333,109.84360918851854L1125.1634166666668,110.27071580919267L1125.806,110.33792711937173L1126.8574999999998,109.42877164195255L1126.9743333333333,109.64439735151666L1128.3179166666666,109.67658435268987L1128.3763333333334,110.14859137942062L1128.4347500000001,110.35680257019567L1128.6100000000001,110.4564918861671L1129.7199166666667,110.47526324782945L1131.7645,110.06197626907112L1132.5239166666668,109.70323724483961L1132.7575833333333,110.21335648821668L1133.517,110.47829459319388L1133.5754166666668,110.24624579174281L1134.1595833333333,110.36298078069848L1134.8021666666666,110.51023036620751L1135.3863333333334,110.73695794488873L1135.8536666666666,110.14283805321753L1136.4378333333334,110.53574609533035L1139.30025,110.61617184236428L1139.7675833333333,111.06648556087339L1140.00125,111.10552976320025L1141.6369166666666,110.46416765992615L1142.45475,111.0680375276848L1142.80525,111.30701468435376L1143.6230833333334,110.71572047588216L1143.7399166666667,111.36477141132855L1144.1488333333334,111.53025185674682L1144.3825,111.75991943898327L1144.55775,111.49536103896855L1144.6161666666667,111.16049426704785L1144.8498333333334,111.12420107446928L1146.31025,111.03811503986157L1146.8944166666668,110.1297021762885L1147.1280833333333,110.5014001927999L1148.06275,110.19637315723412L1148.8805833333333,109.33593817746589L1150.9835833333334,108.93429574721813L1151.042,109.23887917553742L1151.4509166666667,109.79966981116218L1152.0935,108.94743154541965L1153.846,108.63798689956786L1154.9559166666668,109.01387619603997L1155.0143333333333,108.60522897657353L1155.3064166666666,108.91138600465194L1156.8836666666668,109.49470754592022L1157.9351666666666,109.88144529892719L1159.1035,110.19271381159587L1165.58775,110.74046122328485L1166.1135,111.08904349188651L1167.0481666666667,111.09227209986096L1167.2234166666667,110.31216469506825L1167.7491666666667,110.4849625817456L1169.3848333333333,110.8799346748948L1171.371,110.91022048932649L1171.4294166666666,111.11933790693809L1171.9551666666666,111.4389578286362L1172.1304166666666,112.00717399847582L1174.4086666666667,112.26756452897001L1175.2849166666667,110.7230032566697L1175.8690833333333,110.78120509719531L1176.7453333333333,111.03859408222661L1176.8621666666668,110.62815188530902L1177.3295,110.9791479928424L1178.2641666666668,108.79060695961391L1178.3225833333333,109.42749173560469L1179.4325000000001,109.6549753916716L1180.8345000000002,109.88260093262664L1182.1196666666665,109.65286072296362L1183.7553333333335,110.33553460979402L1184.4563333333333,109.93921167275562L1186.9098333333334,109.54448654592983L1187.0850833333332,108.90932220756235L1189.4801666666667,108.53046782691456L1189.9475,108.77259672814074L1194.6792500000001,106.67970727223678L1194.7376666666667,107.40983682498262L1199.8199166666666,108.08932565264331L1200.28725,108.38006215791484L1202.8575833333334,108.78056393081499L1202.916,108.62305829133385L1205.89525,109.21113839379046L1206.421,108.76949430130202L1209.40025,108.28414708628179L1209.9844166666667,109.06112124706027L1210.3933333333332,107.66907193620119L1210.6854166666667,108.43477754621142L1212.0874166666667,109.25550528400493L1214.2488333333333,109.88151418288169L1215.2419166666666,109.9412676160872L1217.6954166666667,110.63515929694404L1220.4994166666665,110.3259964119099L1220.61625,111.05543633738222L1222.8360833333334,111.62696947654314L1224.2965,112.22493324303838L1224.47175,112.7198595247641L1225.4064166666667,112.68965857042792L1225.6985,113.12601087096931L1225.9905833333332,113.50967757257035L1227.0420833333333,114.21811411235637L1227.3341666666665,114.76401348100399L1227.62625,113.41685122820348L1228.32725,113.7203580297512L1229.554,113.86501064496173L1232.2995833333332,114.13077397455669L1233.059,113.62349415939832L1233.5263333333335,114.32810026843799L1235.68775,114.79618598326641L1236.6224166666666,115.25781229103364L1238.6085833333334,116.00232523372364L1239.2511666666667,116.38842032498803L1240.0105833333334,115.76942120046482L1242.172,116.23809446835918L1242.5809166666668,116.38259233446217L1242.8145833333333,116.62290003818191L1244.2749999999999,116.09120190129653L1245.7938333333332,115.56542560230406L1248.1305,116.35166553603244L1250.5255833333333,115.84219721314713L1250.584,116.54238804259711L1250.7008333333333,116.35872224977334L1250.9929166666668,116.82069914017279L1253.91375,117.03335148018101L1255.0820833333335,116.96303052947513L1255.9583333333335,117.44648192982692L1256.1335833333333,118.16602433564714L1256.2504166666665,117.46817242319031L1257.41875,118.0572356984564L1257.7692499999998,118.27625837974347L1259.1128333333334,116.10520452846947L1260.57325,116.57058287484631L1260.6900833333334,116.00688974964987L1261.4495000000002,116.59124588772795L1262.67625,117.333984513355L1263.7861666666665,117.50345785287084L1264.1366666666665,117.59862675935011L1264.9545,117.90145121466264L1265.5970833333333,118.2054934055376L1266.1228333333333,117.60619474185779L1266.1812499999999,117.78736621116741" style="fill: none;" fill="none"></path></g></g></g></g><g opacity="0.2"><g><g><g><path stroke="rgb(0, 119, 187)" stroke-width="2px" d="M117.88483333333333,69.34488487243652L119.28683333333333,69.97689199447638L119.46208333333333,69.57309436798101L120.98091666666667,69.19207763671875L122.32449999999999,68.93182468414312L125.88791666666667,67.77120065689093L126.06316666666667,68.620352268219L126.58891666666668,69.87966012954712L130.21075,71.04864549636841L130.50283333333334,69.20860004425055L131.72958333333335,69.4077200889588L132.43058333333335,69.96342372894293L132.78108333333333,70.84146451950073L134.82566666666665,70.17050457000732L134.9425,70.94775867462158L135.40983333333332,70.67408752441406L137.10391666666666,71.26343679428106L138.27225,71.67204093933111L141.42675,71.2969822883606L143.70499999999998,71.28176164627081L144.52283333333332,70.72365474700928L148.14466666666667,70.44848155975342L149.72191666666666,70.2649827003479L150.65658333333334,71.29482936859137L151.0655,72.09166002273565L151.12391666666664,70.43376159667974L153.05166666666665,71.74554061889654L153.8695,71.81828927993774L154.62891666666667,72.34390211105352L155.44675,72.67645311355597L156.03091666666666,72.2204847335816L158.54283333333333,71.4132399559021L159.01016666666666,73.84183359146124L159.4775,71.8257994651795L161.52208333333334,71.0408349037171L161.75575,72.94947338104254L161.87258333333332,72.23715734481817L162.69041666666666,71.07833576202393L162.80725,73.33800029754644L163.21616666666668,73.53566837310791L163.6835,71.82419729232788L164.03400000000002,73.78240299224854L165.66966666666667,71.35786485671997L172.03708333333333,73.4480996131897L173.55591666666666,70.77021789550781L173.61433333333335,73.38836860656744L173.96483333333333,71.64640617370611L174.31533333333334,74.11340188980108L175.36683333333332,72.1970529556275L175.54208333333335,73.56490802764893L176.0678333333333,75.04196119308472L178.93024999999997,71.2039561271668L179.1055,73.69082880020147L179.8065,74.3495221138001L180.68275,72.90881824493408L181.03324999999998,73.98397636413574L181.32533333333333,74.29394674301147L184.363,70.24160099029541L184.65508333333335,72.63629865646368L184.7135,73.17958545684814L185.76500000000001,74.82316446304327L186.52441666666667,73.55128955841064L189.50366666666665,73.83842897415161L190.49675,74.65058040618902L193.70966666666666,72.0425934791565L193.88491666666667,74.86086559295654L194.70275,73.72667741775513L194.93641666666667,75.37511301040655L197.74041666666668,74.96730995178228L198.14933333333335,75.67662191390997L199.43449999999999,75.53462934494024L200.13549999999998,73.37289762496948L200.71966666666665,73.19215250015259L202.47216666666665,74.99539804458624L203.11475000000002,74.29009151458746L203.93258333333333,75.42893600463867L205.80191666666664,73.24662637710571L207.49599999999998,72.77774047851562L208.43066666666667,73.14053249359137L209.36533333333335,76.055986404419L209.599,74.65949249267578L210.59208333333333,73.64571762084967L212.63666666666668,73.21548414230352L215.09016666666668,74.91323661804205L215.61591666666666,77.12613773345947L216.2585,73.62539005279547L216.66741666666667,74.21233606338501L217.19316666666668,75.26841831207281L218.011,76.44211006164551L218.1278333333333,74.33054637908936L218.30308333333335,76.27027702331543L220.87341666666666,76.0708065032959L223.50216666666668,76.96411800384527L224.5536666666667,75.53773355484009L225.07941666666667,74.47323989868164L225.83883333333333,71.08910036087036L226.01408333333333,77.31529426574707L226.48141666666666,74.82671928405767L228.81808333333336,76.92000818252563L229.81116666666665,76.75903987884527L230.39533333333333,77.20239114761358L230.57058333333336,76.7922849655152L233.72508333333332,74.68377542495728L234.4260833333333,77.5335402488709L235.76966666666667,77.07521867752075L237.9310833333333,74.80403852462769L238.10633333333334,72.74199199676514L238.16475,76.4279408454895L238.63208333333333,74.78646469116211L238.86575,77.54780960083008L239.27466666666666,77.34583568572998L242.37075000000002,77.27809381484991L242.77966666666666,78.72896146774292L244.5905833333333,78.85673475265503L244.82425,76.53829050064093L245.29158333333334,76.94869709014898L245.7589166666667,77.49593925476074L245.99258333333333,72.76922893524176L247.16091666666668,76.22852039337158L247.45299999999997,77.08608341217047L247.5114166666667,75.94788980484014L248.67975,77.95666408538824L248.97183333333334,78.00447893142706L250.08175,77.09149074554449L251.01641666666666,75.84810447692871L251.60058333333333,76.66155767440796L252.30158333333333,77.47280788421637L253.82041666666666,77.3003740310669L254.34616666666668,75.32935094833374L256.39075,73.517493724823L256.44916666666666,76.14851188659674L256.566,78.26292943954468L259.1363333333333,78.47822141647339L259.6036666666667,78.93954706192022L260.12941666666666,73.39537811279297L260.24625000000003,77.80861330032349L260.5383333333333,78.7280101776123L261.99875000000003,75.09172868728643L262.05716666666666,78.19143247604376L262.6413333333333,75.60522508621216L262.7581666666667,78.79850578308111L263.05025,76.15201663970953L263.86808333333335,79.1894359588623L264.21858333333336,78.88251972198486L264.7443333333333,78.80216073989874L265.62058333333334,77.08643388748169L265.97108333333335,77.62641620635992L269.0671666666667,79.17366456985474L273.68208333333337,75.54364156723028L274.73358333333334,78.96453094482422L276.89500000000004,77.98755598068237L277.7128333333333,78.7730712890625L279.7574166666667,78.75464630126953L284.606,77.504801273346L286.008,76.93482828140264L290.1555833333333,79.55172729492188L290.6229166666667,79.38465070724487L292.72591666666665,80.14222812652594L293.83583333333337,78.62892580032349L294.30316666666664,78.78643941879272L294.47841666666665,80.88643741607666L297.8665833333333,76.94404077529907L301.48841666666664,82.05021572113037L302.42308333333335,75.07635784149176L303.4745833333333,79.36657619476318L303.533,79.65136241912842L305.5191666666667,79.81944036483765L306.1033333333333,79.87146091461187L306.27858333333336,79.97470092773438L306.337,78.1096715927124L306.4538333333333,77.58841466903687L306.51225,79.89369106292725L307.97266666666667,78.83004856109625L309.9004166666667,76.68463897705084L312.2370833333333,76.21249866485601L314.048,80.7323784828186L315.62525,78.9999790191651L315.9173333333333,81.98387575149542L317.2025,77.35339593887335L318.31241666666665,77.70357084274298L319.1886666666667,77.26011943817144L320.12333333333333,81.60245847702026L321.8174166666667,81.05276298522949L321.99266666666665,82.64902782440191L323.4530833333333,82.90101957321167L327.1333333333333,77.25015592575079L328.18483333333336,82.59665679931646L328.3016666666667,78.59167528152472L328.4185,82.29725074768066L328.769,81.94692564010626L330.4046666666667,82.43533802032476L331.22249999999997,80.26764822006226L334.4938333333333,78.53574943542486L334.72749999999996,79.72305965423584L335.3700833333333,82.00991106033325L338.40775,82.4503583908081L339.6345,80.21362495422363L339.9265833333333,77.16794443130493L340.04341666666664,81.19415473937988L340.62758333333335,78.0181975364685L342.55533333333335,81.52620506286621L343.2563333333333,78.95036172866827L346.294,79.9056072235108L347.92966666666666,82.78966856002808L349.56533333333334,82.93646764755255L351.78516666666667,82.45085906982422L352.42775,82.06763935089117L352.603,79.61511325836182L355.93275,81.44885015487671L356.2248333333333,83.8007397651673L356.86741666666666,81.27401304244995L361.1318333333333,83.51995897293097L361.8328333333333,82.16577243804932L361.94966666666664,76.7466230392456L362.24175,82.32799243927002L362.3001666666667,81.86681699752808L363.76058333333333,74.80909538269043L364.05266666666665,78.36937379837036L364.22791666666666,82.72227716445923L364.69525,82.02167701721197L365.86358333333334,77.57524681091309L366.03883333333334,81.49306011199951L366.9735,81.91648435592651L368.25866666666667,81.71556186676025L369.0180833333333,79.13095664978027L369.13491666666664,82.15280485153204L372.05575000000005,84.08782911300665L373.45775,83.68633460998541L373.8666666666667,81.72272157669067L374.2171666666667,82.33510208129883L375.61916666666673,81.78931188583374L375.7944166666667,82.72928667068481L379.24100000000004,82.3681468963623L380.23408333333333,80.57311248779297L381.46083333333337,77.9176111221314L384.26483333333334,76.07576322555542L384.44008333333335,85.16123485565186L385.37474999999995,81.62103366851807L387.1856666666667,84.68899440765381L388.8213333333333,83.39644145965576L389.2886666666667,79.30664491653442L389.52233333333334,81.70865249633789L389.98966666666666,83.30762100219727L392.15108333333336,78.57815694808966L392.4431666666666,83.12026691436773L394.3125,73.51984691619873L394.7798333333334,83.3205885887146L395.3055833333333,79.27024555206305L396.5323333333333,82.80724239349365L397.23333333333335,80.26684713363647L397.35016666666667,82.93626737594604L399.57,84.59596824645996L400.27099999999996,79.40452766418463L402.72450000000003,83.40305042266846L406.69683333333336,78.12083673477179L407.2225833333333,84.43054389953613L407.3978333333334,83.14369869232183L411.83750000000003,83.38197183609009L411.95433333333335,83.31312847137457L412.01275,83.67346715927124L415.1088333333333,85.8785076141358L416.7445,86.55963134765625L420.59999999999997,80.31235885620117L422.87825,83.41817092895513L425.7990833333334,84.56532669067383L428.13575000000003,79.06601858139038L429.07041666666663,84.77761459350592L429.88824999999997,81.47188138961792L433.45166666666665,85.7143349647522L434.7368333333333,83.8301796913147L437.8329166666667,84.45743036270142L439.00124999999997,82.28944015502935L439.1180833333333,75.67176532745367L440.98741666666666,78.8959379196167L442.38941666666665,85.5306859016419L443.20725,85.89482975006104L445.7191666666667,81.35322046279907L447.3548333333333,84.6319169998169L447.47166666666664,84.23778247833258L447.7053333333334,76.74577188491821L448.58158333333336,81.05336380004888L450.97666666666663,80.21112155914312L451.15191666666664,80.84122610092163L454.248,81.22729969024664L456.0589166666666,86.33072090148926L456.1173333333333,79.85293579101568L457.11041666666665,85.97989511489874L457.28566666666666,86.38319206237799L459.27183333333335,85.14636468887329L459.38866666666667,80.70994806289679L459.79758333333336,85.69525909423828L461.9005833333334,71.95657682418823L463.1273333333333,80.56069564819336L464.5293333333333,74.80534029006958L464.82141666666666,86.65105533599854L465.1719166666666,89.16366291046143L466.7491666666667,85.30793380737305L467.91749999999996,84.54174470901489L468.20958333333334,84.10885763168335L469.08583333333337,81.81524705886841L469.37791666666664,82.1626181602478L471.88983333333334,76.29541110992437L473.35025,81.94091749191284L473.46708333333333,76.3489837646485L474.40175,85.70347023010254L474.98591666666664,87.0590586662293L477.90675,79.80612230300909L479.01666666666665,86.93579149246216L479.77608333333336,87.81853866577148L480.1265833333333,86.92843151092535L480.886,82.63881397247314L484.21574999999996,81.12055492401129L485.5593333333333,81.2609453201294L485.8514166666667,88.89084291458136L487.2534166666667,90.5690689086914L487.89599999999996,83.53382778167725L488.5385833333333,82.784661769867L489.29799999999994,80.72782230377197L490.7,86.76951599121094L496.2495833333333,84.15266704559332L496.308,88.82139873504644L496.5416666666667,85.13149452209473L497.71,86.5766544342041L497.7684166666666,89.09026336669922L500.8645,88.16816282272339L501.4486666666667,87.70022821426392L502.55858333333333,83.12652540206909L505.7130833333334,79.9305911064148L506.2388333333333,89.82586097717291L506.58933333333334,82.45696735382086L506.9398333333333,89.53476619720465L507.11508333333336,87.56945085525513L507.524,82.73579549789429L507.99133333333333,87.01349687576294L508.16658333333334,81.76232528686523L508.8675833333333,82.57607889175415L510.4448333333333,81.68166589736938L510.67850000000004,87.65671920776367L511.3210833333334,87.68330526351929L515.936,82.11450290679937L516.7538333333333,89.37519979476934L517.2211666666667,81.17412757873541L518.0974166666666,79.66067504882812L521.8945,81.20652151107794L523.5885833333333,86.26418066024786L523.7638333333333,89.75561571121222L525.2826666666666,87.2362489700318L526.5678333333333,87.36637544631964L531.0659166666667,85.00787687301641L531.9421666666667,88.0680770874024L532.4095,90.09457540512085L533.7530833333333,83.10539674758917L534.8045833333333,85.63677978515625L537.14125,86.60203886032104L538.368,90.96836042404175L540.1789166666666,82.17002820968634L543.275,87.13921737670898L543.9175833333334,90.46362590789795L544.9690833333333,86.79605197906494L545.55325,87.82785129547125L545.6116666666667,85.09139013290405L546.7215833333333,83.24658823013306L548.0651666666668,88.9063138961792L549.1750833333333,91.23807621002203L551.4533333333333,83.25790357589722L551.6285833333334,89.42967367172241L552.0375,89.14643955230713L552.6216666666667,90.25364112854004L552.7969166666667,92.05613565444946L553.6731666666667,77.44356822967535L555.6009166666666,82.86527109146124L556.7108333333333,91.17474031448364L561.32575,82.49857378005981L563.3703333333333,81.09957647323608L564.3634166666667,84.56712913513184L565.2396666666667,87.64475297927856L565.88225,83.86722993850708L566.23275,89.30365276336676L567.6931666666667,83.58129215240484L567.9852500000001,85.53949785232544L568.2773333333333,86.28140401840216L569.3288333333334,85.43791007995605L569.9714166666668,89.58057832717896L570.1466666666666,90.87778759002686L571.3149999999999,89.31832265853882L571.7823333333333,91.06809568405151L572.3665,84.41312026977545L574.4110833333333,88.75380706787115L574.7031666666667,89.9133296012879L578.2665833333333,79.97064542770386L578.3249999999999,88.69052124023438L580.1943333333334,91.03820514678955L583.1735833333333,85.06300163269043L583.6409166666667,91.52421426773077L585.6855,88.5295028686524L586.3280833333333,83.88154935836792L587.0290833333333,80.0669260025025L588.0221666666666,89.39567756652832L591.5271666666666,90.52836370468145L594.6816666666667,85.7580943107605L594.9153333333334,85.95446062088013L595.7331666666666,77.6389331817627L596.7262499999999,91.79403018951416L597.0767500000001,84.54204511642462L599.53025,89.62238502502441L600.4649166666667,90.18354606628418L601.1075000000001,92.65479755401617L602.1005833333334,87.29277563095093L603.2689166666667,78.12178802490234L603.561,89.14038133621216L603.6778333333333,88.70108556747442L604.0283333333333,85.65164995193481L605.1966666666666,82.5318188667298L605.3719166666667,85.31093788146973L605.664,91.00896549224854L606.18975,88.46801948547363L611.4472499999999,90.05321931838989L611.5056666666667,91.3705558776856L611.6225000000001,88.66413545608526L613.2581666666666,89.65748262405396L613.55025,89.16441392898565L613.8423333333334,81.59805250167847L617.2305,89.90742158889776L618.7493333333333,93.72885417938232L619.2750833333333,93.81241750717169L621.2028333333333,88.19144439697271L621.26125,84.94979810714727L621.787,89.42166280746466L624.0068333333334,95.73762845993042L624.4741666666666,84.02479362487793L624.76625,93.819326877594L626.6355833333333,75.58604907989508L629.3811666666667,91.42262649536133L629.6148333333333,87.7921028137207L630.9584166666667,86.68410015106201L632.0099166666666,89.04339981079102L632.1851666666666,84.34392642974854L633.4119166666667,81.13452386856085L634.0545,91.42512989044195L635.4565,86.62181568145752L635.8654166666666,92.31844139099121L636.8584999999999,92.24664402008057L636.9753333333333,88.80858135223389L637.1505833333333,88.73688411712646L638.3773333333334,81.7683334350586L638.78625,83.9371747970581L639.4288333333334,84.65034198760986L640.1298333333333,91.7637391090393L641.1229166666667,83.37756586074835L642.1744166666667,93.11687421798706L642.5249166666666,94.11783170700073L643.1090833333333,92.62440633773804L644.219,83.12011671066284L645.79625,95.08143854141235L646.2635833333334,89.53021001815802L647.4903333333333,95.87641668319702L651.6379166666667,90.99324417114258L655.2013333333333,90.82797002792364L655.7855,92.12377738952637L656.1944166666667,86.97754812240606L657.7716666666666,93.78217649459845L658.9984166666667,86.76811408996582L660.51725,94.52878904342651L661.043,92.5018401145935L662.9123333333333,95.64229917526251L664.1390833333334,76.99055385589605L666.651,82.39668560028082L666.8262500000001,78.48908615112305L667.9945833333334,95.35170507431036L668.4035,85.01303386688232L669.9223333333333,92.1738953590393L674.0115000000001,78.78834199905396L674.5372500000001,92.70816993713379L674.9461666666666,94.35530376434326L675.7055833333333,95.50366115570068L676.99075,90.20863008499146L677.6333333333333,91.55355405807501L678.2759166666667,93.68859958648682L679.2105833333334,93.69375658035278L680.6125833333333,82.75967788696289L680.9630833333333,80.95573139190674L682.3066666666667,79.45023965835571L683.3581666666666,85.17219972610474L686.9215833333333,76.97277975082397L687.4473333333334,95.53920936584478L690.0176666666666,93.69986486434937L691.6533333333333,84.99991607666016L691.8285833333333,87.93274354934692L694.16525,97.1196026802063L695.56725,81.89770889282227L699.3643333333333,95.97114515304565L703.9208333333333,95.52774381637573L704.2129166666667,88.34400129318237L704.3881666666666,95.40037107467657L705.206,94.15237855911255L705.9069999999999,90.71681928634644L707.2505833333333,95.36146831512451L707.6010833333333,88.10637903213507L708.4773333333333,89.78290271759033L708.8278333333334,90.18424701690674L709.412,93.40356302261353L710.814,99.20603227615356L711.8070833333334,87.4700660705567L713.09225,84.57809400558477L715.3120833333334,96.17752504348755L715.9546666666668,92.31673908233643L717.1229999999999,94.79104471206665L717.5319166666667,94.78203248977661L717.8240000000001,88.81639194488525L724.1329999999999,88.60921096801763L724.30825,96.25633192062378L725.1845,89.2035169601441L725.535,94.72625684738165L725.8270833333333,94.78468608856201L728.3389999999999,86.78578805923462L728.9815833333333,88.93795680999756L729.5657500000001,96.09911870956421L729.7994166666667,93.0284042358399L729.8578333333332,77.51561594009405L731.4935,82.77920436859137L732.0192499999999,97.11354446411138L733.3628333333334,98.33915662765503L733.42125,83.78957462310791L734.12225,95.345046043396L735.9331666666667,88.259036064148L736.4589166666667,85.51471424102783L737.452,88.93935871124268L737.7440833333333,81.27616596221924L738.2698333333333,85.65971088409424L738.7371666666667,87.73031902313232L739.2044999999999,85.5755467414856L740.1975833333333,89.93130397796637L741.9500833333333,96.12485361099243L742.53425,88.6491150856018L744.6956666666666,82.72778463363653L745.2214166666668,85.49689006805426L745.2798333333333,86.8725056648255L746.5649999999999,95.13846588134766L746.9739166666667,95.87386322021484L748.6095833333333,94.34063386917114L749.19375,95.08324098587036L749.4858333333333,97.88283777236944L750.1284166666667,80.59724521636963L750.6541666666667,85.57800006866461L751.4720000000001,79.86144733428961L753.6918333333333,88.86330556869513L753.8670833333333,88.98336839675903L755.85325,97.1807856559754L756.0869166666666,93.72940492630005L757.4305,96.8561954498291L757.781,95.56043815612793L757.8978333333333,97.81274271011353L760.2345,87.6804513931275L760.5849999999999,96.30289506912237L760.7018333333333,90.90096902847296L761.3444166666667,79.70268201828003L761.6365000000001,95.987467288971L762.4543333333332,90.28868865966803L762.9800833333333,96.13436651229864L763.91475,81.45290565490723L765.3751666666667,89.6917290687561L766.4850833333334,80.93234968185425L767.0108333333334,94.47857093811035L768.0623333333333,87.06726980209356L769.6395833333333,87.84257125854492L770.9831666666668,98.13958597183233L771.1,97.9186863899231L771.1584166666667,98.78180694580084L774.605,90.62078905105597L774.78025,93.60173177719116L775.306,92.4763555526734L777.5258333333334,87.59413433074951L780.5050833333333,97.23996591567993L783.4259166666667,99.2612071037293L783.89325,88.51918888092041L785.99625,98.40494585037231L786.9893333333333,91.05617952346802L788.1576666666667,97.73994398117071L789.7933333333334,97.67375421524054L789.9685833333333,103.57505750656128L790.3774999999999,77.17270088195806L790.4943333333333,93.48692607879639L791.4874166666667,93.57925128936768L791.95475,96.16300535202026L792.4805,98.06648683547974L793.35675,98.25243902206421L794.2914166666667,95.7163496017456L796.5696666666668,83.80284261703491L797.2706666666667,89.78520584106445L797.9716666666667,102.20424842834473L798.6142500000001,93.66812181472778L799.4320833333334,95.86895656585699L799.5489166666666,95.12389612197876L801.6519166666667,80.81844520568848L803.7549166666666,70.23198795318609L805.3321666666667,88.77558660507202L805.6826666666667,99.13343381881714L806.2084166666667,91.09913778305054L807.9609166666667,98.01191282272339L809.3629166666666,94.00858354568481L810.4144166666666,78.9127607345581L812.3421666666667,97.79301595687866L813.9194166666666,103.37693881988525L814.6788333333333,98.43313407897949L814.7956666666668,100.36755752563477L814.8540833333333,82.43058156967163L816.0224166666667,91.38312292099005L816.3145000000001,96.73137617111206L817.1323333333333,90.80769252777105L817.7165000000001,88.96173906326294L818.0085833333333,100.10910701751709L818.4175,85.16448926925659L819.5274166666666,87.18543004989624L820.2284166666667,101.44121360778814L822.273,89.32753515243536L825.8948333333333,100.18220615386969L826.7710833333333,95.78669500350952L827.4136666666666,87.84973096847534L827.6473333333334,90.33334922790527L828.582,100.73130083084106L830.5097499999999,94.79550075531006L831.0355,99.11856365203857L833.6058333333334,87.76451539993286L834.7741666666667,89.591142654419L834.9494166666666,99.62059450149536L835.8840833333334,95.41704368591314L836.81875,104.74219036102295L840.9663333333333,103.17196083068848L841.4920833333333,101.23663616180426L843.303,91.33310508728033L844.4129166666667,96.57316160202026L844.5881666666668,88.08289718627935L845.8733333333334,100.8558697700501L849.6704166666667,100.30867767333984L850.13775,75.06173801422119L851.3644999999999,101.52122211456299L852.6496666666666,99.69444465637207L854.34375,101.66616868972784L857.0309166666667,72.62883853912354L858.6665833333333,90.72397899627691L862.1131666666666,100.86533260345465L863.0478333333334,87.62527656555176L864.85875,101.39995765686035L865.3260833333334,95.02446126937866L866.5528333333333,88.77328348159796L868.0132500000001,103.90365314483643L868.3053333333332,102.1453685760498L869.0647499999999,97.24141788482666L869.8241666666665,97.51418781280523L870.1746666666667,90.90026807785034L872.6281666666666,103.77332639694214L872.6865833333334,86.76551055908203L873.8549166666667,88.49285316467285L877.2430833333333,100.25860977172852L878.2361666666666,100.29866409301758L879.8134166666666,100.0894804000855L879.8718333333334,101.76064682006836L880.3391666666666,90.38762283325195L881.0401666666666,101.92501974105835L881.7411666666667,101.89663124084473L882.6174166666667,85.95320892333984L882.8510833333333,78.64985418319708L883.8441666666666,100.0716061592102L884.8956666666667,91.31513071060186L885.9471666666667,94.69586563110352L886.8234166666666,102.54786443710327L887.4075833333333,92.75984001159674L887.5828333333334,102.8593368530274L888.2838333333334,103.27605199813843L888.34225,86.1105723381043L888.5759166666667,104.02937364578247L890.2115833333332,103.6171145439148L891.7304166666665,101.6171522140503L893.6581666666666,100.27658414840698L894.5344166666666,105.13632488250738L896.6374166666667,94.11482763290411L899.7335,89.28918313980108L899.9671666666667,103.42325162887573L901.1355000000001,103.13836526870728L903.9979166666667,94.6442456245423L905.692,106.67551231384283L908.1455000000001,87.01019239425659L911.12475,104.36943483352661L912.001,76.92476463317877L912.4683333333334,100.62240314483643L912.8188333333334,94.24109888076782L915.7396666666667,89.03338623046875L915.9149166666667,90.24362754821783L916.0901666666666,100.64608526229858L916.8495833333333,92.43825387954712L918.4268333333333,107.176591873169L919.88725,104.90891647338867L920.2961666666666,104.07022905349731L921.5813333333333,97.37489891052252L922.8080833333332,82.86231708526611L923.5674999999999,91.36279535293579L925.6120833333333,109.97228336334234L926.9556666666667,92.16418218612671L927.1309166666667,105.1225061416626L927.8903333333334,79.99758195877081L928.124,104.85864830017096L930.9864166666666,102.95356464385992L931.0448333333334,107.3386116027832L932.15475,98.03724718093872L932.33,93.42489194870001L932.8557500000001,103.88768148422247L932.9141666666667,105.76332521438599L933.2646666666666,104.79581308364868L934.433,106.05562162399292L934.5498333333333,73.84989452362066L939.34,106.89455938339239L939.6905,107.26796579360962L944.07175,110.97984981536871L945.7074166666667,108.38963699340826L947.5767500000001,107.66355228424072L947.92725,113.97671413421631L949.2708333333334,94.0933485031128L951.4322500000001,109.53203630447393L951.4906666666666,97.81048965454102L951.8411666666666,109.26437330245977L952.3669166666666,105.91443014144903L953.36,94.92788028717041L954.061,106.45901870727539L954.4114999999999,86.55757856369024L955.5798333333333,108.8126106262207L955.8135,103.98040723800665L957.2154999999999,86.51882600784307L957.8580833333333,99.7442622184754L960.7789166666666,99.6048731803894L962.1809166666666,110.00172328948975L963.5245,92.8275818824768L965.6274999999999,103.50526285171509L967.0295,104.48399019241333L967.1463333333332,106.93846893310547L967.20475,110.12469005584717L970.70975,98.19826555252081L971.5859999999999,97.68091392517096L971.9365,81.30505514144897L973.689,107.95855236053467L974.21475,110.49929809570312L974.4484166666666,106.27882432937622L974.7989166666666,110.33267211914062L975.7335833333334,105.88664245605469L978.2455,94.00372695922852L978.9465,106.77324485778809L980.1732499999999,108.70181035995483L980.2316666666667,106.01746988296509L980.4653333333333,111.49204444885254L980.6990000000001,101.68935012817383L980.9326666666667,95.98651599884033L981.92575,104.97170162200928L982.2762500000001,91.34001445770264L982.5099166666668,106.06773805618292L984.0871666666666,93.49083137512207L985.6644166666666,107.85731506347656L986.7743333333333,108.21159553527832L988.6436666666667,107.92160224914551L988.7020833333333,104.78224468231201L988.7605000000001,111.46470737457281L990.1625,114.51534461975103L993.9595833333334,110.61845970153814L994.6605833333333,99.83238172531128L998.3408333333333,109.20714569091803L1000.7943333333333,106.28142786026001L1001.0279999999999,97.91678380966187L1003.5983333333334,115.85916709899902L1004.7082499999999,94.98530817031866L1006.8696666666666,111.7376275062561L1008.6221666666668,108.625657081604L1009.0310833333333,110.69436264038086L1009.6152500000001,93.89042329788214L1010.6667500000001,108.35599136352539L1012.0103333333333,102.2894139289856L1013.0034166666667,106.82226133346558L1013.3539166666667,87.4469347000122L1013.7628333333333,94.1137261390686L1016.5084166666667,109.37502336502075L1016.8004999999999,110.47826957702642L1017.7351666666666,101.99406337738037L1018.0856666666666,90.21448802947998L1018.6698333333334,105.50692749023438L1019.7213333333334,112.0359320640564L1020.7144166666667,87.2687931060791L1020.8312500000001,92.4143214225769L1022.7005833333333,97.38731575012207L1023.8689166666667,106.06152963638306L1024.5115,105.5560941696167L1027.2570833333332,114.3987364768982L1027.9580833333334,92.56953191757202L1028.6006666666667,114.61452913284302L1032.3393333333333,97.5284070968628L1034.15025,108.57248497009277L1036.3116666666667,113.05236053466797L1037.7136666666665,111.381844997406L1038.2394166666666,94.53564834594732L1038.5899166666666,112.48403978347778L1039.4661666666666,98.87237977981573L1040.45925,116.29906368255615L1041.2770833333334,115.22891235351562L1041.4523333333334,109.38909244537359L1042.56225,93.28600358963013L1043.6721666666665,96.57596540451055L1050.27325,115.24658632278442L1050.7405833333332,106.33690309524536L1051.0910833333332,110.76260519027716L1052.4930833333333,120.00053358078003L1052.5515,74.62734889984131L1054.7713333333334,111.33548212051392L1056.3485833333334,113.8866920471192L1057.0495833333332,92.31188249588018L1058.0426666666667,111.0799355506897L1058.2763333333335,108.9266152381897L1061.7229166666666,97.88479042053223L1062.4823333333334,98.48039817810059L1063.0665,110.71033430099493L1063.3001666666667,114.32238292694092L1064.7605833333334,110.72710704803467L1066.04575,107.93892574310303L1070.2517500000001,116.95505332946777L1071.5369166666667,114.20402240753174L1071.7705833333334,108.51175260543829L1071.8874166666667,115.67817163467407L1071.9458333333332,107.86802959442139L1072.53,112.38790941238403L1073.6983333333333,110.47216129302979L1075.2171666666668,103.68460607528687L1077.2033333333334,115.46733570098877L1077.7290833333334,113.57101392745972L1081.0004166666665,115.63671541213989L1084.1549166666666,114.22800493240356L1085.6737500000002,93.50945663452148L1085.9658333333332,114.84929752349854L1087.1341666666667,117.84616184234619L1090.1134166666668,97.6446647644043L1090.3470833333333,94.5998854637146L1092.2164166666666,102.07141828536987L1095.0788333333333,116.34888124465948L1096.2471666666668,100.92341136932373L1098.1165,110.3795857429505L1098.7006666666666,115.95699977874756L1098.7590833333334,108.80535078048706L1100.2195,116.65469598770142L1100.5115833333332,115.97472381591797L1100.74525,96.17356967926031L1101.5630833333335,96.13947343826294L1104.0165833333333,116.9574065208435L1105.4769999999999,101.09659624099737L1109.85825,113.30540370941168L1113.7721666666666,115.2928991317749L1115.5830833333334,119.06501483917236L1117.56925,113.71791315078735L1117.6276666666668,103.0016798973084L1118.9128333333333,120.96278858184814L1121.1326666666666,108.08116865158081L1121.42475,115.7627363204956L1121.7168333333334,100.86738538742065L1122.301,118.4256477355957L1123.87825,102.4184889793396L1123.9366666666667,108.74286603927612L1124.3455833333333,118.87490701675415L1125.1634166666668,118.05719804763794L1125.806,111.56324100494385L1126.8574999999998,92.85416793823242L1126.9743333333333,113.57541990280151L1128.3179166666666,110.2633781433106L1128.3763333333334,118.75364255905151L1128.4347500000001,114.15265274047852L1128.6100000000001,112.27390480041504L1129.7199166666667,110.81747961044312L1131.7645,102.52743673324585L1132.5239166666668,103.16314888000488L1132.7575833333333,119.51322269439697L1133.517,115.30832004547119L1133.5754166666668,106.01581764221197L1134.1595833333333,112.49114942550665L1134.8021666666666,113.19470357894897L1135.3863333333334,114.87037611007696L1135.8536666666666,99.31157541275024L1136.4378333333334,117.69876194000244L1139.30025,112.08239507675171L1139.7675833333333,119.27605104446417L1140.00125,111.81733560562134L1141.6369166666666,98.77164316177368L1142.45475,122.07704973220828L1142.80525,115.66375207901001L1143.6230833333334,99.93597221374512L1143.7399166666667,123.19746923446655L1144.1488333333334,114.54708766937256L1144.3825,115.94693613052374L1144.55775,106.67225790023804L1144.6161666666667,105.05561542510992L1144.8498333333334,110.46254825592047L1146.31025,109.46870040893555L1146.8944166666668,93.56863689422613L1147.1280833333333,117.27774095535278L1148.06275,104.63549566268921L1148.8805833333333,93.64954662322998L1150.9835833333334,101.612045288086L1151.042,114.7916693687439L1151.4509166666667,120.02331447601318L1152.0935,93.41047239303595L1153.846,102.996572971344L1154.9559166666668,115.86662721633911L1155.0143333333333,101.15527582168579L1155.3064166666666,114.49286413192749L1156.8836666666668,120.12910795211792L1157.9351666666666,116.93197202682501L1159.1035,115.86737823486328L1165.58775,120.72631788253784L1166.1135,117.44396638870239L1167.0481666666667,111.151132106781L1167.2234166666667,96.09020662307745L1167.7491666666667,113.63520097732544L1169.3848333333333,118.08057975769049L1171.371,111.46235418319702L1171.4294166666666,114.93170928955084L1171.9551666666666,117.26587486267096L1172.1304166666666,122.36619186401367L1174.4086666666667,117.01468420028687L1175.2849166666667,82.56446313858032L1175.8690833333333,111.84226942062384L1176.7453333333333,115.73099327087402L1176.8621666666668,103.14547491073614L1177.3295,117.37807703018194L1178.2641666666668,68.89182043075567L1178.3225833333333,121.0383911132813L1179.4325000000001,113.80217742919922L1180.8345000000002,114.0323896408081L1182.1196666666665,105.46451997756958L1183.7553333333335,122.78120470046997L1184.4563333333333,102.71393966674805L1186.9098333333334,102.34834384918219L1187.0850833333332,97.32978773117065L1189.4801666666667,101.62366104125977L1189.9475,113.18679285049438L1194.6792500000001,68.52472257614136L1194.7376666666667,120.72066020965582L1199.8199166666666,120.47692966461187L1200.28725,113.68041229248047L1202.8575833333334,116.08201932907104L1202.916,105.75160932540894L1205.89525,119.93229103088379L1206.421,100.71798276901251L1209.40025,99.43589401245117L1209.9844166666667,123.2259578704834L1210.3933333333332,82.29094219207764L1210.6854166666667,122.3941798210144L1212.0874166666667,124.21800327301028L1214.2488333333333,121.29413795471191L1215.2419166666666,111.03061866760254L1217.6954166666667,123.28533840179443L1220.4994166666665,104.68971920013433L1220.61625,124.35368728637698L1222.8360833333334,122.04645824432376L1224.2965,123.12627267837524L1224.47175,121.74274635314941L1225.4064166666667,112.13907194137573L1225.6985,121.0810489654541L1225.9905833333332,120.50421667098999L1227.0420833333333,127.13345718383792L1227.3341666666665,124.71617889404297L1227.62625,88.85704708099371L1228.32725,119.25352048873907L1229.554,116.5021390914917L1232.2995833333332,118.97584390640259L1233.059,104.37539291381836L1233.5263333333335,127.1736116409302L1235.68775,123.32974863052371L1236.6224166666666,123.67361497879031L1238.6085833333334,129.57536888122561L1239.2511666666667,123.42723083496097L1240.0105833333334,104.48459100723267L1242.172,124.78236865997314L1242.5809166666668,119.01689958572393L1242.8145833333333,121.00389432907104L1244.2749999999999,106.39793586730963L1245.7938333333332,105.98011922836304L1248.1305,130.68542432785034L1250.5255833333333,106.55419778823853L1250.584,129.30740547180176L1250.7008333333333,113.01035356521606L1250.9929166666668,125.24289321899414L1253.91375,120.91016721725464L1255.0820833333335,115.68102550506597L1255.9583333333335,126.26017284393313L1256.1335833333333,131.28383588790894L1256.2504166666665,104.74579524993896L1257.41875,128.79631233215332L1257.7692499999998,122.26921033859253L1259.1128333333334,76.52522277832037L1260.57325,125.05478811264041L1260.6900833333334,105.73033046722412L1261.4495000000002,127.24450778961182L1262.67625,130.87468099594116L1263.7861666666665,120.5930871963501L1264.1366666666665,119.33362913131714L1264.9545,123.42217397689822L1265.5970833333333,123.74841642379764L1266.1228333333333,106.68051910400396L1266.1812499999999,121.09026145935059" style="fill: none;" fill="none"></path></g></g></g></g></g></g><g transform="translate(58, 378)" clip-path="url(#clip_1)"><clipPath id="clip_1"><rect width="1402" height="22"></rect></clipPath><g><g><line x1="0" y1="0" x2="0" y2="5" style="visibility: inherit;" fill="rgb(0, 0, 0)" stroke="rgb(204, 204, 204)" stroke-width="1px"></line><line x1="116.83333333333333" y1="0" x2="116.83333333333333" y2="5" style="visibility: inherit;" fill="rgb(0, 0, 0)" stroke="rgb(204, 204, 204)" stroke-width="1px"></line><line x1="233.66666666666666" y1="0" x2="233.66666666666666" y2="5" style="visibility: inherit;" fill="rgb(0, 0, 0)" stroke="rgb(204, 204, 204)" stroke-width="1px"></line><line x1="350.5" y1="0" x2="350.5" y2="5" style="visibility: inherit;" fill="rgb(0, 0, 0)" stroke="rgb(204, 204, 204)" stroke-width="1px"></line><line x1="467.3333333333333" y1="0" x2="467.3333333333333" y2="5" style="visibility: inherit;" fill="rgb(0, 0, 0)" stroke="rgb(204, 204, 204)" stroke-width="1px"></line><line x1="584.1666666666667" y1="0" x2="584.1666666666667" y2="5" style="visibility: inherit;" fill="rgb(0, 0, 0)" stroke="rgb(204, 204, 204)" stroke-width="1px"></line><line x1="701" y1="0" x2="701" y2="5" style="visibility: inherit;" fill="rgb(0, 0, 0)" stroke="rgb(204, 204, 204)" stroke-width="1px"></line><line x1="817.8333333333334" y1="0" x2="817.8333333333334" y2="5" style="visibility: inherit;" fill="rgb(0, 0, 0)" stroke="rgb(204, 204, 204)" stroke-width="1px"></line><line x1="934.6666666666666" y1="0" x2="934.6666666666666" y2="5" style="visibility: inherit;" fill="rgb(0, 0, 0)" stroke="rgb(204, 204, 204)" stroke-width="1px"></line><line x1="1051.5" y1="0" x2="1051.5" y2="5" style="visibility: inherit;" fill="rgb(0, 0, 0)" stroke="rgb(204, 204, 204)" stroke-width="1px"></line><line x1="1168.3333333333335" y1="0" x2="1168.3333333333335" y2="5" style="visibility: inherit;" fill="rgb(0, 0, 0)" stroke="rgb(204, 204, 204)" stroke-width="1px"></line><line x1="1285.1666666666665" y1="0" x2="1285.1666666666665" y2="5" style="visibility: inherit;" fill="rgb(0, 0, 0)" stroke="rgb(204, 204, 204)" stroke-width="1px"></line><line x1="1402" y1="0" x2="1402" y2="5" style="visibility: inherit;" fill="rgb(0, 0, 0)" stroke="rgb(204, 204, 204)" stroke-width="1px"></line></g><g transform="translate(0, 8)"><text x="0" y="0" dx="0em" dy="0.95em" style="text-anchor: middle; visibility: hidden; font-family: &quot;Helvetica Neue&quot;, sans-serif; font-size: 12px; font-weight: 200;" fill="rgb(50, 49, 63)" stroke="none" stroke-width="1px">-2k</text><text x="116.83333333333333" y="0" dx="0em" dy="0.95em" style="text-anchor: middle; visibility: inherit; font-family: &quot;Helvetica Neue&quot;, sans-serif; font-size: 12px; font-weight: 200;" fill="rgb(50, 49, 63)" stroke="none" stroke-width="1px">0</text><text x="233.66666666666666" y="0" dx="0em" dy="0.95em" style="text-anchor: middle; visibility: inherit; font-family: &quot;Helvetica Neue&quot;, sans-serif; font-size: 12px; font-weight: 200;" fill="rgb(50, 49, 63)" stroke="none" stroke-width="1px">2k</text><text x="350.5" y="0" dx="0em" dy="0.95em" style="text-anchor: middle; visibility: inherit; font-family: &quot;Helvetica Neue&quot;, sans-serif; font-size: 12px; font-weight: 200;" fill="rgb(50, 49, 63)" stroke="none" stroke-width="1px">4k</text><text x="467.3333333333333" y="0" dx="0em" dy="0.95em" style="text-anchor: middle; visibility: inherit; font-family: &quot;Helvetica Neue&quot;, sans-serif; font-size: 12px; font-weight: 200;" fill="rgb(50, 49, 63)" stroke="none" stroke-width="1px">6k</text><text x="584.1666666666667" y="0" dx="0em" dy="0.95em" style="text-anchor: middle; visibility: inherit; font-family: &quot;Helvetica Neue&quot;, sans-serif; font-size: 12px; font-weight: 200;" fill="rgb(50, 49, 63)" stroke="none" stroke-width="1px">8k</text><text x="701" y="0" dx="0em" dy="0.95em" style="text-anchor: middle; visibility: inherit; font-family: &quot;Helvetica Neue&quot;, sans-serif; font-size: 12px; font-weight: 200;" fill="rgb(50, 49, 63)" stroke="none" stroke-width="1px">10k</text><text x="817.8333333333334" y="0" dx="0em" dy="0.95em" style="text-anchor: middle; visibility: inherit; font-family: &quot;Helvetica Neue&quot;, sans-serif; font-size: 12px; font-weight: 200;" fill="rgb(50, 49, 63)" stroke="none" stroke-width="1px">12k</text><text x="934.6666666666666" y="0" dx="0em" dy="0.95em" style="text-anchor: middle; visibility: inherit; font-family: &quot;Helvetica Neue&quot;, sans-serif; font-size: 12px; font-weight: 200;" fill="rgb(50, 49, 63)" stroke="none" stroke-width="1px">14k</text><text x="1051.5" y="0" dx="0em" dy="0.95em" style="text-anchor: middle; visibility: inherit; font-family: &quot;Helvetica Neue&quot;, sans-serif; font-size: 12px; font-weight: 200;" fill="rgb(50, 49, 63)" stroke="none" stroke-width="1px">16k</text><text x="1168.3333333333335" y="0" dx="0em" dy="0.95em" style="text-anchor: middle; visibility: inherit; font-family: &quot;Helvetica Neue&quot;, sans-serif; font-size: 12px; font-weight: 200;" fill="rgb(50, 49, 63)" stroke="none" stroke-width="1px">18k</text><text x="1285.1666666666665" y="0" dx="0em" dy="0.95em" style="text-anchor: middle; visibility: inherit; font-family: &quot;Helvetica Neue&quot;, sans-serif; font-size: 12px; font-weight: 200;" fill="rgb(50, 49, 63)" stroke="none" stroke-width="1px">20k</text><text x="1402" y="0" dx="0em" dy="0.95em" style="text-anchor: middle; visibility: hidden; font-family: &quot;Helvetica Neue&quot;, sans-serif; font-size: 12px; font-weight: 200;" fill="rgb(50, 49, 63)" stroke="none" stroke-width="1px">22k</text></g><line x1="0" y1="0" x2="1402" y2="0" fill="rgb(0, 0, 0)" stroke="rgb(204, 204, 204)" stroke-width="1px"></line></g></g></g></g></svg>