<svg viewBox="0 0 1460 400" xmlns="http://www.w3.org/2000/svg"><g><g><g><g><g><line x1="58" y1="378" x2="53" y2="378" style="visibility: inherit;" fill="rgb(0, 0, 0)" stroke="rgb(204, 204, 204)" stroke-width="1px"></line><line x1="58" y1="343.6363636363636" x2="53" y2="343.6363636363636" style="visibility: inherit;" fill="rgb(0, 0, 0)" stroke="rgb(204, 204, 204)" stroke-width="1px"></line><line x1="58" y1="309.2727272727273" x2="53" y2="309.2727272727273" style="visibility: inherit;" fill="rgb(0, 0, 0)" stroke="rgb(204, 204, 204)" stroke-width="1px"></line><line x1="58" y1="274.9090909090909" x2="53" y2="274.9090909090909" style="visibility: inherit;" fill="rgb(0, 0, 0)" stroke="rgb(204, 204, 204)" stroke-width="1px"></line><line x1="58" y1="240.54545454545453" x2="53" y2="240.54545454545453" style="visibility: inherit;" fill="rgb(0, 0, 0)" stroke="rgb(204, 204, 204)" stroke-width="1px"></line><line x1="58" y1="206.1818181818182" x2="53" y2="206.1818181818182" style="visibility: inherit;" fill="rgb(0, 0, 0)" stroke="rgb(204, 204, 204)" stroke-width="1px"></line><line x1="58" y1="171.81818181818178" x2="53" y2="171.81818181818178" style="visibility: inherit;" fill="rgb(0, 0, 0)" stroke="rgb(204, 204, 204)" stroke-width="1px"></line><line x1="58" y1="137.4545454545455" x2="53" y2="137.4545454545455" style="visibility: inherit;" fill="rgb(0, 0, 0)" stroke="rgb(204, 204, 204)" stroke-width="1px"></line><line x1="58" y1="103.09090909090907" x2="53" y2="103.09090909090907" style="visibility: inherit;" fill="rgb(0, 0, 0)" stroke="rgb(204, 204, 204)" stroke-width="1px"></line><line x1="58" y1="68.7272727272728" x2="53" y2="68.7272727272728" style="visibility: inherit;" fill="rgb(0, 0, 0)" stroke="rgb(204, 204, 204)" stroke-width="1px"></line><line x1="58" y1="34.363636363636374" x2="53" y2="34.363636363636374" style="visibility: inherit;" fill="rgb(0, 0, 0)" stroke="rgb(204, 204, 204)" stroke-width="1px"></line><line x1="58" y1="0" x2="53" y2="0" style="visibility: inherit;" fill="rgb(0, 0, 0)" stroke="rgb(204, 204, 204)" stroke-width="1px"></line></g><g transform="translate(48, 0)"><text x="0" y="378" dx="0em" dy="0.3em" style="text-anchor: end; visibility: hidden; font-family: &quot;Helvetica Neue&quot;, sans-serif; font-size: 12px; font-weight: 200;" fill="rgb(50, 49, 63)" stroke="none" stroke-width="1px">0.25</text><text x="0" y="343.6363636363636" dx="0em" dy="0.3em" style="text-anchor: end; visibility: inherit; font-family: &quot;Helvetica Neue&quot;, sans-serif; font-size: 12px; font-weight: 200;" fill="rgb(50, 49, 63)" stroke="none" stroke-width="1px">0.3</text><text x="0" y="309.2727272727273" dx="0em" dy="0.3em" style="text-anchor: end; visibility: inherit; font-family: &quot;Helvetica Neue&quot;, sans-serif; font-size: 12px; font-weight: 200;" fill="rgb(50, 49, 63)" stroke="none" stroke-width="1px">0.35</text><text x="0" y="274.9090909090909" dx="0em" dy="0.3em" style="text-anchor: end; visibility: inherit; font-family: &quot;Helvetica Neue&quot;, sans-serif; font-size: 12px; font-weight: 200;" fill="rgb(50, 49, 63)" stroke="none" stroke-width="1px">0.4</text><text x="0" y="240.54545454545453" dx="0em" dy="0.3em" style="text-anchor: end; visibility: inherit; font-family: &quot;Helvetica Neue&quot;, sans-serif; font-size: 12px; font-weight: 200;" fill="rgb(50, 49, 63)" stroke="none" stroke-width="1px">0.45</text><text x="0" y="206.1818181818182" dx="0em" dy="0.3em" style="text-anchor: end; visibility: inherit; font-family: &quot;Helvetica Neue&quot;, sans-serif; font-size: 12px; font-weight: 200;" fill="rgb(50, 49, 63)" stroke="none" stroke-width="1px">0.5</text><text x="0" y="171.81818181818178" dx="0em" dy="0.3em" style="text-anchor: end; visibility: inherit; font-family: &quot;Helvetica Neue&quot;, sans-serif; font-size: 12px; font-weight: 200;" fill="rgb(50, 49, 63)" stroke="none" stroke-width="1px">0.55</text><text x="0" y="137.4545454545455" dx="0em" dy="0.3em" style="text-anchor: end; visibility: inherit; font-family: &quot;Helvetica Neue&quot;, sans-serif; font-size: 12px; font-weight: 200;" fill="rgb(50, 49, 63)" stroke="none" stroke-width="1px">0.6</text><text x="0" y="103.09090909090907" dx="0em" dy="0.3em" style="text-anchor: end; visibility: inherit; font-family: &quot;Helvetica Neue&quot;, sans-serif; font-size: 12px; font-weight: 200;" fill="rgb(50, 49, 63)" stroke="none" stroke-width="1px">0.65</text><text x="0" y="68.7272727272728" dx="0em" dy="0.3em" style="text-anchor: end; visibility: inherit; font-family: &quot;Helvetica Neue&quot;, sans-serif; font-size: 12px; font-weight: 200;" fill="rgb(50, 49, 63)" stroke="none" stroke-width="1px">0.7</text><text x="0" y="34.363636363636374" dx="0em" dy="0.3em" style="text-anchor: end; visibility: inherit; font-family: &quot;Helvetica Neue&quot;, sans-serif; font-size: 12px; font-weight: 200;" fill="rgb(50, 49, 63)" stroke="none" stroke-width="1px">0.75</text><text x="0" y="0" dx="0em" dy="0.3em" style="text-anchor: end; visibility: hidden; font-family: &quot;Helvetica Neue&quot;, sans-serif; font-size: 12px; font-weight: 200;" fill="rgb(50, 49, 63)" stroke="none" stroke-width="1px">0.8</text></g><line x1="58" y1="0" x2="58" y2="378" fill="rgb(0, 0, 0)" stroke="rgb(204, 204, 204)" stroke-width="1px"></line></g></g><g transform="translate(58, 0)" clip-path="url(#clip_0)"><clipPath id="clip_0"><rect width="1402" height="378"></rect></clipPath><g><g><g><line x1="0" y1="0" x2="0" y2="378" fill="rgb(0, 0, 0)" stroke="rgb(60, 60, 60)" stroke-width="1px" opacity="0.25"></line><line x1="116.83333333333333" y1="0" x2="116.83333333333333" y2="378" fill="rgb(0, 0, 0)" stroke="rgb(60, 60, 60)" stroke-width="1px" opacity="0.25"></line><line x1="233.66666666666666" y1="0" x2="233.66666666666666" y2="378" fill="rgb(0, 0, 0)" stroke="rgb(60, 60, 60)" stroke-width="1px" opacity="0.25"></line><line x1="350.5" y1="0" x2="350.5" y2="378" fill="rgb(0, 0, 0)" stroke="rgb(60, 60, 60)" stroke-width="1px" opacity="0.25"></line><line x1="467.3333333333333" y1="0" x2="467.3333333333333" y2="378" fill="rgb(0, 0, 0)" stroke="rgb(60, 60, 60)" stroke-width="1px" opacity="0.25"></line><line x1="584.1666666666667" y1="0" x2="584.1666666666667" y2="378" fill="rgb(0, 0, 0)" stroke="rgb(60, 60, 60)" stroke-width="1px" opacity="0.25"></line><line x1="701" y1="0" x2="701" y2="378" fill="rgb(0, 0, 0)" stroke="rgb(60, 60, 60)" stroke-width="1px" opacity="0.25"></line><line x1="817.8333333333334" y1="0" x2="817.8333333333334" y2="378" fill="rgb(0, 0, 0)" stroke="rgb(60, 60, 60)" stroke-width="1px" opacity="0.25"></line><line x1="934.6666666666666" y1="0" x2="934.6666666666666" y2="378" fill="rgb(0, 0, 0)" stroke="rgb(60, 60, 60)" stroke-width="1px" opacity="0.25"></line><line x1="1051.5" y1="0" x2="1051.5" y2="378" fill="rgb(0, 0, 0)" stroke="rgb(60, 60, 60)" stroke-width="1px" opacity="0.25"></line><line x1="1168.3333333333335" y1="0" x2="1168.3333333333335" y2="378" fill="rgb(0, 0, 0)" stroke="rgb(60, 60, 60)" stroke-width="1px" opacity="0.25"></line><line x1="1285.1666666666665" y1="0" x2="1285.1666666666665" y2="378" fill="rgb(0, 0, 0)" stroke="rgb(60, 60, 60)" stroke-width="1px" opacity="0.25"></line><line x1="1402" y1="0" x2="1402" y2="378" fill="rgb(0, 0, 0)" stroke="rgb(60, 60, 60)" stroke-width="1px" opacity="0.25"></line></g><g><line x1="0" y1="378" x2="1402" y2="378" fill="rgb(0, 0, 0)" stroke="rgb(60, 60, 60)" stroke-width="1px" opacity="0.25"></line><line x1="0" y1="343.6363636363636" x2="1402" y2="343.6363636363636" fill="rgb(0, 0, 0)" stroke="rgb(60, 60, 60)" stroke-width="1px" opacity="0.25"></line><line x1="0" y1="309.2727272727273" x2="1402" y2="309.2727272727273" fill="rgb(0, 0, 0)" stroke="rgb(60, 60, 60)" stroke-width="1px" opacity="0.25"></line><line x1="0" y1="274.9090909090909" x2="1402" y2="274.9090909090909" fill="rgb(0, 0, 0)" stroke="rgb(60, 60, 60)" stroke-width="1px" opacity="0.25"></line><line x1="0" y1="240.54545454545453" x2="1402" y2="240.54545454545453" fill="rgb(0, 0, 0)" stroke="rgb(60, 60, 60)" stroke-width="1px" opacity="0.25"></line><line x1="0" y1="206.1818181818182" x2="1402" y2="206.1818181818182" fill="rgb(0, 0, 0)" stroke="rgb(60, 60, 60)" stroke-width="1px" opacity="0.25"></line><line x1="0" y1="171.81818181818178" x2="1402" y2="171.81818181818178" fill="rgb(0, 0, 0)" stroke="rgb(60, 60, 60)" stroke-width="1px" opacity="0.25"></line><line x1="0" y1="137.4545454545455" x2="1402" y2="137.4545454545455" fill="rgb(0, 0, 0)" stroke="rgb(60, 60, 60)" stroke-width="1px" opacity="0.25"></line><line x1="0" y1="103.09090909090907" x2="1402" y2="103.09090909090907" fill="rgb(0, 0, 0)" stroke="rgb(60, 60, 60)" stroke-width="1px" opacity="0.25"></line><line x1="0" y1="68.7272727272728" x2="1402" y2="68.7272727272728" fill="rgb(0, 0, 0)" stroke="rgb(60, 60, 60)" stroke-width="1px" opacity="0.25"></line><line x1="0" y1="34.363636363636374" x2="1402" y2="34.363636363636374" fill="rgb(0, 0, 0)" stroke="rgb(60, 60, 60)" stroke-width="1px" opacity="0.25"></line><line x1="0" y1="0" x2="1402" y2="0" fill="rgb(0, 0, 0)" stroke="rgb(60, 60, 60)" stroke-width="1px" opacity="0.25"></line></g></g></g><g><g><line x1="0" y1="549.8181818181818" x2="1402" y2="549.8181818181818" fill="rgb(0, 0, 0)" stroke="rgb(153, 153, 153)" stroke-width="1.5px"></line></g></g><g><g><line x1="116.83333333333333" y1="0" x2="116.83333333333333" y2="378" fill="rgb(0, 0, 0)" stroke="rgb(153, 153, 153)" stroke-width="1.5px"></line></g></g><g><g><g><g><g><path stroke="rgb(0, 119, 187)" stroke-width="2px" d="M117.88483333333333,92.03702519156718L119.28683333333333,92.23257460139308L119.46208333333333,92.25363302267516L120.98091666666667,92.22765349483916L122.32449999999999,92.2996181045354L125.88791666666667,92.65507221994204L126.06316666666667,92.64622530871782L126.58891666666668,92.54019014417565L130.21075,92.39752381412524L130.50283333333334,92.48688398786169L131.72958333333335,92.52707372730214L132.43058333333335,92.49035475774343L132.78108333333333,92.46852521274684L134.82566666666665,92.39852985465188L134.9425,92.36117046324892L135.40983333333332,92.25332946982985L137.10391666666666,92.20925383562349L138.27225,92.15180883887552L141.42675,92.16439343709845L143.70499999999998,92.24580043712115L144.52283333333332,92.37958374163668L148.14466666666667,92.4178756760042L149.72191666666666,92.42124914260722L150.65658333333334,92.43720325058439L151.0655,92.58910675676958L151.12391666666664,92.71732550112523L153.05166666666665,92.7037215125631L153.8695,92.69036911602132L154.62891666666667,92.63414085511096L155.44675,92.60864767008803L156.03091666666666,92.52666549388721L158.54283333333333,92.62769593468835L159.01016666666666,92.6042247523585L159.4775,92.66511474084507L161.52208333333334,92.73809895914354L161.75575,92.79008343071763L161.87258333333332,92.79300378030257L162.69041666666666,92.79063118376791L162.80725,92.71978745701614L163.21616666666668,92.70593921418254L163.6835,92.83438642295295L164.03400000000002,92.80876369578294L165.66966666666667,92.99901026125309L172.03708333333333,92.95413843949979L173.55591666666666,93.02186158028155L173.61433333333335,92.93150426906135L173.96483333333333,93.11438937613468L174.31533333333334,93.09832831110197L175.36683333333332,93.16231510652176L175.54208333333335,93.18263423625405L176.0678333333333,93.16210027535084L178.93024999999997,93.38019545643346L179.1055,93.31872754106405L179.8065,93.29283802271488L180.68275,93.29815564515656L181.03324999999998,93.27672960037978L181.32533333333333,93.28992463742094L184.363,93.43253108120268L184.65508333333335,93.50352321710807L184.7135,93.51739096263577L185.76500000000001,93.42017001516479L186.52441666666667,93.39914429669693L189.50366666666665,93.36676843006865L190.49675,93.31215004537336L193.70966666666666,93.32402536391169L193.88491666666667,93.21446703296988L194.70275,93.28925688152668L194.93641666666667,93.22626210135707L197.74041666666668,93.2202078287275L198.14933333333335,93.19235551163729L199.43449999999999,93.22128374948983L200.13549999999998,93.35697554018668L200.71966666666665,93.2570368305536L202.47216666666665,93.27846477918985L203.11475000000002,93.29157379404046L203.93258333333333,93.33115182291948L205.80191666666664,93.44650337915908L207.49599999999998,93.60811603164058L208.43066666666667,93.70916415136281L209.36533333333335,93.6927111132066L209.599,93.7351634821764L210.59208333333333,93.76276123387635L212.63666666666668,93.88038656373152L215.09016666666668,93.8670164596848L215.61591666666666,93.8192712094957L216.2585,93.9826199078745L216.66741666666667,94.00691013994566L217.19316666666668,94.0061503423533L218.011,94.08512182041994L218.1278333333333,94.05697863915339L218.30308333333335,94.0040561936741L220.87341666666666,93.98865314947119L223.50216666666668,93.9739146014644L224.5536666666667,93.99374111646654L225.07941666666667,94.157181140283L225.83883333333333,94.37888883881999L226.01408333333333,94.34349311651687L226.48141666666666,94.31218337262595L228.81808333333336,94.33435644153559L229.81116666666665,94.25992991849904L230.39533333333333,94.19377312896864L230.57058333333336,94.0933569525144L233.72508333333332,94.08681679965957L234.4260833333333,94.00638977689619L235.76966666666667,93.95471459290752L237.9310833333333,94.09661872571547L238.10633333333334,94.3062380904787L238.16475,94.3054465572771L238.63208333333333,94.32639043173327L238.86575,94.28093201251681L239.27466666666666,94.22736123208477L242.37075000000002,94.18872486801155L242.77966666666666,94.16138528136173L244.5905833333333,94.04206947119326L244.82425,94.02340801668652L245.29158333333334,93.9266969312502L245.7589166666667,93.9647527589218L245.99258333333333,94.1678178795745L247.16091666666668,94.19577713407995L247.45299999999997,94.16921726373715L247.5114166666667,94.14514596480984L248.67975,94.18081306537499L248.97183333333334,94.16206126265513L250.08175,94.17821260570611L251.01641666666666,94.26472080335054L251.60058333333333,94.22352759872109L252.30158333333333,94.23206356849124L253.82041666666666,94.20635315255726L254.34616666666668,94.25331974821967L256.39075,94.39914322018149L256.44916666666666,94.35387980046005L256.566,94.25116492163562L259.1363333333333,94.18412677311852L259.6036666666667,94.20470842498372L260.12941666666666,94.32995883912338L260.24625000000003,94.34969057153938L260.5383333333333,94.34510308877549L261.99875000000003,94.4448635693355L262.05716666666666,94.49168598258791L262.6413333333333,94.59523120298513L262.7581666666667,94.50205664319958L263.05025,94.52274123263135L263.86808333333335,94.5183391679447L264.21858333333336,94.44670935758512L264.7443333333333,94.44163203149958L265.62058333333334,94.37735233853158L265.97108333333335,94.34332803814084L269.0671666666667,94.33888109946741L273.68208333333337,94.34149725946071L274.73358333333334,94.5089321377435L276.89500000000004,94.49583509318109L277.7128333333333,94.3910877927475L279.7574166666667,94.33700108033582L284.606,94.37352315528489L286.008,94.42291512579703L290.1555833333333,94.38363685558636L290.6229166666667,94.43761507745575L292.72591666666665,94.32871146197175L293.83583333333337,94.53011055695612L294.30316666666664,94.5735456861218L294.47841666666665,94.59651574062627L297.8665833333333,94.76547036972096L301.48841666666664,94.6997378563014L302.42308333333335,94.89754539429458L303.4745833333333,94.740727217006L303.533,94.67225656903776L305.5191666666667,94.60087933781068L306.1033333333333,94.52165496623911L306.27858333333336,94.48360138289212L306.337,94.56159531342541L306.4538333333333,94.5238681537491L306.51225,94.51614541385806L307.97266666666667,94.43756350073124L309.9004166666667,94.61118928882718L312.2370833333333,94.66521986359305L314.048,94.63082421141775L315.62525,94.5603188699377L315.9173333333333,94.54626970274904L317.2025,94.72904002626785L318.31241666666665,94.81099588862565L319.1886666666667,94.98932897022075L320.12333333333333,95.04299618160496L321.8174166666667,94.93552416972676L321.99266666666665,94.81418763575425L323.4530833333333,94.80106915893072L327.1333333333333,95.07077587149655L328.18483333333336,95.12909007574945L328.3016666666667,95.25454012613375L328.4185,95.2239248149786L328.769,95.17507756654646L330.4046666666667,95.17026127016544L331.22249999999997,95.24875762992474L334.4938333333333,95.27556545548128L334.72749999999996,95.3378193658034L335.3700833333333,95.37912304701763L338.40775,95.34128831727668L339.6345,95.29110389982196L339.9265833333333,95.30219749206009L340.04341666666664,95.21627517189364L340.62758333333335,95.30015093017118L342.55533333333335,95.26986124830671L343.2563333333333,95.3918672679049L346.294,95.53697239001616L347.92966666666666,95.39205003730751L349.56533333333334,95.35623394483497L351.78516666666667,95.26322915674496L352.42775,95.29241536643605L352.603,95.53571908299L355.93275,95.58568988754126L356.2248333333333,95.54109756042675L356.86741666666666,95.63618293314852L361.1318333333333,95.66612038589858L361.8328333333333,95.73703021984664L361.94966666666664,96.08908819395839L362.24175,96.02286057705243L362.3001666666667,95.91030302169719L363.76058333333333,96.08972453563331L364.05266666666665,96.20439292946469L364.22791666666666,96.22424655203622L364.69525,96.35649764274285L365.86358333333334,96.51053098018701L366.03883333333334,96.44337702760129L366.9735,96.41184883347199L368.25866666666667,96.36018121538717L369.0180833333333,96.430571066791L369.13491666666664,96.3402109319839L372.05575000000005,96.2337441748831L373.45775,96.12955884405011L373.8666666666667,96.11733370446285L374.2171666666667,96.17718810021029L375.61916666666673,96.19299454338443L375.7944166666667,96.15642039763287L379.24100000000004,96.10579953978794L380.23408333333333,96.16762122988752L381.46083333333337,96.22365705445395L384.26483333333334,96.31375020563894L384.44008333333335,96.31948805303972L385.37474999999995,96.38824251609361L387.1856666666667,96.30171117985401L388.8213333333333,96.21066889003436L389.2886666666667,96.4351713783247L389.52233333333334,96.47251440483069L389.98966666666666,96.46032127322644L392.15108333333336,96.55030721511923L392.4431666666666,96.43667126893888L394.3125,96.8866218308072L394.7798333333334,96.91394136439254L395.3055833333333,97.06819339365018L396.5323333333333,96.91101207776217L397.23333333333335,97.02230399254802L397.35016666666667,97.04968278384223L399.57,96.85270974945325L400.27099999999996,96.99379248991846L402.72450000000003,97.0031926934347L406.69683333333336,97.30561089368189L407.2225833333333,97.2518775258884L407.3978333333334,97.23902989156068L411.83750000000003,97.25229940310163L411.95433333333335,97.15356506276942L412.01275,97.10922708188218L415.1088333333333,97.13119118275131L416.7445,97.10174981235986L420.59999999999997,97.1357099895506L422.87825,97.11608801401604L425.7990833333334,97.0774394172571L428.13575000000003,97.21031679773228L429.07041666666663,97.28981503944163L429.88824999999997,97.20569193871336L433.45166666666665,97.18370261041701L434.7368333333333,97.41910040194983L437.8329166666667,97.55843985187778L439.00124999999997,97.8251343625094L439.1180833333333,98.21621256002078L440.98741666666666,98.51205176620414L442.38941666666665,98.39493591693531L443.20725,98.35165778426551L445.7191666666667,98.47384742228957L447.3548333333333,98.35454521875164L447.47166666666664,98.22694032848705L447.7053333333334,98.50974316383326L448.58158333333336,98.6279982372759L450.97666666666663,98.72052359188632L451.15191666666664,98.91360609929563L454.248,98.92762207181522L456.0589166666666,98.91350893758943L456.1173333333333,99.06686386696464L457.11041666666665,98.949510142669L457.28566666666666,98.87429689669824L459.27183333333335,98.77556890465598L459.38866666666667,99.13668341805169L459.79758333333336,98.86663034383128L461.9005833333334,99.38641225097655L463.1273333333333,99.46944800588767L464.5293333333333,99.82798823503742L464.82141666666666,99.59243176974138L465.1719166666666,99.59641678159073L466.7491666666667,99.47501773841157L467.91749999999996,99.29927508714957L468.20958333333334,99.22912265570199L469.08583333333337,99.2356145383784L469.37791666666664,99.21581708120488L471.88983333333334,99.49670108867463L473.35025,99.6405097307096L473.46708333333333,99.94297377264394L474.40175,100.04507151612296L474.98591666666664,99.88002068727917L477.90675,100.21100168648144L479.01666666666665,99.99747781330012L479.77608333333336,99.76259138742972L480.1265833333333,99.56019393705327L480.886,99.78713865008149L484.21574999999996,99.87379726998893L485.5593333333333,99.86629539343704L485.8514166666667,99.80773594808068L487.2534166666667,99.73768324033313L487.89599999999996,99.85268210717362L488.5385833333333,99.98482819826137L489.29799999999994,99.94338132451895L490.7,99.95259134053066L496.2495833333333,99.75119050333888L496.308,99.69866337699398L496.5416666666667,99.83166961826504L497.71,99.67850598634146L497.7684166666666,99.60015133784339L500.8645,99.58800368760097L501.4486666666667,99.52501448811046L502.55858333333333,99.46619326491628L505.7130833333334,99.64097601447418L506.2388333333333,99.7495753370514L506.58933333333334,99.7224832542235L506.9398333333333,99.83732672559955L507.11508333333336,99.82699874922434L507.524,100.20958573788101L507.99133333333333,100.13434039473384L508.16658333333334,100.19003787050235L508.8675833333333,100.14602322969034L510.4448333333333,100.2806576948214L510.67850000000004,100.08550351042908L511.3210833333334,99.84681513988124L515.936,100.09063116069626L516.7538333333333,99.9662192053641L517.2211666666667,100.16987782805012L518.0974166666666,100.35110463347002L521.8945,100.60032410981756L523.5885833333333,100.59809766489553L523.7638333333333,100.45772672290536L525.2826666666666,100.29316702050392L526.5678333333333,100.33338852351665L531.0659166666667,100.47822682600076L531.9421666666667,100.42428975400054L532.4095,100.5041282685279L533.7530833333333,100.74776990544575L534.8045833333333,100.77327530534296L537.14125,100.60395906121352L538.368,100.45392339685293L540.1789166666666,100.59745716215537L543.275,100.47390946097073L543.9175833333334,100.56278778230399L544.9690833333333,100.43026853135933L545.55325,100.43841656278943L545.6116666666667,100.77999900045L546.7215833333333,100.81328640502193L548.0651666666668,100.57028633072213L549.1750833333333,100.45495311909582L551.4533333333333,100.69340872539624L551.6285833333334,100.88527128545525L552.0375,100.84406090357811L552.6216666666667,100.89334404568626L552.7969166666667,100.93066193091965L553.6731666666667,101.48925384790573L555.6009166666666,101.6920471010003L556.7108333333333,101.64275820700055L561.32575,101.82563180753982L563.3703333333333,102.07421411836333L564.3634166666667,102.05484506769051L565.2396666666667,102.03606356581435L565.88225,102.09802047433914L566.23275,101.99906827835468L567.6931666666667,102.09532952884268L567.9852500000001,102.34918256208647L568.2773333333333,102.46129489400323L569.3288333333334,102.39342815032478L569.9714166666668,102.39261615760552L570.1466666666666,102.36245228810861L571.3149999999999,102.20961100216232L571.7823333333333,102.03135274142113L572.3665,102.28163936444344L574.4110833333333,102.01583933050875L574.7031666666667,102.03637247623112L578.2665833333333,102.53053376772806L578.3249999999999,102.48322689590151L580.1943333333334,102.29494128747103L583.1735833333333,102.40584389978136L583.6409166666667,102.3337735600935L585.6855,102.072788409118L586.3280833333333,102.25251662693984L587.0290833333333,102.71653110779471L588.0221666666666,102.6792137661684L591.5271666666666,102.68453792463782L594.6816666666667,102.84544276309151L594.9153333333334,102.80942929296913L595.7331666666666,103.22436706864517L596.7262499999999,102.99432775737802L597.0767500000001,103.12459156184497L599.53025,103.01071347737957L600.4649166666667,102.97217902093075L601.1075000000001,102.7384550335318L602.1005833333334,102.82670392202562L603.2689166666667,103.16555936209625L603.561,103.29234890510196L603.6778333333333,103.18587915284257L604.0283333333333,103.2087444313164L605.1966666666666,103.53600305233567L605.3719166666667,103.45991385101905L605.664,103.13772800459537L606.18975,103.07752215950825L611.4472499999999,103.24768627085263L611.5056666666667,103.10329170169774L611.6225000000001,103.18703075075342L613.2581666666666,103.13433895755179L613.55025,103.17301251232021L613.8423333333334,103.50486432063076L617.2305,103.55524949713725L618.7493333333333,103.25064117705415L619.2750833333333,103.08746042898639L621.2028333333333,103.10006797443504L621.26125,103.07576031621221L621.787,103.29207226804692L624.0068333333334,103.26197893513313L624.4741666666666,103.36725442830982L624.76625,103.43325419105724L626.6355833333333,104.0633140663042L629.3811666666667,103.84655038876178L629.6148333333333,103.94287676382146L630.9584166666667,103.94188361303878L632.0099166666666,103.76423028756142L632.1851666666666,103.80878849501221L633.4119166666667,103.93842594712686L634.0545,104.19844501632707L635.4565,104.24344897496405L635.8654166666666,104.19326750284546L636.8584999999999,103.98124485910137L636.9753333333333,104.18602827265562L637.1505833333333,104.23297943072032L638.3773333333334,104.39942810104446L638.78625,104.60378677379259L639.4288333333334,104.84884077976358L640.1298333333333,104.6602256484L641.1229166666667,104.77320378393358L642.1744166666667,104.43454304276543L642.5249166666666,104.21481805850135L643.1090833333333,104.37315367291791L644.219,104.54746512233504L645.79625,104.37123468576175L646.2635833333334,104.25326845751414L647.4903333333333,104.16091680126272L651.6379166666667,104.0322723529273L655.2013333333333,103.98909505338918L655.7855,104.24502655881929L656.1944166666667,104.18163486620267L657.7716666666666,104.07475906199664L658.9984166666667,104.27422601256558L660.51725,104.24766950854269L661.043,104.26018076232617L662.9123333333333,104.26507580237563L664.1390833333334,104.60676112460123L666.651,104.5203521653404L666.8262500000001,104.9161486497647L667.9945833333334,105.03222529411568L668.4035,105.28789658310836L669.9223333333333,105.11954158963408L674.0115000000001,105.48151752195344L674.5372500000001,105.42881850935424L674.9461666666666,105.28334126766015L675.7055833333333,105.0244228808549L676.99075,104.85697689929702L677.6333333333333,104.70117986199432L678.2759166666667,104.5897097993489L679.2105833333334,104.48261749231398L680.6125833333333,104.58753220934545L680.9630833333333,104.88531366937292L682.3066666666667,105.41770638023087L683.3581666666666,105.38404400968562L686.9215833333333,105.9328546164183L687.4473333333334,105.70774730374507L690.0176666666666,105.66778972190968L691.6533333333333,105.89666368504561L691.8285833333333,105.86526361610692L694.16525,105.9364489708264L695.56725,106.32311184574593L699.3643333333333,106.15648666446816L703.9208333333333,105.94926813503412L704.2129166666667,106.07683107403454L704.3881666666666,106.09071585786575L705.206,106.17842789957984L705.9069999999999,106.14245814649058L707.2505833333333,106.15325623728381L707.6010833333333,106.32272027920084L708.4773333333333,106.58467841784216L708.8278333333334,107.08897921532207L709.412,106.92770965904549L710.814,106.76849527932438L711.8070833333334,106.90847409129628L713.09225,107.16583319392333L715.3120833333334,107.11353396243817L715.9546666666668,107.29983986949293L717.1229999999999,107.24392942561047L717.5319166666667,107.22744581583231L717.8240000000001,107.53458783475753L724.1329999999999,107.6771008788727L724.30825,107.59934897375848L725.1845,107.37531466132634L725.535,107.49289430012914L725.8270833333333,107.19022868431443L728.3389999999999,107.45586773807474L728.9815833333333,107.33877299812156L729.5657500000001,107.0884290519611L729.7994166666667,107.25082995144345L729.8578333333332,107.84228286049586L731.4935,108.19739192866967L732.0192499999999,107.98299872379783L733.3628333333334,107.83528301900742L733.42125,108.2574343983494L734.12225,107.93901109837577L735.9331666666667,107.97553902656756L736.4589166666667,108.28672425703922L737.452,108.18123403689629L737.7440833333333,108.21730403326512L738.2698333333333,108.50716464924182L738.7371666666667,108.73871449237743L739.2044999999999,108.88950472941553L740.1975833333333,108.88050731474175L741.9500833333333,108.80237047397594L742.53425,108.99045361084205L744.6956666666666,109.24249835997438L745.2214166666668,109.44270831351685L745.2798333333333,109.80795598214905L746.5649999999999,109.40676048705427L746.9739166666667,109.03605761844364L748.6095833333333,108.98714833335788L749.19375,108.72762770737148L749.4858333333333,108.86706129176628L750.1284166666667,109.22418087748548L750.6541666666667,109.33141173278437L751.4720000000001,109.84408766102399L753.6918333333333,109.74382644545187L753.8670833333333,109.48126929281875L755.85325,109.31047174869036L756.0869166666666,109.23346391951571L757.4305,109.2870134000267L757.781,109.34024290455949L757.8978333333333,109.2754563400701L760.2345,109.23131641793299L760.5849999999999,109.10228425614122L760.7018333333333,109.38986663948367L761.3444166666667,109.9042638238227L761.6365000000001,109.68421727615987L762.4543333333332,109.92490684043719L762.9800833333333,109.57859299646327L763.91475,110.29261603207806L765.3751666666667,110.34104402317223L766.4850833333334,110.67267872894024L767.0108333333334,110.53470943595778L768.0623333333333,110.74847032037894L769.6395833333333,110.87798292965397L770.9831666666668,110.51054039634545L771.1,110.24322983277267L771.1584166666667,110.08259221791093L774.605,109.9412440088417L774.78025,109.85603725882936L775.306,109.86714578182222L777.5258333333334,110.02001619204407L780.5050833333333,109.84935176496373L783.4259166666667,109.6725634200393L783.89325,109.91893302984272L785.99625,109.97433535182802L786.9893333333333,110.13547369469569L788.1576666666667,109.77891332763875L789.7933333333334,109.3875846746617L789.9685833333333,109.02021573560597L790.3774999999999,109.79926133939966L790.4943333333333,109.98054841897641L791.4874166666667,109.73575960596673L791.95475,109.64551532189665L792.4805,109.61088099409255L793.35675,109.55602178005739L794.2914166666667,109.28331345876398L796.5696666666668,109.73181643816491L797.2706666666667,110.10241826129698L797.9716666666667,109.81444894089623L798.6142500000001,109.82604148905557L799.4320833333334,109.79237451625323L799.5489166666666,109.96529243842645L801.6519166666667,110.3011716660821L803.7549166666666,111.24468962551265L805.3321666666667,111.63907642692607L805.6826666666667,111.67721607949312L806.2084166666667,111.9298501459981L807.9609166666667,111.60490979271663L809.3629166666666,111.55108195715314L810.4144166666666,111.95247819810004L812.3421666666667,111.60073960199742L813.9194166666666,111.325536422401L814.6788333333333,111.02881448949017L814.7956666666668,110.90180544378694L814.8540833333333,111.34950006463436L816.0224166666667,111.57988240244458L816.3145000000001,111.59029800708328L817.1323333333333,111.89188911516271L817.7165000000001,111.84706220012322L818.0085833333333,111.59631103269459L818.4175,112.22237520750247L819.5274166666666,112.37094227397313L820.2284166666667,112.27887411028524L822.273,112.49387407752522L825.8948333333333,112.27398572637111L826.7710833333333,112.07725171877735L827.4136666666666,112.06633284259681L827.6473333333334,112.3488725819189L828.582,112.18679186273272L830.5097499999999,112.00174288864753L831.0355,111.65417383939399L833.6058333333334,111.74277798522161L834.7741666666667,111.4895914307067L834.9494166666666,111.10652383293996L835.8840833333334,111.29743505111338L836.81875,111.31650743044048L840.9663333333333,111.0881155642283L841.4920833333333,110.92279211940394L843.303,111.10265446337468L844.4129166666667,110.82684397963567L844.5881666666668,111.05314431191346L845.8733333333334,110.99739359837389L849.6704166666667,110.99979831467749L850.13775,111.6321116313631L851.3644999999999,111.80588297726683L852.6496666666666,111.70295275329056L854.34375,111.30730777425356L857.0309166666667,111.99705514034116L858.6665833333333,112.4106747128975L862.1131666666666,112.05464987067734L863.0478333333334,112.27909413027942L864.85875,111.93311524145037L865.3260833333334,112.01522384210818L866.5528333333333,112.35573941688205L868.0132500000001,112.24493247991893L868.3053333333332,111.83944950707365L869.0647499999999,111.84259621488417L869.8241666666665,111.71789101516998L870.1746666666667,112.00556213404684L872.6281666666666,111.80484380182605L872.6865833333334,112.0918660096441L873.8549166666667,112.57107867815353L877.2430833333333,112.11579966143984L878.2361666666666,112.00459063453144L879.8134166666666,111.85573048134188L879.8718333333334,111.90759091902498L880.3391666666666,112.39917001349988L881.0401666666666,112.59408132413319L881.7411666666667,112.41460599799376L882.6174166666667,113.10204729047905L882.8510833333333,113.61011761786614L883.8441666666666,113.92248860364225L884.8956666666667,113.92181448745993L885.9471666666667,114.2234325799572L886.8234166666666,114.19191493408408L887.4075833333333,114.48646621286389L887.5828333333334,114.31487128714866L888.2838333333334,114.05773941015269L888.34225,114.32857005689544L888.5759166666667,114.03618101268347L890.2115833333332,113.66043575021064L891.7304166666665,113.61093843383583L893.6581666666666,113.19712445903042L894.5344166666666,113.18353533637065L896.6374166666667,113.40765250112526L899.7335,113.71267109623125L899.9671666666667,113.50642555423957L901.1355000000001,113.45447767444125L903.9979166666667,113.80403142452457L905.692,113.79633564147633L908.1455000000001,114.03236201190691L911.12475,113.77054679717878L912.001,114.23081856102863L912.4683333333334,113.66481076729235L912.8188333333334,113.51805495752131L915.7396666666667,114.10864500906672L915.9149166666667,114.35879461628781L916.0901666666666,114.63144410818046L916.8495833333333,114.80314582256898L918.4268333333333,114.5163569559819L919.88725,114.16965918312673L920.2961666666666,114.19539746617738L921.5813333333333,114.23922230243329L922.8080833333332,115.26028899118091L923.5674999999999,115.59340814087176L925.6120833333333,115.32436708849895L926.9556666666667,115.80036208107794L927.1309166666667,115.48313035377521L927.8903333333334,116.03988698100738L928.124,115.7093883673266L930.9864166666666,115.5107614536725L931.0448333333334,115.49375369669627L932.15475,115.60858841990665L932.33,115.73465705301322L932.8557500000001,115.38348747278775L932.9141666666667,114.98978602791288L933.2646666666666,114.55875938260527L934.433,114.64739188281777L934.5498333333333,115.73572066758652L939.34,115.4589981824891L939.6905,115.34522273884579L944.07175,115.14198989151379L945.7074166666667,115.01553696625643L947.5767500000001,114.63969937138847L947.92725,114.43286173189136L949.2708333333334,114.64528074585343L951.4322500000001,114.53298341042608L951.4906666666666,114.7084929015324L951.8411666666666,114.53982703629708L952.3669166666666,114.49594252870486L953.36,114.75103957844715L954.061,114.60680960803109L954.4114999999999,115.05283430427994L955.5798333333333,115.01475838364354L955.8135,114.99084054493142L957.2154999999999,115.33841834777002L957.8580833333333,115.28189421387532L960.7789166666666,115.33100655739264L962.1809166666666,115.26519264246417L963.5245,115.59235222943727L965.6274999999999,115.69267433679363L967.0295,115.34396903914705L967.1463333333332,115.4565275508379L967.20475,115.43902755547106L970.70975,115.5374215546073L971.5859999999999,115.53288204363821L971.9365,116.6008763909449L973.689,116.615100818276L974.21475,116.7708654612847L974.4484166666666,116.54017742423213L974.7989166666666,116.60632611823956L975.7335833333334,116.69582825316832L978.2455,117.05471518057726L978.9465,117.1262541804461L980.1732499999999,116.76632604576974L980.2316666666667,116.89184749884095L980.4653333333333,116.81701203895449L980.6990000000001,116.90439228629481L980.9326666666667,117.13785248978564L981.92575,116.96386162731619L982.2762500000001,118.0917943304139L982.5099166666668,117.85960968053081L984.0871666666666,118.18457078137152L985.6644166666666,118.39746680388879L986.7743333333333,118.30491667663614L988.6436666666667,118.19491683678262L988.7020833333333,117.79847253977664L988.7605000000001,117.53422121250924L990.1625,117.48899676091554L993.9595833333334,117.11807908944729L994.6605833333333,117.37830824347941L998.3408333333333,117.52782750784127L1000.7943333333333,117.45923109024733L1001.0279999999999,117.69246265778446L1003.5983333333334,117.78389046428828L1004.7082499999999,118.08963623759337L1006.8696666666666,118.23779979004462L1008.6221666666668,118.35599012806551L1009.0310833333333,118.02897630369029L1009.6152500000001,118.85421127811912L1010.6667500000001,118.90705166228742L1012.0103333333333,119.22069859442166L1013.0034166666667,119.0348406722469L1013.3539166666667,119.88037299842085L1013.7628333333333,120.13619449378967L1016.5084166666667,119.9115517841667L1016.8004999999999,119.88801937891003L1017.7351666666666,120.49606595876304L1018.0856666666666,120.52877462017017L1018.6698333333334,120.32338135356684L1019.7213333333334,119.92450745551287L1020.7144166666667,120.42288964824832L1020.8312500000001,120.59473264629531L1022.7005833333333,120.68187421951012L1023.8689166666667,120.78809301228733L1024.5115,120.39362809611401L1027.2570833333332,120.26914923513584L1027.9580833333334,120.95475740148072L1028.6006666666667,120.60434317714277L1032.3393333333333,121.07779892338141L1034.15025,120.88636589854303L1036.3116666666667,120.46781957278819L1037.7136666666665,120.23896681808469L1038.2394166666666,120.73379513505262L1038.5899166666666,120.32889558249678L1039.4661666666666,120.14794870214001L1040.45925,120.1017135572522L1041.2770833333334,119.78571401831516L1041.4523333333334,120.03883819249114L1042.56225,120.38512479731918L1043.6721666666665,120.57413240102181L1050.27325,120.40767371305424L1050.7405833333332,120.57508478340918L1051.0910833333332,120.35447472642318L1052.4930833333333,120.61023777814108L1052.5515,121.67701831862519L1054.7713333333334,120.97651134208223L1056.3485833333334,120.57907584079078L1057.0495833333332,120.9154190650134L1058.0426666666667,120.65885187987271L1058.2763333333335,120.10144012858103L1061.7229166666666,120.54647422248985L1062.4823333333334,121.36055912226453L1063.0665,121.39489012325743L1063.3001666666667,121.2428403654763L1064.7605833333334,121.26881403320823L1066.04575,120.77687287441188L1070.2517500000001,120.5115381392643L1071.5369166666667,120.34737365001195L1071.7705833333334,120.18550221045672L1071.8874166666667,119.68699172360635L1071.9458333333332,119.82564514178284L1072.53,120.12738861422298L1073.6983333333333,119.84613678021117L1075.2171666666668,120.07965069119001L1077.2033333333334,120.0232445416371L1077.7290833333334,120.0822930397581L1081.0004166666665,119.93587157833252L1084.1549166666666,119.806208816788L1085.6737500000002,120.38750930363807L1085.9658333333332,120.40359633157044L1087.1341666666667,120.50473495106024L1090.1134166666668,120.76138831152622L1090.3470833333333,121.45921680535508L1092.2164166666666,121.80790350874662L1095.0788333333333,121.59162897128527L1096.2471666666668,122.15797697018255L1098.1165,122.38322583586276L1098.7006666666666,122.37292224605525L1098.7590833333334,121.97331569277208L1100.2195,121.94685362697186L1100.5115833333332,121.91197097524673L1100.74525,122.18544100093013L1101.5630833333335,122.44480561400607L1104.0165833333333,121.87810755066329L1105.4769999999999,122.33824076442247L1109.85825,122.1389516710114L1113.7721666666666,122.0362545533288L1115.5830833333334,122.22479519906861L1117.56925,122.26337348631665L1117.6276666666668,122.49117883299607L1118.9128333333333,122.36914768563011L1121.1326666666666,122.56547545284064L1121.42475,122.46355372025135L1121.7168333333334,122.96798471438066L1122.301,122.61231009411617L1123.87825,123.20045998615939L1123.9366666666667,123.49009009339608L1124.3455833333333,123.44679032581601L1125.1634166666668,123.3493354661297L1125.806,123.12576012486699L1126.8574999999998,124.09749465680261L1126.9743333333333,123.62123201621816L1128.3179166666666,123.86632344861016L1128.3763333333334,123.51872510150733L1128.4347500000001,122.72384036780042L1128.6100000000001,122.3861973084467L1129.7199166666667,122.20928837212543L1131.7645,122.76120907453435L1132.5239166666668,122.64432272042956L1132.7575833333333,122.49625579962947L1133.517,122.09921027251693L1133.5754166666668,122.47761471572639L1134.1595833333333,122.36848194764113L1134.8021666666666,122.66406513189295L1135.3863333333334,122.7062835520455L1135.8536666666666,123.0757595425464L1136.4378333333334,123.71797847452615L1139.30025,123.37730803643336L1139.7675833333333,122.93489512694978L1140.00125,123.45607333842301L1141.6369166666666,123.92122907841949L1142.45475,123.93114999301571L1142.80525,123.71574202171468L1143.6230833333334,124.21316364300924L1143.7399166666667,123.95330704196732L1144.1488333333334,124.06352434930713L1144.3825,123.94733626237846L1144.55775,124.06494683768392L1144.6161666666667,124.76265362360596L1144.8498333333334,125.35054860727848L1146.31025,125.46836958319986L1146.8944166666668,126.22838495161548L1147.1280833333333,125.70750226777463L1148.06275,126.19314315116677L1148.8805833333333,126.31933178030962L1150.9835833333334,126.41661533537706L1151.042,125.84544603862938L1151.4509166666667,126.00162678147143L1152.0935,127.04846735331773L1153.846,127.54853434786455L1154.9559166666668,127.5930060321694L1155.0143333333333,127.93453171419367L1155.3064166666666,127.36315301902681L1156.8836666666668,127.09234458818824L1157.9351666666666,126.9175101295412L1159.1035,126.58818556052296L1165.58775,126.33532365151999L1166.1135,126.28375069746355L1167.0481666666667,125.90088001535332L1167.2234166666667,126.33964541205899L1167.7491666666667,125.99403666268799L1169.3848333333333,126.0373650863688L1171.371,126.21084701875193L1171.4294166666666,125.92470201962394L1171.9551666666666,125.92760753396826L1172.1304166666666,126.04749102907434L1174.4086666666667,125.6829001245533L1175.2849166666667,126.73926364755678L1175.8690833333333,126.12168609027196L1176.7453333333333,125.97394308928003L1176.8621666666668,126.25962321863423L1177.3295,126.11584397198058L1178.2641666666668,127.94306672434249L1178.3225833333333,127.79263491288953L1179.4325000000001,127.77511077683596L1180.8345000000002,128.0303491233574L1182.1196666666665,128.23882254451684L1183.7553333333335,127.9890766716216L1184.4563333333333,128.6218964259332L1186.9098333333334,129.16769066659313L1187.0850833333332,129.45888044140005L1189.4801666666667,129.98874349687748L1189.9475,129.7616863306079L1194.6792500000001,131.3578893762518L1194.7376666666667,131.03485432382575L1199.8199166666666,130.86446176173408L1200.28725,131.26423785376156L1202.8575833333334,131.08029629511103L1202.916,131.0596577228288L1205.89525,130.64599967338015L1206.421,130.29632513528713L1209.40025,130.98333850518262L1209.9844166666667,131.29796365452214L1210.3933333333332,132.28667545577656L1210.6854166666667,131.7642788547452L1212.0874166666667,131.6528253172696L1214.2488333333333,131.19362869797115L1215.2419166666666,131.59832889172267L1217.6954166666667,130.97243930321633L1220.4994166666665,131.61597858536746L1220.61625,131.15580736679303L1222.8360833333334,130.48256752871015L1224.2965,130.6733631170319L1224.47175,130.5595976381195L1225.4064166666667,130.0791912152869L1225.6985,129.7663504254539L1225.9905833333332,129.9347277361506L1227.0420833333333,129.78971075134808L1227.3341666666665,129.9359061441526L1227.62625,131.0707738417454L1228.32725,130.5492500333461L1229.554,130.57729103505645L1232.2995833333332,130.51661396357676L1233.059,131.29336138241518L1233.5263333333335,131.00420061137305L1235.68775,130.8195429889772L1236.6224166666666,131.0105558394379L1238.6085833333334,130.54512983614308L1239.2511666666667,130.1791156017674L1240.0105833333334,130.17783377854417L1242.172,130.05451987553303L1242.5809166666668,130.10445894499657L1242.8145833333333,130.08073260031324L1244.2749999999999,129.90188190142734L1245.7938333333332,130.78717895849806L1248.1305,130.77856168333187L1250.5255833333333,131.17888721219467L1250.584,131.05059297254357L1250.7008333333333,131.6022225283397L1250.9929166666668,131.54773804311148L1253.91375,131.1101376761099L1255.0820833333335,130.74219016668664L1255.9583333333335,131.06794273246587L1256.1335833333333,130.63360454604052L1256.2504166666665,130.90506720624842L1257.41875,131.18036255003832L1257.7692499999998,131.42942002129587L1259.1128333333334,133.02345768101384L1260.57325,132.96665304949636L1260.6900833333334,133.21788613794178L1261.4495000000002,133.13541252610253L1262.67625,133.02122994065655L1263.7861666666665,132.415783823084L1264.1366666666665,132.02429693952362L1264.9545,132.1085554577998L1265.5970833333333,131.90390045342895L1266.1228333333333,132.53925102964757L1266.1812499999999,132.6896644967649" style="fill: none;" fill="none"></path></g></g></g></g><g opacity="0.2"><g><g><g><path stroke="rgb(0, 119, 187)" stroke-width="2px" d="M117.88483333333333,92.03702519156718L119.28683333333333,92.41795544190842L119.46208333333333,92.29252169348979L120.98091666666667,92.1575431823731L122.32449999999999,92.55195080150258L125.88791666666667,94.17357730865484L126.06316666666667,92.60200959985906L126.58891666666668,91.93727627667516L130.21075,91.49326047030365L130.50283333333334,93.10853745720607L131.72958333333335,92.83022364703095L132.43058333333335,92.19297760183161L132.78108333333333,92.28023229945791L134.82566666666665,91.75981742685491L134.9425,92.00257392363113L135.40983333333332,91.16980361938482L137.10391666666666,91.74765092676336L138.27225,91.52701533924454L141.42675,92.3060809915716L143.70499999999998,93.19185954874212L144.52283333333332,93.9803061051802L148.14466666666667,92.88851633938879L149.72191666666666,92.46375391700053L150.65658333333334,92.64289231733841L151.0655,94.58969619057399L151.12391666666664,94.43972461873835L153.05166666666665,92.51758146286016L153.8695,92.50451374053961L154.62891666666667,91.83887919512665L155.44675,92.24266771836716L156.03091666666666,91.33321159536189L158.54283333333333,94.1177424951033L159.01016666666666,92.25381010228938L159.4775,93.58462858200079L161.52208333333334,93.8521277254278L161.75575,93.59159257195216L161.87258333333332,92.83845754103226L162.69041666666666,92.75337396968496L162.80725,91.59800707210195L163.21616666666668,92.48493263938212L163.6835,94.89947084947067L164.03400000000002,92.39395015889949L165.66966666666667,96.09916149486196L172.03708333333333,92.21841664747757L173.55591666666666,94.13871639425105L173.61433333333335,91.43320629813456L173.96483333333333,96.16265669735998L174.31533333333334,92.82932242480194L175.36683333333332,94.23895688490433L175.54208333333335,93.52600817246872L176.0678333333333,92.81367392973465L178.93024999999997,97.09521688114518L179.1055,92.26786097613251L179.8065,92.84869870272553L180.68275,93.38967782800847L181.03324999999998,92.90682753649628L181.32533333333333,93.518388748169L184.363,95.90847106413406L184.65508333333335,94.73929908058864L184.7135,93.75938376513398L185.76500000000001,91.71971303766423L186.52441666666667,93.03058173439723L189.50366666666665,92.79806639931422L190.49675,92.35085535049444L193.70966666666666,93.5334227735346L193.88491666666667,91.27922019091523L194.70275,94.61255446347326L194.93641666666667,92.10990129817617L197.74041666666668,93.11275681582367L198.14933333333335,92.69733433289963L199.43449999999999,93.73611584576696L200.13549999999998,95.77492631565445L200.71966666666665,91.47404805096716L202.47216666666665,93.6611915068193L203.11475000000002,93.52596720782196L203.93258333333333,94.03954098441386L205.80191666666664,95.51312125812882L207.49599999999998,96.50618622519755L208.43066666666667,95.52274795012039L209.36533333333335,93.39717435836798L209.599,94.4983040636236L210.59208333333333,94.25923438505691L212.63666666666668,95.99789688803935L215.09016666666668,93.62616673382848L215.61591666666666,92.958647814664L216.2585,96.92877752130681L216.66741666666667,94.4452548460527L217.19316666666668,93.99243164062506L218.011,95.5117284601385L218.1278333333333,93.54833390495997L218.30308333333335,93.04713145169347L220.87341666666666,93.7100213657726L223.50216666666668,93.70719480514532L224.5536666666667,94.35267474434596L225.07941666666667,97.11713296716863L225.83883333333333,98.39547573436391L226.01408333333333,93.7020332596519L226.48141666666666,93.74459552764898L228.81808333333336,94.73643155531448L229.81116666666665,92.90994084965104L230.39533333333333,92.99346776442093L230.57058333333336,92.27101525393402L233.72508333333332,93.96809864044195L234.4260833333333,92.54613382166082L235.76966666666667,93.0162850726735L237.9310833333333,96.67414127696645L238.10633333333334,98.11445825750178L238.16475,94.29106391559952L238.63208333333333,94.70701893893158L238.86575,93.45464775779033L239.27466666666666,93.25347037748855L242.37075000000002,93.48623150045222L242.77966666666666,93.66422289068049L244.5905833333333,91.87206055901271L244.82425,93.68396785042506L245.29158333333334,92.16737469759858L245.7589166666667,94.65712399916214L245.99258333333333,97.86268953843552L247.16091666666668,94.70456106012517L247.45299999999997,93.68585222417659L247.5114166666667,93.70703094655818L248.67975,94.83003577319062L248.97183333333334,93.820707841353L250.08175,94.47225054827607L251.01641666666666,95.83973238684916L251.60058333333333,93.47349149530584L252.30158333333333,94.38749469410294L253.82041666666666,93.73816407810563L254.34616666666668,95.1086363358931L256.39075,97.0549076687206L256.44916666666666,93.52949016744441L256.566,92.3803089315241L259.1363333333333,92.9630310318687L259.6036666666667,94.5796188874678L260.12941666666666,96.61158826134425L260.24625000000003,94.70914910056376L260.5383333333333,94.26152840527624L261.99875000000003,96.26236464760524L262.05716666666666,95.34475655989212L262.6413333333333,96.48181226036769L262.7581666666667,92.80437495491725L263.05025,94.89963470805776L263.86808333333335,94.43812699751419L264.21858333333336,93.14147303321147L264.7443333333333,94.3491108200767L265.62058333333334,93.20599235187882L265.97108333333335,93.72329391132706L269.0671666666667,94.25784158706671L273.68208333333337,94.38917424462062L274.73358333333334,97.56032948060471L276.89500000000004,94.25714518807155L277.7128333333333,92.48206511410802L279.7574166666667,93.35125298933548L284.606,95.03916029496628L286.008,95.32312722639602L290.1555833333333,93.66774585030299L290.6229166666667,95.42144237865102L292.72591666666665,92.34376846660268L293.83583333333337,98.20097559148616L294.30316666666664,95.36523888327861L294.47841666666665,95.01519597660416L297.8665833333333,97.84507474032318L301.48841666666664,93.5015932429921L302.42308333333335,98.50313082608312L303.4745833333333,91.88226075605911L303.533,93.42417006059128L305.5191666666667,93.29980139298874L306.1033333333333,93.07752721959895L306.27858333333336,93.78994339162654L306.337,95.9833134737882L306.4538333333333,93.8361515131864L306.51225,94.37536915865815L307.97266666666667,93.00510172410446L309.9004166666667,97.77621316909796L312.2370833333333,95.65014800158417L314.048,94.00381981242788L315.62525,93.27505874633795L315.9173333333333,94.29016269337052L317.2025,98.06083553487605L318.31241666666665,96.30500884489578L319.1886666666667,98.2402606877414L320.12333333333333,96.02132866599345L321.8174166666667,92.97634454206985L321.99266666666665,92.60225538773972L323.4530833333333,94.56192216006195L327.1333333333333,99.98748480189931L328.18483333333336,96.19215124303645L328.3016666666667,97.54148574308914L328.4185,94.665808504278L328.769,94.28459150140935L330.4046666666667,95.08245992660528L331.22249999999997,96.67975343357438L334.4938333333333,95.76427550749344L334.72749999999996,96.47271810878408L335.3700833333333,96.13209707086736L338.40775,94.65155280720109L339.6345,94.37622941624039L339.9265833333333,95.50443675301295L340.04341666666664,93.64988526431L340.62758333333335,96.8292334296487L342.55533333333335,94.71766974709254L343.2563333333333,97.61608236486262L346.294,98.18229571255773L347.92966666666666,92.75005583329636L349.56533333333334,94.70329115607524L351.78516666666667,93.56771018288356L352.42775,95.82449353824967L352.603,99.97126280177724L355.93275,96.49668242714625L356.2248333333333,94.72815669666642L356.86741666666666,97.36963904987687L361.1318333333333,96.21189620278102L361.8328333333333,97.02975537560206L361.94966666666664,102.50730215419424L362.24175,94.81549332358622L362.3001666666667,93.8583133870905L363.76058333333333,99.3606847416271L364.05266666666665,98.2948665618897L364.22791666666666,96.586190180345L364.69525,98.76751665635544L365.86358333333334,99.31865501403814L366.03883333333334,95.21911798823965L366.9735,95.83706968480891L368.25866666666667,95.41824713620275L369.0180833333333,97.71382401206279L369.13491666666664,94.69288613579494L372.05575000000005,94.29278443076396L373.45775,94.23019045049494L373.8666666666667,95.8944611549378L374.2171666666667,97.26837444305426L375.61916666666673,96.48115682601934L375.7944166666667,95.4896485155279L379.24100000000004,95.18294620513922L380.23408333333333,97.2946737462824L381.46083333333337,97.24522941762751L384.26483333333334,97.95621182701808L384.44008333333335,96.42409307306463L385.37474999999995,97.64168526909572L387.1856666666667,94.72418312592941L388.8213333333333,94.55090267008L389.2886666666667,100.52801331606781L389.52233333333334,97.15330475026911L389.98966666666666,96.23803164742213L392.15108333333336,98.19081635908645L392.4431666666666,94.3650051030246L394.3125,105.08954962817108L394.7798333333334,97.41199649464005L395.3055833333333,99.88032128594142L396.5323333333333,94.04548085819596L397.23333333333335,99.05123779990458L397.35016666666667,97.5488184148615L399.57,93.26174523613673L400.27099999999996,99.56583569266581L402.72450000000003,97.17456540194428L406.69683333333336,102.81892022219574L407.2225833333333,96.27227809212428L407.3978333333334,97.00480790571731L411.83750000000003,97.49421254071325L411.95433333333335,95.35356395894831L412.01275,96.30091238021856L415.1088333333333,97.53161326321691L416.7445,96.56501145796341L420.59999999999997,97.75482962348246L422.87825,96.75836459073156L425.7990833333334,96.37284629995173L428.13575000000003,99.6327719254927L429.07041666666663,98.73912815614182L429.88824999999997,95.67206408760768L433.45166666666665,96.782820484855L434.7368333333333,101.71058073910802L437.8329166666667,100.09870381788772L439.00124999999997,102.68717791817409L439.1180833333333,105.34586542302912L440.98741666666666,103.90542554855352L442.38941666666665,96.25982483950531L443.20725,97.56266446547073L445.7191666666667,100.70145763050431L447.3548333333333,96.17957509647721L447.47166666666664,95.90060585195369L447.7053333333334,103.66545464775783L448.58158333333336,100.78387849981135L450.97666666666663,100.40733146667486L451.15191666666664,102.43364771929657L454.248,99.18314396251333L456.0589166666666,98.65621571107346L456.1173333333333,101.86264150792903L457.11041666666665,96.81006197495896L457.28566666666666,97.50310186906296L459.27183333333335,96.97568204186183L459.38866666666667,105.72007747129959L459.79758333333336,93.94335599379104L461.9005833333334,108.86243456060237L463.1273333333333,100.98325343565506L464.5293333333333,106.36445136503738L464.82141666666666,95.29805686257106L465.1719166666666,99.66906660253352L466.7491666666667,97.26182009957057L467.91749999999996,96.0953517827121L468.20958333333334,97.95019002394241L469.08583333333337,99.35396653955632L469.37791666666664,98.85489424792206L471.88983333333334,104.61743207411331L473.35025,102.26225163719874L473.46708333333333,105.45712540366435L474.40175,101.90639175068253L474.98591666666664,96.87101736935705L477.90675,106.24503941969436L479.01666666666665,96.10477365146988L479.77608333333336,95.48043147000402L480.1265833333333,95.87033297798854L480.886,103.92451507394964L484.21574999999996,101.4536504745484L485.5593333333333,99.72953042117035L485.8514166666667,98.74015227231115L487.2534166666667,98.4605685580861L487.89599999999996,101.94919980656022L488.5385833333333,102.39395297657364L489.29799999999994,99.18777296759868L490.7,100.12049700997096L496.2495833333333,96.07949846441096L496.308,98.74105349454015L496.5416666666667,102.25647562200373L497.71,96.88621525330979L497.7684166666666,98.17168586904353L500.8645,99.36654268611562L501.4486666666667,98.37667296149516L502.55858333333333,98.39383714849299L505.7130833333334,102.82739990407771L506.2388333333333,101.72942447662359L506.58933333333334,99.22857375578445L506.9398333333333,101.931011503393L507.11508333333336,99.6387117992748L507.524,107.18444069949066L507.99133333333333,98.76255993409592L508.16658333333334,101.20544567975134L508.8675833333333,99.34360248392278L510.4448333333333,102.73514751954514L510.67850000000004,96.52769266475332L511.3210833333334,95.49534260142934L515.936,104.5355847098611L516.7538333333333,97.69809358770198L517.2211666666667,103.88273113424128L518.0974166666666,103.65500866283071L521.8945,105.1437868204984L523.5885833333333,100.55750786174428L523.7638333333333,97.89865649830216L525.2826666666666,97.29311708970505L526.5678333333333,101.06665745648473L531.0659166666667,103.11874047192663L531.9421666666667,99.44097544930202L532.4095,101.95964579148728L533.7530833333333,105.18954433094376L534.8045833333333,101.23825836181646L537.14125,97.51719370755285L538.368,97.71865784038198L540.1789166666666,103.21418809890753L543.275,98.22153984416616L543.9175833333334,102.18310793963349L544.9690833333333,98.01434066078883L545.55325,100.586961442774L545.6116666666667,107.00730956684464L546.7215833333333,101.42014139348811L548.0651666666668,96.1402080709284L549.1750833333333,98.35233996131205L551.4533333333333,105.04063783992422L551.6285833333334,104.3830733299256L552.0375,100.09276394410568L552.6216666666667,101.7918136336587L552.7969166666667,101.6109956828031L553.6731666666667,111.67281415245753L555.6009166666666,105.38912409002131L556.7108333333333,100.74418375708842L561.32575,105.15955820950597L563.3703333333333,106.606060851704L564.3634166666667,101.70173237540507L565.2396666666667,101.6936623399908L565.88225,103.22754257375544L566.23275,100.19509363174444L567.6931666666667,103.85024616935038L567.9852500000001,106.97711862217301L568.2773333333333,104.50518894195562L569.3288333333334,101.15616520968354L569.9714166666668,102.37781290574509L570.1466666666666,101.8125417449258L571.3149999999999,99.4231967926026L571.7823333333333,98.78156753019852L572.3665,106.84455702521586L574.4110833333333,97.17010025544602L574.7031666666667,102.41070751710373L578.2665833333333,111.53947422721171L578.3249999999999,101.6207862333818L580.1943333333334,98.8623498136347L583.1735833333333,104.42768383026129L583.6409166666667,101.01987582987005L585.6855,97.31482835249466L586.3280833333333,105.52910028804433L587.0290833333333,111.1758720224554L588.0221666666666,101.99888992309576L591.5271666666666,102.78160142898565L594.6816666666667,105.77886173941874L594.9153333333334,102.1528760303151L595.7331666666666,110.78900189833206L596.7262499999999,98.80053416165441L597.0767500000001,105.49940091913396L599.53025,100.93462839993566L600.4649166666667,102.26966623826462L601.1075000000001,98.47748695720327L602.1005833333334,104.43554904244166L603.2689166666667,109.34315469048244L603.561,105.60381980375809L603.6778333333333,101.24485366994685L604.0283333333333,103.62559604644781L605.1966666666666,109.50217944925481L605.3719166666667,102.07274918122727L605.664,97.26403219049627L606.18975,101.97992329163986L611.4472499999999,106.34990891543305L611.5056666666667,100.47086763381964L611.6225000000001,104.71365802938288L613.2581666666666,102.17372703552252L613.55025,103.87806116450918L613.8423333333334,109.55477805571121L617.2305,104.47381002252752L618.7493333333333,97.69739718870682L619.2750833333333,100.11254986849701L621.2028333333333,103.32991322604096L621.26125,102.63261300867254L621.787,107.23560554330999L624.0068333333334,102.71335432746196L624.4741666666666,105.2865076498552L624.76625,104.63648063486272L626.6355833333333,115.54979025233877L629.3811666666667,99.89478180625224L629.6148333333333,105.69898067821157L630.9584166666667,103.92377771030777L632.0099166666666,100.52547350796789L632.1851666666666,104.6211188923229L633.4119166666667,106.30181642012161L634.0545,108.93879266218704L635.4565,105.06390575929123L635.8654166666666,103.2784206650474L636.8584999999999,100.11590896953237L636.9753333333333,107.91938742724335L637.1505833333333,105.0889351584695L638.3773333333334,107.43391539833766L638.78625,108.32940257679337L639.4288333333334,109.31636381149298L640.1298333333333,101.22162671522659L641.1229166666667,106.83288210088557L642.1744166666667,98.26049722324723L642.5249166666666,100.209062576294L643.1090833333333,107.25973372025925L644.219,107.72529693083328L645.79625,101.15841826525605L646.2635833333334,102.10265337337148L647.4903333333333,102.47727506810969L651.6379166666667,101.68698510256684L655.2013333333333,103.2019396695224L655.7855,108.91085477308792L656.1944166666667,103.02595554698598L657.7716666666666,102.12633093920624L658.9984166666667,107.91066195748073L660.51725,103.76352401213211L661.043,104.48827054283839L662.9123333333333,104.35431614789098L664.1390833333334,110.83594738353383L666.651,102.94505036960953L666.8262500000001,112.13182301954788L667.9945833333334,107.14839181033051L668.4035,109.9489808516069L669.9223333333333,102.05030055479568L674.0115000000001,112.0806172110818L674.5372500000001,104.46807497197932L674.9461666666666,102.63117924603552L675.7055833333333,100.30414152145391L676.99075,101.80430785092443L677.6333333333333,101.86088002811783L678.2759166666667,102.55752481113785L679.2105833333334,102.53024235638708L680.6125833333333,106.5002082044428L680.9630833333333,110.31409874829382L682.3066666666667,115.12363503196025L683.3581666666666,104.77035310051662L686.9215833333333,115.93809413909918L687.4473333333334,101.60386783426458L690.0176666666666,104.93933226845485L691.6533333333333,110.06921208988541L691.8285833333333,105.29281620545822L694.16525,107.23421274531972L695.56725,113.37227348847824L699.3643333333333,103.11878143657339L703.9208333333333,102.17151494459671L704.2129166666667,108.40240157734269L704.3881666666666,106.34384614771062L705.206,107.77748589082199L705.9069999999999,105.48670187863439L707.2505833333333,106.35011373866689L707.6010833333333,109.41218012029475L708.4773333333333,111.36037679152054L708.8278333333334,116.28277067704636L709.412,103.98764159462672L710.814,103.86589466441762L711.8070833333334,109.46039550954646L713.09225,111.85768760334366L715.3120833333334,106.1600787422874L715.9546666666668,110.6963398673318L717.1229999999999,106.2246390256015L717.5319166666667,106.92693692987615L717.8240000000001,113.13402310284704L724.1329999999999,110.27522329850632L724.30825,106.18187193437058L725.1845,103.2909968116067L725.535,109.6364615613764L725.8270833333333,101.67240168831569L728.3389999999999,112.29867202585393L728.9815833333333,105.20404581590134L729.5657500000001,102.52446634119207L729.7994166666667,110.21152327277446L729.8578333333332,118.62492435628718L731.4935,114.67130340229386L732.0192499999999,104.07444568113846L733.3628333333334,105.14231209321457L733.42125,115.95357877557927L734.12225,102.1339093988592L735.9331666666667,108.64147125590932L736.4589166666667,113.95987038178879L737.452,106.25806617736822L737.7440833333333,108.87488781322133L738.2698333333333,113.7915466481989L738.7371666666667,112.96004624800247L739.2044999999999,111.63852674310857L740.1975833333333,108.71647752415055L741.9500833333333,107.37787576155227L742.53425,112.41935387524694L744.6956666666666,113.83746801723134L745.2214166666668,113.09268977425319L745.2798333333333,116.46670194105667L746.5649999999999,102.09265799955887L746.9739166666667,102.27785916761917L748.6095833333333,108.09549444372004L749.19375,103.99636706438935L749.4858333333333,111.40904279188675L750.1284166666667,115.73474563251847L750.6541666666667,111.28631271015519L751.4720000000001,119.19056419892746L753.6918333333333,107.91598736156118L753.8670833333333,104.69465043328029L755.85325,106.19670113650238L756.0869166666666,107.82955195687038L757.4305,110.26326162164861L757.781,110.31065771796489L757.8978333333333,108.09434743361038L760.2345,108.42661168358546L760.5849999999999,106.74992869117045L760.7018333333333,114.63271470503372L761.3444166666667,119.28212018446487L761.6365000000001,105.67259944568985L762.4543333333332,114.3128627430309L762.9800833333333,103.26502522555268L763.91475,123.30980521982369L765.3751666666667,111.22392355312002L766.4850833333334,116.71863451871008L767.0108333333334,108.01942309466278L768.0623333333333,114.64549567482692L769.6395833333333,113.23909742181951L770.9831666666668,103.81178036603063L771.1,105.36995263533157L771.1584166666667,107.15404493158513L774.605,107.36435742811722L774.78025,108.30265266245061L775.306,110.06966270099991L777.5258333333334,112.80696136301214L780.5050833333333,106.7380079789595L783.4259166666667,106.44957590103155L783.89325,114.41044053164399L785.99625,110.98436229879206L786.9893333333333,113.07314963774246L788.1576666666667,103.27854355898774L789.7933333333334,102.25336230884903L789.9685833333333,102.32279738512909L790.3774999999999,124.00186196240512L790.4943333333333,113.28555133126002L791.4874166666667,105.27307124571365L791.95475,108.0002926046198L792.4805,108.97947055643255L793.35675,108.55589610880071L794.2914166666667,104.31163098595363L796.5696666666668,117.90837075493556L797.2706666666667,116.85877457532018L797.9716666666667,104.56454671512955L798.6142500000001,110.0373825593428L799.4320833333334,109.17859970439565L799.5489166666666,113.11771917343145L801.6519166666667,116.42450835488063L803.7549166666666,128.44574780897662L805.3321666666667,118.82905119115657L805.6826666666667,112.3725312839855L806.2084166666667,116.53556351228195L807.9609166666667,105.68099719827825L809.3629166666666,110.56975910880351L810.4144166666666,119.27024043690079L812.3421666666667,105.18827442689377L813.9194166666666,106.3083707636053L814.6788333333333,105.61934540488505L814.7956666666668,108.586332841353L814.8540833333333,119.51131738315934L816.0224166666667,115.77992963790899L816.3145000000001,111.78018249164933L817.1323333333333,117.3901270086115L817.7165000000001,111.02983305671L818.0085833333333,107.02492436495697L818.4175,123.63600670207632L819.5274166666666,115.0794341780923L820.2284166666667,110.60040066458964L822.273,116.41348886489874L825.8948333333333,108.26525193994695L826.7710833333333,108.4906394264915L827.4136666666666,111.86727333068853L827.6473333333334,117.49978936802262L828.582,109.23193567449397L830.5097499999999,108.62815774570817L831.0355,105.31772271069616L833.6058333333334,113.35809972069484L834.7741666666667,106.87380578301173L834.9494166666666,104.12290685827082L835.8840833333334,114.77789341319692L836.81875,111.66421157663518L840.9663333333333,106.92435615712947L841.4920833333333,107.9088185483759L843.303,114.38168334960943L844.4129166666667,105.79860669916326L844.5881666666668,115.17877344651657L845.8733333333334,109.98101520538336L849.6704166666667,111.04363814267248L850.13775,123.15966978940097L851.3644999999999,114.97386828335851L852.6496666666666,109.82645559310919L854.34375,104.09439546411687L857.0309166666667,124.57168019901624L858.6665833333333,119.95127768950027L862.1131666666666,105.56404313174164L863.0478333333334,116.3708856322549L864.85875,105.62565396048808L865.3260833333334,113.51212679256093L866.5528333333333,118.56360028006816L868.0132500000001,110.22483678297561L868.3053333333332,104.44718300212514L869.0647499999999,111.89996311881328L869.8241666666665,109.44441929730505L870.1746666666667,117.25002791664821L872.6281666666666,108.14559420672333L872.6865833333334,117.32450164448136L873.8549166666667,121.30749425021088L877.2430833333333,103.81571297212082L878.2361666666666,109.97716452858668L879.8134166666666,109.14189538088715L879.8718333333334,112.85304659063166L880.3391666666666,121.36103504354304L881.0401666666666,116.14746444875544L881.7411666666667,109.14263274452907L882.6174166666667,125.63463085347959L882.8510833333333,122.87263050946322L883.8441666666666,119.61725195971405L884.8956666666667,113.9095248309049L885.9471666666667,119.72216242009944L886.8234166666666,113.61732400547379L887.4075833333333,119.8563626029275L887.5828333333334,111.18656379526311L888.2838333333334,109.37002749876541L888.34225,119.26602107828313L888.5759166666667,108.70570382204926L890.2115833333332,106.81031058051371L891.7304166666665,112.70856428146368L893.6581666666666,105.65297737988561L894.5344166666666,112.93579517711294L896.6374166666667,117.49348081241959L899.7335,119.2733947147023L899.9671666666667,109.74641067331487L901.1355000000001,112.50742786580867L903.9979166666667,120.17666517604482L905.692,113.65603559667414L908.1455000000001,118.33530430360275L911.12475,108.99745403636587L912.001,122.62192687121308L912.4683333333334,103.34605329686946L912.8188333333334,110.84258365631109L915.7396666666667,124.87555594877765L915.9149166666667,118.91921437870377L916.0901666666666,119.60205407576126L916.8495833333333,117.93340015411383L918.4268333333333,109.28797531127935L919.88725,107.84909209338105L920.2961666666666,114.66462616486984L921.5813333333333,115.03818277879196L922.8080833333332,133.87512016296387L923.5674999999999,121.66642648523504L925.6120833333333,110.41954174908727L926.9556666666667,124.47811694578692L927.1309166666667,109.69975194064057L927.8903333333334,126.18998856977984L928.124,109.68414441022009L930.9864166666666,111.88964002782649L931.0448333333334,115.18368920412934L932.15475,117.702113758434L932.33,118.03298521041876L932.8557500000001,108.98139589483088L932.9141666666667,107.81230584057897L933.2646666666666,106.70081207968974L934.433,116.26323054053569L934.5498333333333,135.57679158991036L939.34,110.41413441571325L939.6905,113.27100888165563L944.07175,111.43689875169235L945.7074166666667,112.71020286733454L947.5767500000001,107.78789091110235L947.92725,110.66205245798284L949.2708333333334,118.5178427696228L951.4322500000001,112.48571660301906L951.4906666666666,117.90816593170172L951.8411666666666,111.46491857008499L952.3669166666666,113.69589419798416L953.36,119.40165502374822L954.061,111.97738630121404L954.4114999999999,123.18420761281797L955.5798333333333,114.32060506127101L955.8135,114.5547999468717L957.2154999999999,121.67502906105739L957.8580833333333,114.25141577287155L960.7789166666666,116.2263623584401L962.1809166666666,114.06535434722906L963.5245,121.55672316117722L965.6274999999999,117.52162352475256L967.0295,108.9868032282049L967.1463333333332,117.508555802432L967.20475,115.11998917839747L970.70975,117.33121984655207L971.5859999999999,115.45012326674026L971.9365,136.07123487645933L973.689,116.87442307038742L974.21475,119.61057472229004L974.4484166666666,112.33455705642706L974.7989166666666,117.81226769360632L975.7335833333334,118.32752102071589L978.2455,123.5974999341098L978.9465,118.43046517805618L980.1732499999999,110.20455928282303L980.2316666666667,119.18020014329392L980.4653333333333,115.452704039487L980.6990000000001,118.49740141088313L980.9326666666667,121.39401158419525L981.92575,113.79187436537308L982.2762500000001,138.6548751484264L982.5099166666668,113.62670490958476L984.0871666666666,124.10886161977598L985.6644166666666,122.27872506054965L986.7743333333333,116.61765666441482L988.6436666666667,116.18953514099127L988.7020833333333,110.57098804820669L988.7605000000001,112.71671624617142L990.1625,116.66452022032303L993.9595833333334,110.35596461729568L994.6605833333333,122.1224858977578L998.3408333333333,120.2536787119779L1000.7943333333333,116.2086656310342L1001.0279999999999,121.94445354288274L1003.5983333333334,119.45068970593542L1004.7082499999999,123.66361687400126L1006.8696666666666,120.93893532319504L1008.6221666666668,120.5106909058311L1009.0310833333333,112.06726273623383L1009.6152500000001,133.89887965809217L1010.6667500000001,119.87037251212382L1012.0103333333333,124.93872343410146L1013.0034166666667,115.6465077833696L1013.3539166666667,135.29507771405306L1013.7628333333333,124.8000171401284L1016.5084166666667,115.81614238565618L1016.8004999999999,119.4590055292303L1017.7351666666666,131.58122283762154L1018.0856666666666,121.1250786781311L1018.6698333333334,116.57890410856766L1019.7213333333334,112.65272946791214L1020.7144166666667,129.50878039273348L1020.8312500000001,123.72756268761376L1022.7005833333333,122.27053213119507L1023.8689166666667,122.7245433113792L1024.5115,113.20222923972392L1027.2570833333332,117.99980384653264L1027.9580833333334,133.45392166484487L1028.6006666666667,114.21602231805974L1032.3393333333333,129.7092613740401L1034.15025,117.39639459956777L1036.3116666666667,112.83739809556442L1037.7136666666665,116.0668050592596L1038.2394166666666,129.75489599054512L1038.5899166666666,112.94726527820939L1039.4661666666666,116.84914788332856L1040.45925,119.2588113004511L1041.2770833333334,114.02479934692388L1041.4523333333334,124.65348659862173L1042.56225,126.69819597764453L1043.6721666666665,124.0198864069852L1050.27325,117.37300378626043L1050.7405833333332,123.6271173737266L1051.0910833333332,116.33258368752223L1052.4930833333333,125.27299495176837L1052.5515,141.12524817206645L1054.7713333333334,108.20573030818593L1056.3485833333334,113.33352093263107L1057.0495833333332,127.04721476814964L1058.0426666666667,115.98143473538488L1058.2763333333335,109.93939512426203L1061.7229166666666,128.65978808836505L1062.4823333333334,136.20195306431165L1063.0665,122.02077067982069L1063.3001666666667,118.47085631977433L1064.7605833333334,121.74233397570526L1066.04575,111.80840713327581L1070.2517500000001,115.67428181388163L1071.5369166666667,117.35452873056585L1071.7705833333334,117.23446135087448L1071.8874166666667,110.59876207871872L1071.9458333333332,122.3534036116167L1072.53,125.62840422717011L1073.6983333333333,114.71869949861008L1075.2171666666668,124.3367889144204L1077.2033333333334,118.9949170459401L1077.7290833333334,121.15879258242524L1081.0004166666665,117.26649570465094L1084.1549166666666,117.44235693324697L1085.6737500000002,130.98506433313545L1085.9658333333332,120.69687522541398L1087.1341666666667,122.34856978329745L1090.1134166666668,125.44037649848246L1090.3470833333333,134.18116703900424L1092.2164166666666,128.1647303321145L1095.0788333333333,117.64877778833562L1096.2471666666668,132.4829366423867L1098.1165,126.4896859255704L1098.7006666666666,122.18507987802681L1098.7590833333334,114.68818083676427L1100.2195,121.46442981199783L1100.5115833333332,121.27603340148926L1100.74525,127.17100993069735L1101.5630833333335,127.1732220216231L1104.0165833333333,111.54676593433732L1105.4769999999999,130.72682319987905L1109.85825,118.50575819882482L1113.7721666666666,120.16400710019201L1115.5830833333334,125.66203620217064L1117.56925,122.96668533845386L1117.6276666666668,126.64424553784457L1118.9128333333333,120.14442599903458L1121.1326666666666,126.14468167044902L1121.42475,120.60544213381684L1121.7168333333334,132.16414976119995L1122.301,116.12808817083186L1123.87825,133.92288494110107L1123.9366666666667,128.77026974071157L1124.3455833333333,122.6574022553184L1125.1634166666668,121.57265840877187L1125.806,119.04980967261577L1126.8574999999998,141.81296266208997L1126.9743333333333,114.93859772248703L1128.3179166666666,128.33452879298818L1128.3763333333334,117.18173985047775L1128.4347500000001,108.23248022252864L1128.6100000000001,116.23070461099798L1129.7199166666667,118.98410237919205L1131.7645,132.82314803383568L1132.5239166666668,120.51339457251811L1132.7575833333333,119.79688193581325L1133.517,114.86076489361852L1133.5754166666668,129.37621879577637L1134.1595833333333,120.37890763716263L1134.8021666666666,128.05277395248413L1135.3863333333334,123.47595782713458L1135.8536666666666,129.8115910616788L1136.4378333333334,135.4261236190796L1139.30025,117.16662389581853L1139.7675833333333,114.86936746944082L1140.00125,132.9575530398976L1141.6369166666666,132.40137603066185L1142.45475,124.11201589757749L1142.80525,119.78868900645864L1143.6230833333334,133.2815424312245L1143.7399166666667,119.2159213152799L1144.1488333333334,126.07287064465609L1144.3825,121.82913806221705L1144.55775,126.20907809517601L1144.6161666666667,137.48238502849233L1144.8498333333334,136.06832638653842L1146.31025,127.61633660576561L1146.8944166666668,140.08404974503955L1147.1280833333333,116.21141026236796L1148.06275,135.04675002531573L1148.8805833333333,128.61984755776146L1150.9835833333334,128.1901693777605L1151.042,115.4325903979215L1151.4509166666667,128.84892186251557L1152.0935,146.13317624005404L1153.846,136.6651403253729L1154.9559166666668,128.40375904603442L1155.0143333333333,134.1608076095581L1155.3064166666666,116.94647988406098L1156.8836666666668,122.1552985798229L1157.9351666666666,123.73014346036044L1159.1035,120.58434534072876L1165.58775,121.72545654123479L1166.1135,125.34353607351133L1167.0481666666667,118.92085296457464L1167.2234166666667,134.33867610584608L1167.7491666666667,119.69332330877131L1169.3848333333333,126.82727557962593L1171.371,129.37355609373614L1171.4294166666666,120.70805857398295L1171.9551666666666,125.98057729547676L1172.1304166666666,128.2330593629317L1174.4086666666667,119.03612748059362L1175.2849166666667,145.99758325923574L1175.8690833333333,114.86277216131037L1176.7453333333333,123.28047453273427L1176.8621666666668,131.46779173070738L1177.3295,123.49463770606303L1178.2641666666668,161.25474305586383L1178.3225833333333,125.05014727332377L1179.4325000000001,127.45563229647553L1180.8345000000002,132.68354051763365L1182.1196666666665,132.03945337642324L1183.7553333333335,123.43601729653099L1184.4563333333333,140.15868733145976L1186.9098333333334,139.11793951554736L1187.0850833333332,134.76749402826485L1189.4801666666667,139.64855458519676L1189.9475,125.62225953015414L1194.6792500000001,160.4578987468373L1194.7376666666667,125.14567682959819L1199.8199166666666,127.75807428359985L1200.28725,138.55246353149414L1202.8575833333334,127.7269001874057L1202.916,130.6834006742998L1205.89525,123.10469523343173L1206.421,123.92148932543671L1209.40025,143.50812071019956L1209.9844166666667,137.03382214632904L1210.3933333333332,150.3116521401839L1210.6854166666667,122.2405869744041L1212.0874166666667,129.6209415955977L1214.2488333333333,122.82212109999224L1215.2419166666666,138.97632473165342L1217.6954166666667,119.5619906512174L1220.4994166666665,143.34819472919813L1220.61625,122.76653207432142L1222.8360833333334,118.20888740366155L1224.2965,134.15171345797455L1224.47175,128.48556544563988L1225.4064166666667,121.32101258364594L1225.6985,124.06302218003711L1225.9905833333332,133.00437563115904L1227.0420833333333,127.14593956687236L1227.3341666666665,132.60116061297333L1227.62625,151.76028494401416L1228.32725,121.04146983406764L1229.554,131.08850006623706L1232.2995833333332,129.4104242758318L1233.059,145.45406432585284L1233.5263333333335,125.73257732391357L1235.68775,127.45309248837557L1236.6224166666666,134.49286703629932L1238.6085833333334,122.06005577607593L1239.2511666666667,123.50639455968687L1240.0105833333334,130.15446515516803L1242.172,127.80641256679189L1242.5809166666668,131.01488659598613L1242.8145833333333,129.6481830857017L1244.2749999999999,126.64129608327696L1245.7938333333332,146.9268253066323L1248.1305,130.62146212837914L1250.5255833333333,138.4771295460788L1250.584,128.71169029582632L1250.7008333333333,141.6588536609303L1250.9929166666668,130.55444396625867L1253.91375,123.13234637000346L1255.0820833333335,124.03422403335571L1255.9583333333335,137.0066625855186L1256.1335833333333,122.7152853012085L1256.2504166666665,135.8540403192694L1257.41875,136.19920843297788L1257.7692499999998,135.96992930498993L1259.1128333333334,162.08399040048775L1260.57325,131.93106092106214L1260.6900833333334,137.79805859652436L1261.4495000000002,131.63185514103284L1262.67625,130.93959357521751L1263.7861666666665,121.37803537195379L1264.1366666666665,124.88718990846118L1264.9545,133.64465306021953L1265.5970833333333,128.1728822968223L1266.1228333333333,144.1221807653254L1266.1812499999999,135.43181770498106" style="fill: none;" fill="none"></path></g></g></g></g></g></g><g transform="translate(58, 378)" clip-path="url(#clip_1)"><clipPath id="clip_1"><rect width="1402" height="22"></rect></clipPath><g><g><line x1="0" y1="0" x2="0" y2="5" style="visibility: inherit;" fill="rgb(0, 0, 0)" stroke="rgb(204, 204, 204)" stroke-width="1px"></line><line x1="116.83333333333333" y1="0" x2="116.83333333333333" y2="5" style="visibility: inherit;" fill="rgb(0, 0, 0)" stroke="rgb(204, 204, 204)" stroke-width="1px"></line><line x1="233.66666666666666" y1="0" x2="233.66666666666666" y2="5" style="visibility: inherit;" fill="rgb(0, 0, 0)" stroke="rgb(204, 204, 204)" stroke-width="1px"></line><line x1="350.5" y1="0" x2="350.5" y2="5" style="visibility: inherit;" fill="rgb(0, 0, 0)" stroke="rgb(204, 204, 204)" stroke-width="1px"></line><line x1="467.3333333333333" y1="0" x2="467.3333333333333" y2="5" style="visibility: inherit;" fill="rgb(0, 0, 0)" stroke="rgb(204, 204, 204)" stroke-width="1px"></line><line x1="584.1666666666667" y1="0" x2="584.1666666666667" y2="5" style="visibility: inherit;" fill="rgb(0, 0, 0)" stroke="rgb(204, 204, 204)" stroke-width="1px"></line><line x1="701" y1="0" x2="701" y2="5" style="visibility: inherit;" fill="rgb(0, 0, 0)" stroke="rgb(204, 204, 204)" stroke-width="1px"></line><line x1="817.8333333333334" y1="0" x2="817.8333333333334" y2="5" style="visibility: inherit;" fill="rgb(0, 0, 0)" stroke="rgb(204, 204, 204)" stroke-width="1px"></line><line x1="934.6666666666666" y1="0" x2="934.6666666666666" y2="5" style="visibility: inherit;" fill="rgb(0, 0, 0)" stroke="rgb(204, 204, 204)" stroke-width="1px"></line><line x1="1051.5" y1="0" x2="1051.5" y2="5" style="visibility: inherit;" fill="rgb(0, 0, 0)" stroke="rgb(204, 204, 204)" stroke-width="1px"></line><line x1="1168.3333333333335" y1="0" x2="1168.3333333333335" y2="5" style="visibility: inherit;" fill="rgb(0, 0, 0)" stroke="rgb(204, 204, 204)" stroke-width="1px"></line><line x1="1285.1666666666665" y1="0" x2="1285.1666666666665" y2="5" style="visibility: inherit;" fill="rgb(0, 0, 0)" stroke="rgb(204, 204, 204)" stroke-width="1px"></line><line x1="1402" y1="0" x2="1402" y2="5" style="visibility: inherit;" fill="rgb(0, 0, 0)" stroke="rgb(204, 204, 204)" stroke-width="1px"></line></g><g transform="translate(0, 8)"><text x="0" y="0" dx="0em" dy="0.95em" style="text-anchor: middle; visibility: hidden; font-family: &quot;Helvetica Neue&quot;, sans-serif; font-size: 12px; font-weight: 200;" fill="rgb(50, 49, 63)" stroke="none" stroke-width="1px">-2k</text><text x="116.83333333333333" y="0" dx="0em" dy="0.95em" style="text-anchor: middle; visibility: inherit; font-family: &quot;Helvetica Neue&quot;, sans-serif; font-size: 12px; font-weight: 200;" fill="rgb(50, 49, 63)" stroke="none" stroke-width="1px">0</text><text x="233.66666666666666" y="0" dx="0em" dy="0.95em" style="text-anchor: middle; visibility: inherit; font-family: &quot;Helvetica Neue&quot;, sans-serif; font-size: 12px; font-weight: 200;" fill="rgb(50, 49, 63)" stroke="none" stroke-width="1px">2k</text><text x="350.5" y="0" dx="0em" dy="0.95em" style="text-anchor: middle; visibility: inherit; font-family: &quot;Helvetica Neue&quot;, sans-serif; font-size: 12px; font-weight: 200;" fill="rgb(50, 49, 63)" stroke="none" stroke-width="1px">4k</text><text x="467.3333333333333" y="0" dx="0em" dy="0.95em" style="text-anchor: middle; visibility: inherit; font-family: &quot;Helvetica Neue&quot;, sans-serif; font-size: 12px; font-weight: 200;" fill="rgb(50, 49, 63)" stroke="none" stroke-width="1px">6k</text><text x="584.1666666666667" y="0" dx="0em" dy="0.95em" style="text-anchor: middle; visibility: inherit; font-family: &quot;Helvetica Neue&quot;, sans-serif; font-size: 12px; font-weight: 200;" fill="rgb(50, 49, 63)" stroke="none" stroke-width="1px">8k</text><text x="701" y="0" dx="0em" dy="0.95em" style="text-anchor: middle; visibility: inherit; font-family: &quot;Helvetica Neue&quot;, sans-serif; font-size: 12px; font-weight: 200;" fill="rgb(50, 49, 63)" stroke="none" stroke-width="1px">10k</text><text x="817.8333333333334" y="0" dx="0em" dy="0.95em" style="text-anchor: middle; visibility: inherit; font-family: &quot;Helvetica Neue&quot;, sans-serif; font-size: 12px; font-weight: 200;" fill="rgb(50, 49, 63)" stroke="none" stroke-width="1px">12k</text><text x="934.6666666666666" y="0" dx="0em" dy="0.95em" style="text-anchor: middle; visibility: inherit; font-family: &quot;Helvetica Neue&quot;, sans-serif; font-size: 12px; font-weight: 200;" fill="rgb(50, 49, 63)" stroke="none" stroke-width="1px">14k</text><text x="1051.5" y="0" dx="0em" dy="0.95em" style="text-anchor: middle; visibility: inherit; font-family: &quot;Helvetica Neue&quot;, sans-serif; font-size: 12px; font-weight: 200;" fill="rgb(50, 49, 63)" stroke="none" stroke-width="1px">16k</text><text x="1168.3333333333335" y="0" dx="0em" dy="0.95em" style="text-anchor: middle; visibility: inherit; font-family: &quot;Helvetica Neue&quot;, sans-serif; font-size: 12px; font-weight: 200;" fill="rgb(50, 49, 63)" stroke="none" stroke-width="1px">18k</text><text x="1285.1666666666665" y="0" dx="0em" dy="0.95em" style="text-anchor: middle; visibility: inherit; font-family: &quot;Helvetica Neue&quot;, sans-serif; font-size: 12px; font-weight: 200;" fill="rgb(50, 49, 63)" stroke="none" stroke-width="1px">20k</text><text x="1402" y="0" dx="0em" dy="0.95em" style="text-anchor: middle; visibility: hidden; font-family: &quot;Helvetica Neue&quot;, sans-serif; font-size: 12px; font-weight: 200;" fill="rgb(50, 49, 63)" stroke="none" stroke-width="1px">22k</text></g><line x1="0" y1="0" x2="1402" y2="0" fill="rgb(0, 0, 0)" stroke="rgb(204, 204, 204)" stroke-width="1px"></line></g></g></g></g></svg>