<svg viewBox="0 0 1460 400" xmlns="http://www.w3.org/2000/svg"><g><g><g><g><g><line x1="46" y1="378" x2="41" y2="378" style="visibility: inherit;" fill="rgb(0, 0, 0)" stroke="rgb(204, 204, 204)" stroke-width="1px"></line><line x1="46" y1="343.6363636363636" x2="41" y2="343.6363636363636" style="visibility: inherit;" fill="rgb(0, 0, 0)" stroke="rgb(204, 204, 204)" stroke-width="1px"></line><line x1="46" y1="309.27272727272725" x2="41" y2="309.27272727272725" style="visibility: inherit;" fill="rgb(0, 0, 0)" stroke="rgb(204, 204, 204)" stroke-width="1px"></line><line x1="46" y1="274.90909090909093" x2="41" y2="274.90909090909093" style="visibility: inherit;" fill="rgb(0, 0, 0)" stroke="rgb(204, 204, 204)" stroke-width="1px"></line><line x1="46" y1="240.54545454545453" x2="41" y2="240.54545454545453" style="visibility: inherit;" fill="rgb(0, 0, 0)" stroke="rgb(204, 204, 204)" stroke-width="1px"></line><line x1="46" y1="206.1818181818182" x2="41" y2="206.1818181818182" style="visibility: inherit;" fill="rgb(0, 0, 0)" stroke="rgb(204, 204, 204)" stroke-width="1px"></line><line x1="46" y1="171.81818181818184" x2="41" y2="171.81818181818184" style="visibility: inherit;" fill="rgb(0, 0, 0)" stroke="rgb(204, 204, 204)" stroke-width="1px"></line><line x1="46" y1="137.45454545454547" x2="41" y2="137.45454545454547" style="visibility: inherit;" fill="rgb(0, 0, 0)" stroke="rgb(204, 204, 204)" stroke-width="1px"></line><line x1="46" y1="103.09090909090907" x2="41" y2="103.09090909090907" style="visibility: inherit;" fill="rgb(0, 0, 0)" stroke="rgb(204, 204, 204)" stroke-width="1px"></line><line x1="46" y1="68.72727272727269" x2="41" y2="68.72727272727269" style="visibility: inherit;" fill="rgb(0, 0, 0)" stroke="rgb(204, 204, 204)" stroke-width="1px"></line><line x1="46" y1="34.363636363636374" x2="41" y2="34.363636363636374" style="visibility: inherit;" fill="rgb(0, 0, 0)" stroke="rgb(204, 204, 204)" stroke-width="1px"></line><line x1="46" y1="0" x2="41" y2="0" style="visibility: inherit;" fill="rgb(0, 0, 0)" stroke="rgb(204, 204, 204)" stroke-width="1px"></line></g><g transform="translate(36, 0)"><text x="0" y="378" dx="0em" dy="0.3em" style="text-anchor: end; visibility: hidden; font-family: &quot;Helvetica Neue&quot;, sans-serif; font-size: 12px; font-weight: 200;" fill="rgb(50, 49, 63)" stroke="none" stroke-width="1px">-10</text><text x="0" y="343.6363636363636" dx="0em" dy="0.3em" style="text-anchor: end; visibility: inherit; font-family: &quot;Helvetica Neue&quot;, sans-serif; font-size: 12px; font-weight: 200;" fill="rgb(50, 49, 63)" stroke="none" stroke-width="1px">0</text><text x="0" y="309.27272727272725" dx="0em" dy="0.3em" style="text-anchor: end; visibility: inherit; font-family: &quot;Helvetica Neue&quot;, sans-serif; font-size: 12px; font-weight: 200;" fill="rgb(50, 49, 63)" stroke="none" stroke-width="1px">10</text><text x="0" y="274.90909090909093" dx="0em" dy="0.3em" style="text-anchor: end; visibility: inherit; font-family: &quot;Helvetica Neue&quot;, sans-serif; font-size: 12px; font-weight: 200;" fill="rgb(50, 49, 63)" stroke="none" stroke-width="1px">20</text><text x="0" y="240.54545454545453" dx="0em" dy="0.3em" style="text-anchor: end; visibility: inherit; font-family: &quot;Helvetica Neue&quot;, sans-serif; font-size: 12px; font-weight: 200;" fill="rgb(50, 49, 63)" stroke="none" stroke-width="1px">30</text><text x="0" y="206.1818181818182" dx="0em" dy="0.3em" style="text-anchor: end; visibility: inherit; font-family: &quot;Helvetica Neue&quot;, sans-serif; font-size: 12px; font-weight: 200;" fill="rgb(50, 49, 63)" stroke="none" stroke-width="1px">40</text><text x="0" y="171.81818181818184" dx="0em" dy="0.3em" style="text-anchor: end; visibility: inherit; font-family: &quot;Helvetica Neue&quot;, sans-serif; font-size: 12px; font-weight: 200;" fill="rgb(50, 49, 63)" stroke="none" stroke-width="1px">50</text><text x="0" y="137.45454545454547" dx="0em" dy="0.3em" style="text-anchor: end; visibility: inherit; font-family: &quot;Helvetica Neue&quot;, sans-serif; font-size: 12px; font-weight: 200;" fill="rgb(50, 49, 63)" stroke="none" stroke-width="1px">60</text><text x="0" y="103.09090909090907" dx="0em" dy="0.3em" style="text-anchor: end; visibility: inherit; font-family: &quot;Helvetica Neue&quot;, sans-serif; font-size: 12px; font-weight: 200;" fill="rgb(50, 49, 63)" stroke="none" stroke-width="1px">70</text><text x="0" y="68.72727272727269" dx="0em" dy="0.3em" style="text-anchor: end; visibility: inherit; font-family: &quot;Helvetica Neue&quot;, sans-serif; font-size: 12px; font-weight: 200;" fill="rgb(50, 49, 63)" stroke="none" stroke-width="1px">80</text><text x="0" y="34.363636363636374" dx="0em" dy="0.3em" style="text-anchor: end; visibility: inherit; font-family: &quot;Helvetica Neue&quot;, sans-serif; font-size: 12px; font-weight: 200;" fill="rgb(50, 49, 63)" stroke="none" stroke-width="1px">90</text><text x="0" y="0" dx="0em" dy="0.3em" style="text-anchor: end; visibility: hidden; font-family: &quot;Helvetica Neue&quot;, sans-serif; font-size: 12px; font-weight: 200;" fill="rgb(50, 49, 63)" stroke="none" stroke-width="1px">100</text></g><line x1="46" y1="0" x2="46" y2="378" fill="rgb(0, 0, 0)" stroke="rgb(204, 204, 204)" stroke-width="1px"></line></g></g><g transform="translate(46, 0)" clip-path="url(#clip_0)"><clipPath id="clip_0"><rect width="1414" height="378"></rect></clipPath><g><g><g><line x1="0" y1="0" x2="0" y2="378" fill="rgb(0, 0, 0)" stroke="rgb(60, 60, 60)" stroke-width="1px" opacity="0.25"></line><line x1="117.83333333333333" y1="0" x2="117.83333333333333" y2="378" fill="rgb(0, 0, 0)" stroke="rgb(60, 60, 60)" stroke-width="1px" opacity="0.25"></line><line x1="235.66666666666666" y1="0" x2="235.66666666666666" y2="378" fill="rgb(0, 0, 0)" stroke="rgb(60, 60, 60)" stroke-width="1px" opacity="0.25"></line><line x1="353.5" y1="0" x2="353.5" y2="378" fill="rgb(0, 0, 0)" stroke="rgb(60, 60, 60)" stroke-width="1px" opacity="0.25"></line><line x1="471.3333333333333" y1="0" x2="471.3333333333333" y2="378" fill="rgb(0, 0, 0)" stroke="rgb(60, 60, 60)" stroke-width="1px" opacity="0.25"></line><line x1="589.1666666666667" y1="0" x2="589.1666666666667" y2="378" fill="rgb(0, 0, 0)" stroke="rgb(60, 60, 60)" stroke-width="1px" opacity="0.25"></line><line x1="707" y1="0" x2="707" y2="378" fill="rgb(0, 0, 0)" stroke="rgb(60, 60, 60)" stroke-width="1px" opacity="0.25"></line><line x1="824.8333333333334" y1="0" x2="824.8333333333334" y2="378" fill="rgb(0, 0, 0)" stroke="rgb(60, 60, 60)" stroke-width="1px" opacity="0.25"></line><line x1="942.6666666666666" y1="0" x2="942.6666666666666" y2="378" fill="rgb(0, 0, 0)" stroke="rgb(60, 60, 60)" stroke-width="1px" opacity="0.25"></line><line x1="1060.5" y1="0" x2="1060.5" y2="378" fill="rgb(0, 0, 0)" stroke="rgb(60, 60, 60)" stroke-width="1px" opacity="0.25"></line><line x1="1178.3333333333335" y1="0" x2="1178.3333333333335" y2="378" fill="rgb(0, 0, 0)" stroke="rgb(60, 60, 60)" stroke-width="1px" opacity="0.25"></line><line x1="1296.1666666666665" y1="0" x2="1296.1666666666665" y2="378" fill="rgb(0, 0, 0)" stroke="rgb(60, 60, 60)" stroke-width="1px" opacity="0.25"></line><line x1="1414" y1="0" x2="1414" y2="378" fill="rgb(0, 0, 0)" stroke="rgb(60, 60, 60)" stroke-width="1px" opacity="0.25"></line></g><g><line x1="0" y1="378" x2="1414" y2="378" fill="rgb(0, 0, 0)" stroke="rgb(60, 60, 60)" stroke-width="1px" opacity="0.25"></line><line x1="0" y1="343.6363636363636" x2="1414" y2="343.6363636363636" fill="rgb(0, 0, 0)" stroke="rgb(60, 60, 60)" stroke-width="1px" opacity="0.25"></line><line x1="0" y1="309.27272727272725" x2="1414" y2="309.27272727272725" fill="rgb(0, 0, 0)" stroke="rgb(60, 60, 60)" stroke-width="1px" opacity="0.25"></line><line x1="0" y1="274.90909090909093" x2="1414" y2="274.90909090909093" fill="rgb(0, 0, 0)" stroke="rgb(60, 60, 60)" stroke-width="1px" opacity="0.25"></line><line x1="0" y1="240.54545454545453" x2="1414" y2="240.54545454545453" fill="rgb(0, 0, 0)" stroke="rgb(60, 60, 60)" stroke-width="1px" opacity="0.25"></line><line x1="0" y1="206.1818181818182" x2="1414" y2="206.1818181818182" fill="rgb(0, 0, 0)" stroke="rgb(60, 60, 60)" stroke-width="1px" opacity="0.25"></line><line x1="0" y1="171.81818181818184" x2="1414" y2="171.81818181818184" fill="rgb(0, 0, 0)" stroke="rgb(60, 60, 60)" stroke-width="1px" opacity="0.25"></line><line x1="0" y1="137.45454545454547" x2="1414" y2="137.45454545454547" fill="rgb(0, 0, 0)" stroke="rgb(60, 60, 60)" stroke-width="1px" opacity="0.25"></line><line x1="0" y1="103.09090909090907" x2="1414" y2="103.09090909090907" fill="rgb(0, 0, 0)" stroke="rgb(60, 60, 60)" stroke-width="1px" opacity="0.25"></line><line x1="0" y1="68.72727272727269" x2="1414" y2="68.72727272727269" fill="rgb(0, 0, 0)" stroke="rgb(60, 60, 60)" stroke-width="1px" opacity="0.25"></line><line x1="0" y1="34.363636363636374" x2="1414" y2="34.363636363636374" fill="rgb(0, 0, 0)" stroke="rgb(60, 60, 60)" stroke-width="1px" opacity="0.25"></line><line x1="0" y1="0" x2="1414" y2="0" fill="rgb(0, 0, 0)" stroke="rgb(60, 60, 60)" stroke-width="1px" opacity="0.25"></line></g></g></g><g><g><line x1="0" y1="343.6363636363636" x2="1414" y2="343.6363636363636" fill="rgb(0, 0, 0)" stroke="rgb(153, 153, 153)" stroke-width="1.5px"></line></g></g><g><g><line x1="117.83333333333333" y1="0" x2="117.83333333333333" y2="378" fill="rgb(0, 0, 0)" stroke="rgb(153, 153, 153)" stroke-width="1.5px"></line></g></g><g><g><g><g><g><path stroke="rgb(0, 119, 187)" stroke-width="2px" d="M118.89383333333333,156.2667696866122L120.30783333333333,154.82781539042531L120.48458333333333,150.6213499209278L122.01641666666667,156.40586274691836L123.3715,163.98289109472537L126.96541666666667,158.13414368344155L127.14216666666667,163.8749244816849L127.67241666666668,168.16593358768222L131.32525,172.08276274462827L131.61983333333333,172.02874843423825L132.85708333333335,172.52924170097245L133.56408333333334,175.39427539402035L133.91758333333334,178.27893930948912L135.97966666666667,180.05576384956564L136.0975,181.18607449175536L136.56883333333332,185.2111612581986L138.27741666666665,186.35485284376892L139.45575,187.61299819352342L142.63725000000002,187.9629495634911L144.935,186.53002267536402L145.75983333333332,185.32771135050055L149.41266666666667,184.85690961600557L151.00341666666665,185.91024987529548L151.94608333333335,185.59145717600038L152.3585,182.8804976927743L152.41741666666667,179.85530747872792L154.36166666666665,180.17862642632218L155.1865,182.2872064592113L155.95241666666666,183.7017195088192L156.77725,183.9648126628956L157.36641666666665,185.98497174522382L159.89983333333333,185.33985460105083L160.37116666666665,185.72696899459362L160.8425,184.7771578195021L162.90458333333333,183.49756702091892L163.14025,182.64635061476935L163.25808333333333,183.14104715736107L164.08291666666668,184.0838852472024L164.20075,185.96473542982994L164.61316666666667,185.84267808719576L165.08450000000002,183.99129403441327L165.43800000000002,184.8115291823756L167.08766666666668,182.20022196348705L173.50958333333332,183.69319592019315L175.04141666666666,182.7424057146375L175.10033333333334,184.87582844689737L175.45383333333334,182.41315615907382L175.80733333333333,183.23693974790052L176.86783333333332,182.60108878736935L177.04458333333335,183.31983519047958L177.57483333333332,184.38696303811642L180.46175,180.6845239964537L180.6385,181.98634106332713L181.34550000000002,182.429101293902L182.22924999999998,183.01367418120273L182.58274999999998,184.031356847856L182.87733333333333,183.99702218671024L185.941,182.5191637799769L186.23558333333335,182.11294571325237L186.2945,182.1779198336222L187.35500000000002,184.186133611242L188.12091666666666,185.79031261485164L191.12566666666666,186.51990666328683L192.12725,188.05481395123817L195.36766666666665,188.41662650416765L195.54441666666668,189.62968549628422L196.36925,189.45719292864626L196.60491666666667,190.83465212749874L199.43291666666667,190.9665978934303L199.84533333333334,192.13833509296563L201.14149999999998,191.6824270544901L201.84849999999997,190.3118769104327L202.43766666666667,191.84498161217394L204.20516666666666,192.03742186693373L204.85325,192.0829705744839L205.67808333333332,192.34155251879014L207.56341666666665,190.45988772203972L209.272,188.58943373815396L210.21466666666666,187.70183387719246L211.15733333333336,187.86922392025897L211.393,187.16828823821888L212.39458333333334,187.35931415266307L214.45666666666668,185.27562141358982L216.93116666666668,185.76094786285861L217.46141666666665,186.7317371632585L218.1095,184.8436445015711L218.52191666666667,185.18688986232098L219.05216666666666,186.5320909329341L219.877,186.3324178401309L219.99483333333333,186.99707825292356L220.17158333333333,187.72413176608188L222.76391666666666,187.75921524953384L225.4151666666667,188.782813263217L226.47566666666668,189.2404693458821L227.00591666666668,187.16021756943763L227.77183333333332,184.6743341534894L227.94858333333335,184.6185299700148L228.41991666666667,185.19905258311007L230.77658333333335,186.031067656927L231.77816666666666,187.5385624355209L232.36733333333333,187.97713864056138L232.54408333333336,189.46679619450526L235.7255833333333,189.88391552354804L236.43258333333333,191.19435156122813L237.78766666666667,191.56716149051735L239.96758333333332,189.43984387572726L240.14433333333335,187.01846059714896L240.20325,187.5504356808592L240.67458333333332,188.29905310623803L240.91025,189.56429838813915L241.32266666666666,190.2069774422686L244.44525,190.81180784424774L244.85766666666666,191.1107995904189L246.68408333333332,192.81616116720946L246.91975,193.26493148628998L247.3910833333333,194.4820513935533L247.8624166666667,194.50503487735259L248.09808333333334,191.38197283043584L249.27641666666668,191.42994261001652L249.571,191.55136571496226L249.62991666666667,192.07085322610374L250.80825000000002,192.53939963016728L251.10283333333334,192.60440110061717L252.22225,192.6162334293625L253.16491666666664,192.14430610304862L253.75408333333334,192.6064719797278L254.46108333333333,192.7209197030671L255.99291666666664,192.7540369287523L256.52316666666667,191.57414481105806L258.58525000000003,190.2934597707502L258.64416666666665,191.09143287070782L258.762,191.97808995396971L261.35433333333333,192.77777464265756L261.8256666666667,192.02038886244046L262.35591666666664,191.42190765166018L262.47375,190.98557292772554L262.7683333333333,191.61939875234899L264.24125000000004,190.60643685362805L264.30016666666666,190.40109028962306L264.8893333333333,189.3890845368907L265.0071666666667,190.2501837623239L265.30174999999997,190.5678570607116L266.1265833333333,190.31671595403623L266.48008333333337,191.43693135496267L267.01033333333334,191.42541734145274L267.89408333333336,192.6641451994137L268.24758333333335,193.31297241432586L271.3701666666667,193.14714137548475L276.02458333333334,193.67418082659267L277.08508333333333,191.98170859652714L279.265,192.27505944292275L280.08983333333333,193.81060090122202L282.1519166666667,194.5372072117921L287.04200000000003,195.1617455715123L288.45599999999996,194.6412276480974L292.6390833333333,194.6371458247564L293.1104166666667,194.84223945294545L295.23141666666663,196.29156847705488L296.35083333333336,194.34780039667706L296.82216666666665,193.95956402692178L296.9989166666667,193.7149655680544L300.41608333333335,192.44073247178815L304.06891666666667,193.22356462831277L305.01158333333336,192.50161475080517L306.07208333333335,194.02630927666263L306.131,195.093243995262L308.13416666666666,196.23267463791623L308.7233333333333,196.7191653474448L308.9000833333333,197.4832070675312L308.959,197.49578707724254L309.0768333333333,198.35453104463355L309.13575000000003,198.58022650187775L310.6086666666667,198.8282850302057L312.55291666666665,196.74305748504574L314.90958333333333,197.18068451052955L316.736,197.82462546236502L318.32675,197.63846462506763L318.6213333333333,197.854259734051L319.9175,195.90471968999813L321.0369166666667,195.25098384010485L321.92066666666665,192.65884070324677L322.86333333333334,192.3585388872475L324.57191666666665,193.59124602476763L324.7486666666667,194.92009730134828L326.22158333333334,195.2064170461129L329.93333333333334,193.192535776906L330.9938333333333,193.32058939549253L331.1116666666667,192.78854012559404L331.22950000000003,193.4457560032873L331.58299999999997,194.21236083813872L333.23266666666666,195.17236770598862L334.0575,194.29638377801243L337.3568333333333,195.07316129757746L337.5925,194.6188411109746L338.24058333333335,194.56243414829964L341.30425,195.03799253275648L342.5415,195.4866357568339L342.8360833333333,196.11296368172177L342.95391666666666,197.16453274166463L343.54308333333336,196.28923106822748L345.48733333333337,196.55344836704992L346.1943333333333,196.12166078808372L349.258,195.59249375482568L350.90766666666667,196.56560149276373L352.5573333333333,197.1307551778872L354.7961666666667,198.2478639689831L355.44425,197.96248255526328L355.621,195.4965550588562L358.97925000000004,195.5379751288081L359.2738333333333,196.52431915396454L359.9219166666667,195.64449943384548L364.2228333333333,195.63918754875013L364.9298333333333,194.6571292523611L365.04766666666666,192.67375829597373L365.34225000000004,193.38203670140598L365.4011666666667,194.1958107532944L366.8740833333334,192.74503184301528L367.16866666666664,192.4227387274082L367.3454166666666,192.52705642758562L367.81675,192.08707844245833L368.99508333333335,191.71416193389595L369.1718333333333,192.67213982476184L370.11449999999996,192.7982992378328L371.41066666666666,193.46485638231408L372.1765833333333,192.81581308525173L372.2944166666666,193.638931749467L375.24025000000006,195.1661560237061L376.65424999999993,195.9611773384252L377.06666666666666,196.46026033018055L377.4201666666667,196.5763985550139L378.8341666666667,196.94790462324616L379.0109166666667,197.82558243821413L382.487,198.05626988478483L383.48858333333334,198.026603484015L384.72583333333336,197.47078469252386L387.55383333333333,197.61267487798548L387.73058333333336,197.22048639333119L388.67325,196.84494546735655L390.49966666666666,197.22145077567617L392.1493333333333,198.13217555674487L392.6206666666667,195.62418177439795L392.85633333333334,195.95577367678186L393.3276666666667,195.69842691216996L395.50758333333334,195.55771225255484L395.80216666666666,196.30191116665782L397.6875,193.35299587321285L398.15883333333335,193.7901531932659L398.6890833333333,191.77156739754182L399.92633333333333,193.0835297940188L400.6333333333333,192.42827040657303L400.7511666666666,192.66354857577664L402.98999999999995,194.33955064775293L403.69699999999995,193.27050377548943L406.1715,193.1405428743738L410.17783333333335,192.08026605692103L410.7080833333333,192.63522595505725L410.88483333333335,193.30237131253668L415.3625,193.9252110114931L415.48033333333336,194.66463129466126L415.53925,195.33993062151214L418.6618333333333,194.70829831681863L420.3115,195.06612337371763L424.2,195.48582554341928L426.49774999999994,196.33660245541057L429.4435833333334,196.71264213168956L431.80025,195.94001722673474L432.74291666666664,195.20828051472978L433.56775,195.47050971596363L437.16166666666663,196.00162869831908L438.4578333333333,194.80570807672683L441.5804166666667,194.47839638409022L442.75874999999996,191.75927946727114L442.8765833333333,189.0352435634499L444.76191666666665,186.72773247052515L446.17591666666664,187.1952588985214L447.00075,187.46684214037364L449.5341666666667,186.7046893757933L451.1838333333333,187.7260122234169L451.3016666666667,189.438562912649L451.5373333333334,187.41846427781755L452.42108333333334,186.73812855860317L454.83666666666664,186.06882171120915L455.0134166666666,185.0055338861185L458.136,185.43332976318385L459.9624166666666,185.87342840614062L460.0213333333333,184.55275407829487L461.0229166666667,185.79847795368661L461.19966666666664,186.35153076904675L463.20283333333333,187.5002901829055L463.3206666666667,186.2428202933609L463.73308333333335,188.39155817451254L465.85408333333334,185.83709051807864L467.0913333333333,185.0074803421757L468.5053333333333,182.55546115591432L468.79991666666666,184.8985408045232L469.15341666666666,184.82555089707589L470.74416666666673,185.90380549796535L471.9225,187.28071085720487L472.2170833333334,188.04993955945193L473.10083333333336,188.59278976234862L473.3954166666667,189.33993135523718L475.92883333333333,188.17839141409235L477.40175,187.5021407979692L477.51958333333334,184.83887385734232L478.46225,184.38657044358757L479.0514166666666,185.59076475926096L481.99724999999995,182.76311539987094L483.1166666666667,184.50252273180712L483.88258333333334,186.31951757393844L484.2360833333333,188.17017238728684L485.00200000000007,186.7096044057948L488.36025,186.65323895862574L489.7153333333333,186.90986881434674L490.0099166666667,187.2845722851501L491.4239166666667,187.618037620999L492.07199999999995,187.72720101537766L492.7200833333333,186.85640033609369L493.486,187.58570917229994L494.9,187.74616494130416L500.4970833333333,189.27361438590685L500.556,190.00531794384509L500.7916666666667,189.93653998352886L501.96999999999997,191.20543250711677L502.02891666666665,191.52460839637948L505.1515,191.41829902257388L505.7406666666667,191.96592395885855L506.8600833333333,192.9790585964484L510.04158333333334,192.40166914243483L510.5718333333333,191.33851647571754L510.92533333333336,191.2952442623835L511.2788333333333,191.0718101545548L511.4555833333334,191.09445418859124L511.868,188.23434095164242L512.3393333333333,188.63957644802434L512.5160833333333,188.58450172513034L513.2230833333333,189.12190395923238L514.8138333333333,187.92955637688257L515.0495000000001,189.39904284693378L515.6975833333333,191.3431728213893L520.352,189.85436935414558L521.1768333333333,190.76945011967962L521.6481666666667,189.9586369627974L522.5319166666667,189.3068075644991L526.3615000000001,186.94370990115183L528.0700833333333,187.28323087201372L528.2468333333334,188.5119409908581L529.7786666666666,190.4636283082512L531.0748333333333,190.12397194629082L535.6114166666667,189.4506012461058L536.4951666666667,190.02063915125555L536.9665,189.22928392557455L538.3215833333333,188.60660734885474L539.3820833333333,188.41301762648325L541.73875,189.96434183946994L542.976,191.7859087744977L544.8024166666667,191.76343344814183L547.9250000000001,192.63499925834486L548.5730833333333,192.17971454383272L549.6335833333333,193.7430879232682L550.22275,193.96544555005207L550.2816666666666,192.4589751567604L551.4010833333333,192.0684889712742L552.7561666666667,193.44233309200055L553.8755833333333,194.29871214485212L556.1733333333333,192.90279316160183L556.3500833333334,192.22938007609852L556.7624999999999,193.57940140548953L557.3516666666667,193.41458212970102L557.5284166666667,193.09323536374868L558.4121666666667,189.0652165071279L560.3564166666666,187.92464408220076L561.4758333333333,188.039958313021L566.1302499999999,188.08118942137676L568.1923333333333,187.52338818019038L569.1939166666667,188.03645091097943L570.0776666666667,188.25971954096033L570.7257500000001,188.71470128302295L571.07925,189.2536642797197L572.5521666666666,189.08827794860906L572.84675,187.75284703024712L573.1413333333334,187.6834285916176L574.2018333333334,188.14970088732977L574.8499166666667,187.7257893937357L575.0266666666666,188.43427128787005L576.2049999999999,189.526275834631L576.6763333333333,190.31321609278385L577.2655,188.7930952106617L579.3275833333333,190.21153800441724L579.6221666666667,190.2470476085214L583.2160833333334,187.69081861769948L583.275,188.19217092599547L585.1603333333334,189.7750517573887L588.1650833333333,189.47028864706905L588.6364166666667,189.68925351256993L590.6985,191.18905982545905L591.3465833333333,190.1853828326413L592.0535833333333,188.0430821582449L593.0551666666667,188.81462108235974L596.5901666666666,189.46345174130624L599.7716666666666,189.1736389560383L600.0073333333333,190.18979892483677L600.8321666666667,188.16412076050872L601.83375,189.9571649161074L602.18725,188.58548764933215L604.66175,189.33125089449672L605.6044166666667,189.314449153696L606.2525,191.2563168735614L607.2540833333334,191.47046676729275L608.4324166666667,190.58669966751214L608.727,189.83508877047493L608.8448333333333,190.3854836891512L609.1983333333334,190.89738298353615L610.3766666666667,189.5429175532529L610.5534166666667,190.10275700622896L610.848,191.5709672380566L611.37825,191.73947700802194L616.68075,191.14531269335728L616.7396666666666,192.39343008273616L616.8575000000001,192.6628401100427L618.5071666666666,193.54515999494873L618.80175,193.53432115119494L619.0963333333334,192.38702358826365L622.5134999999999,192.48552970573883L624.0453333333334,194.47357537394544L624.5755833333333,195.32528196194303L626.5198333333333,195.74472273321595L626.57875,196.558223528643L627.109,195.62737201449588L629.3478333333334,196.0216250541747L629.8191666666667,196.39686634479915L630.11375,195.6405225656672L631.9990833333334,191.5701986782175L634.7681666666667,192.49881121491L635.0038333333333,192.91241578190346L636.3589166666667,193.23895642031547L637.4194166666666,194.3240021173735L637.5961666666667,194.38591855361696L638.8334166666666,194.46251210114553L639.4815,193.8248103335383L640.8955,193.34145787261122L641.3079166666666,193.6053795293488L642.3095,195.08264033817275L642.4273333333333,194.4646801158057L642.6040833333334,194.48302764927647L643.8413333333333,194.25357252784278L644.25375,193.37743104374204L644.9018333333333,191.9927458198154L645.6088333333333,192.915736684961L646.6104166666667,192.97230483974758L647.6709166666667,194.57097006082657L648.0244166666666,195.89700210333862L648.6135833333333,194.98850908535468L649.7330000000001,194.0378972534228L651.32375,195.03217868284426L651.7950833333334,195.65265727123654L653.0323333333333,196.15009473151773L657.2154166666667,196.86244937164778L660.8093333333334,196.87586343343287L661.3985,195.70956310745535L661.8109166666667,196.2968408480749L663.4016666666666,197.0662793413535L664.6389166666667,196.07356235382525L666.17075,196.57237752308987L666.7009999999999,196.49220367682207L668.5863333333333,196.48933805540935L669.8235833333333,195.3995450924224L672.357,196.25606695707955L672.53375,194.91941188261913L673.7120833333333,194.38345635986852L674.1245,193.34784298301307L675.6563333333334,194.06037116491703L679.7805,192.461700274191L680.31075,192.80771704082278L680.7231666666667,193.3387893056753L681.4890833333333,194.76671960149343L682.78525,195.53673187139847L683.4333333333334,196.1667072405605L684.0814166666667,196.96371192042332L685.0240833333334,197.7740055819752L686.4380833333333,197.68010835094915L686.7915833333334,196.29463718912442L688.1466666666666,194.34893901947717L689.2071666666667,195.38101605215408L692.8010833333333,192.9104473203215L693.3313333333333,194.28093632035925L695.9236666666666,194.56329502921852L697.5733333333334,194.17236055442964L697.7500833333334,194.28194354645566L700.1067499999999,194.33069963985494L701.52075,193.12014959286125L705.3503333333333,194.17443726464268L709.9458333333333,194.96155860452103L710.2404166666666,194.48716701947544L710.4171666666666,194.09685656096832L711.242,193.77940236565541L711.949,194.22657809685086L713.3040833333333,194.382201208822L713.6575833333333,194.311759466078L714.5413333333333,193.2063356949527L714.8948333333334,190.91190857923016L715.484,192.05742872769972L716.898,192.52666220425724L717.8995833333333,192.43161306128383L719.19575,191.74497669191678L721.4345833333334,192.1536811958968L722.0826666666667,191.7039849974309L723.261,191.88151622444204L723.6734166666666,192.5243538089948L723.968,190.9201728077085L730.3309999999999,190.07813392829598L730.50775,190.2240907216597L731.3915,191.53171132067462L731.7449999999999,191.4298423324433L732.0395833333333,192.82921385823977L734.573,190.43739905806532L735.2210833333332,191.2641475712625L735.81025,192.4026380813626L736.0459166666667,191.9644905978421L736.1048333333333,188.73889145270704L737.7545000000001,187.43777696348704L738.2847499999999,188.3898349063572L739.6398333333334,189.21334082082822L739.6987499999999,187.82172444938482L740.40575,189.47155480581668L742.2321666666667,189.58163426830333L742.7624166666667,187.78169190142944L743.764,188.65051018204383L744.0585833333332,188.90945599227717L744.5888333333332,187.24699753956685L745.0601666666668,186.1871008912415L745.5315,185.8192112938891L746.5330833333333,186.6135621259987L748.3005833333333,186.79068803613845L748.88975,186.9204159061641L751.0696666666666,186.45964229839706L751.5999166666667,185.4484350944367L751.6588333333333,184.56439563323306L752.9549999999999,186.21466788855255L753.3674166666667,187.94326363141525L755.0170833333333,187.92131815509228L755.60625,189.2452586383494L755.9008333333333,189.2598073855886L756.5489166666666,188.23933284798218L757.0791666666667,188.42326273797394L757.904,187.79166031853018L760.1428333333333,188.57564946653042L760.3195833333333,189.84211181243515L762.3227499999999,190.48809969067136L762.5584166666666,190.64738253152564L763.9135,190.62984018640617L764.2669999999999,190.33178876637743L764.3848333333333,190.21958623880704L766.7415,191.0077525244531L767.095,191.68336345901085L767.2128333333333,191.0987317973347L767.8609166666666,188.3730510234029L768.1555,189.11225731708544L768.9803333333333,187.9034709697556L769.5105833333333,189.69192129986294L770.45325,186.74523673251306L771.9261666666667,186.7577772646631L773.0455833333334,185.29959172701635L773.5758333333334,185.88448484275398L774.6363333333333,184.9626551676961L776.2270833333333,183.98814679657434L777.5821666666667,185.19652626462627L777.7,186.4520251947088L777.7589166666667,186.85426992065018L781.235,187.9449724186898L781.4117500000001,189.16646577929848L781.9420000000001,189.46977701261025L784.1808333333333,188.26715109680165L787.1855833333334,189.65720909328365L790.1314166666667,190.52766717248153L790.60275,189.93110703342316L792.7237500000001,189.7917605361888L793.7253333333333,189.44557574534264L794.9036666666667,190.82773989638423L796.5533333333334,192.55377362361006L796.7300833333333,194.594873603512L797.1424999999999,190.69965625223455L797.2603333333333,190.62233869787477L798.2619166666667,191.4367464695186L798.73325,191.62490421666894L799.2635,191.716843640928L800.14725,191.91588034900346L801.0899166666668,192.9467635291517L803.3876666666667,191.57273974494728L804.0946666666666,190.3976633806159L804.8016666666667,192.30479391497525L805.4497500000001,192.21398756796438L806.2745833333333,192.84358156397303L806.3924166666666,192.2202739544047L808.5134166666667,191.08862811914273L810.6344166666667,186.17363590425722L812.2251666666667,183.98983851143015L812.5786666666667,184.44477329838435L813.1089166666667,184.05323649894441L814.8764166666666,185.6318561995456L816.2904166666666,186.35299929847383L817.3509166666666,185.1841746476529L819.2951666666667,186.5166601730639L820.8859166666666,188.30074879457064L821.6518333333332,189.59483090328462L821.7696666666667,190.9233708949333L821.8285833333333,188.65201471400977L823.0069166666667,187.91769255302944L823.3015,188.05326158695823L824.1263333333333,187.52998360930323L824.7155,188.15589914340438L825.0100833333333,189.85557895355456L825.4225,186.82405623660827L826.5419166666666,186.56499075264557L827.2489166666667,186.8296279843292L829.311,186.4212705195072L832.9638333333332,187.32854018824392L833.8475833333332,188.3197618576771L834.4956666666666,189.50781480165807L834.7313333333334,188.48453573216491L835.674,188.8046348422986L837.61825,189.3368851992957L838.1485,190.36406659853105L840.7408333333334,190.1804008469664L841.9191666666667,191.73760201752816L842.0959166666667,192.80961402745822L843.0385833333333,192.41463263107818L843.98125,192.74224996052496L848.1643333333333,193.81180743756437L848.6945833333333,194.76473191683112L850.5210000000001,194.15638825733566L851.6404166666666,195.585433889443L851.8171666666667,194.8417833931765L853.1133333333335,195.1427352555639L856.9429166666667,194.76601883171173L857.41425,192.49310131655182L858.6514999999999,192.55503806627962L859.9476666666666,192.8291710456066L861.65625,194.53847993137535L864.3664166666667,193.0822451670159L866.0160833333333,191.46098817346913L869.4921666666667,193.5506207035766L870.4348333333334,194.22555854861704L872.2612499999999,195.972302501581L872.7325833333334,196.14801178062075L873.9698333333333,194.96392128208652L875.44275,195.643821520371L875.7373333333333,197.3657543025546L876.50325,197.36235694938284L877.2691666666666,198.45812856620432L877.6226666666668,197.0743298378928L880.0971666666666,197.7509914596711L880.1560833333333,195.80913071020905L881.3344166666667,194.78092962599126L884.7515833333333,196.61857889513652L885.7531666666666,197.08488763056883L887.3439166666667,197.54436383161172L887.4028333333334,197.31586580269328L887.8741666666667,195.63317564146013L888.5811666666666,195.48405632863864L889.2881666666667,195.72479995449217L890.1719166666667,192.76673595888715L890.4075833333333,191.37070740433484L891.4091666666666,190.89675966233364L892.4696666666666,191.71990874266706L893.5301666666667,190.8069896118721L894.4139166666666,191.42372100928796L895.0030833333333,190.8391642610233L895.1798333333334,191.5684735402065L895.8868333333334,192.40304990591733L895.94575,191.89274589565957L896.1814166666667,192.47897935381405L897.8310833333333,194.09003732914914L899.3629166666666,194.38027305882085L901.3071666666666,195.11289617754446L902.1909166666666,195.02783008902964L904.3119166666667,194.38111521754644L907.4345000000001,192.49637823875176L907.6701666666667,193.16363672719703L908.8485000000001,194.05504001944908L911.7354166666667,193.01300571248558L913.4440000000001,193.95522336685238L915.9185000000001,193.0156328219998L918.9232499999999,194.16876005641348L919.8069999999999,191.79241215771424L920.2783333333334,193.8538674038911L920.6318333333334,194.77501221868857L923.5776666666667,192.9333532106805L923.7544166666668,191.87103649620207L923.9311666666666,191.1348513719258L924.6970833333334,191.4234083438607L926.2878333333333,192.57855347708974L927.7607499999999,193.26257735189853L928.1731666666666,193.79684373365257L929.4693333333333,193.68059033630928L930.7065833333332,189.56018413422692L931.4725,188.93272317191804L933.5345833333332,190.51104222266233L934.8896666666667,188.72248196973302L935.0664166666668,190.1562747078995L935.8323333333334,188.4787252164126L936.0680000000001,189.7400028474887L938.9549166666666,190.66390314042607L939.0138333333334,191.48923522917028L940.13325,191.56899050256902L940.3100000000001,191.384583133931L940.8402500000001,192.68877672796987L940.8991666666667,194.09038872251483L941.2526666666666,195.2086875984105L942.4309999999999,194.96261913824833L942.5488333333333,192.1316853601626L947.3800000000001,193.17001234884225L947.7335,194.33550073252584L952.1522499999999,195.7192038141411L953.8019166666667,196.68479386798307L955.68725,198.59069158147688L956.04075,200.11240632047853L957.3958333333334,199.3789332870951L959.5757500000001,199.93120141435818L959.6346666666666,199.93371406376963L959.9881666666666,200.7302434880511L960.5184166666667,201.46651389196896L961.5200000000001,201.71732243532253L962.227,202.16327014197458L962.5804999999999,201.26175922750426L963.7588333333333,201.54019223120565L963.9944999999999,201.6181757692295L965.4085,200.87131096481195L966.0565833333333,200.74927866633473L969.0024166666666,201.097019787302L970.4164166666666,201.45005357084008L971.7715000000001,200.60781699997798L973.8924999999999,201.01646196029284L975.3064999999999,202.43450388036314L975.4243333333333,201.98115706184066L975.48325,202.22937144052338L979.01825,202.08014053036803L979.9019999999999,202.49548024516105L980.2555000000001,197.86811163305273L982.023,197.54574048576006L982.55325,197.60957969179313L982.7889166666666,198.05622496712033L983.1424166666666,197.50843481236478L984.0850833333334,197.49005173856537L986.6184999999999,196.88891939827982L987.3255,196.5721943480587L988.56275,197.80434455936467L988.6216666666668,197.4159762261733L988.8573333333334,197.61212955581829L989.093,198.21981265308878L989.3286666666667,197.16041470519784L990.33025,197.7955596409381L990.68375,192.83878884005767L990.9194166666667,193.49296446036712L992.5101666666666,192.75223595917376L994.1009166666666,191.76554958181939L995.2203333333333,192.53055997883996L997.1056666666667,193.23870559809947L997.1645833333333,194.9355528934596L997.2235000000001,196.00320600429453L998.6375,195.9937272226465L1002.4670833333333,197.5796161869983L1003.1740833333333,197.6022057722941L1006.8858333333333,196.94771802747928L1009.3603333333333,197.6652382752998L1009.596,196.83911168143754L1012.1883333333333,196.8070338904046L1013.3077499999999,195.85122739934377L1015.4876666666667,195.8607010795717L1017.2551666666667,195.7433645661164L1017.6675833333333,196.51482558768225L1018.25675,193.46947722376208L1019.3172500000001,193.33748602150757L1020.6723333333333,193.47921137801674L1021.6739166666666,194.0231197303873L1022.0274166666668,192.2424401520568L1022.4398333333332,191.24925212706486L1025.2089166666667,192.28975268221788L1025.5035,193.10876285652984L1026.4461666666666,191.4721394497867L1026.7996666666666,191.82681383094396L1027.3888333333334,192.9692298646845L1028.4493333333335,194.35298091463952L1029.4509166666667,193.193978915834L1029.5687500000001,192.4691589383692L1031.4540833333333,193.19285303085164L1032.6324166666666,192.51303630571581L1033.2805,193.23025320874544L1036.0495833333332,193.89583697049062L1036.7565833333333,192.33397427682704L1037.4046666666668,193.62180851608773L1041.1753333333334,192.0278934271641L1043.00175,192.32455661974168L1045.1816666666666,193.525838423795L1046.5956666666666,194.58954577901582L1047.1259166666666,192.89365823811772L1047.4794166666666,194.1128912839943L1048.3631666666665,194.76517990440078L1049.36475,195.46896661221592L1050.1895833333333,196.80033126501777L1050.3663333333334,196.09200955065597L1051.48575,194.2744172623293L1052.6051666666665,193.86365157885942L1059.26275,194.46087182204727L1059.7340833333333,194.26810807948607L1060.0875833333332,194.99965455527786L1061.5015833333332,194.3972241277895L1061.5605,191.47584152112918L1063.7993333333334,193.37347791950117L1065.3900833333335,194.92459343049117L1066.0970833333333,194.7125790676778L1067.0986666666668,195.42540016256837L1067.3343333333335,196.7437442308793L1070.8104166666667,195.41135247709605L1071.5763333333334,193.68204098712093L1072.1655,193.5461640370318L1072.4011666666665,194.23961893618326L1073.8740833333334,193.67006289329197L1075.1702500000001,195.17990638903174L1079.41225,195.714387488658L1080.7084166666666,196.34733314806348L1080.9440833333333,197.48158017785764L1081.0619166666668,198.94316634085115L1081.1208333333332,198.94448374335076L1081.71,197.48007646360776L1082.8883333333333,198.50001346239807L1084.4201666666668,198.2152334887827L1086.4233333333334,198.3088067051985L1086.9535833333334,198.72911313779812L1090.2529166666666,198.94558307559987L1093.4344166666667,199.69831355467434L1094.96625,198.92033765286305L1095.2608333333333,199.38449963753894L1096.4391666666666,199.9638923018947L1099.4439166666666,199.9009385514882L1099.6795833333333,199.1598220757459L1101.5649166666667,198.48443747055168L1104.4518333333333,199.11468169716957L1105.6301666666668,197.36368717453155L1107.5155,197.48592688493736L1108.1046666666666,197.6191643016001L1108.1635833333332,198.9559845836449L1109.6364999999998,199.79178013134472L1109.9310833333334,199.9632904613543L1110.1667499999999,199.64596604076897L1110.9915833333334,198.08859184002966L1113.4660833333335,200.06568116614366L1114.939,199.26825246120245L1119.3577500000001,199.51308429108346L1123.3051666666668,199.6097059043516L1125.1315833333333,198.87028930934147L1127.13475,199.58764397733623L1127.1936666666668,198.83340963754287L1128.4898333333333,199.64006979927018L1130.7286666666666,199.93727620710604L1131.02325,201.0914173440147L1131.3178333333333,199.8319612961565L1131.907,201.27654808250458L1133.49775,199.8319549140902L1133.5566666666666,199.35289974076852L1133.9690833333334,199.50823864596555L1134.7939166666667,199.96536516801595L1135.442,200.5046484252619L1136.5025,198.52582884459946L1136.6203333333333,199.2415061495653L1137.9754166666667,198.68183104262303L1138.0343333333333,199.45993764342575L1138.09325,201.10040927597115L1138.27,201.76767661805468L1139.3894166666666,202.44801689270045L1141.4515000000001,201.96262027978298L1142.2174166666666,201.99266594700939L1142.4530833333333,202.33041871585837L1143.219,203.45124237115604L1143.2779166666667,202.71005571252476L1143.8670833333333,203.4283819404513L1144.5151666666666,203.0321818868765L1145.1043333333332,203.17548751977895L1145.5756666666666,202.48618003706986L1146.1648333333333,201.8917653055577L1149.05175,202.28206812903127L1149.5230833333333,204.12234003029135L1149.75875,202.80992385680614L1151.4084166666667,201.4843886481614L1152.23325,201.43393400030226L1152.58675,201.650494566009L1153.4115833333333,200.5790698495531L1153.5294166666667,201.03745697059455L1153.9418333333333,200.29578519522858L1154.1775,200.90822932207467L1154.3542499999999,200.80622577282614L1154.4131666666667,199.04093842318653L1154.6488333333334,197.48651966518662L1156.12175,196.95949407704515L1156.7109166666667,195.07163282827614L1156.9465833333334,195.9549305741266L1157.88925,195.29595065438696L1158.7140833333333,195.3791439105111L1160.8350833333334,195.70493536381005L1160.894,197.02846923919634L1161.3064166666666,197.25280892431834L1161.9545,194.57285977964298L1163.722,193.0131948115579L1164.8414166666666,192.39543993967985L1164.9003333333333,190.96065977433108L1165.1949166666666,192.50852689745125L1166.7856666666667,193.72444838137434L1167.8461666666667,194.00556569635785L1169.0245,194.64619832021958L1175.56425,195.43160637660893L1176.0945,195.77146363515308L1177.0371666666667,196.96217622152642L1177.2139166666666,196.12267991075694L1177.7441666666666,197.47138325498256L1179.3938333333333,198.02619735777247L1181.397,198.21370400580173L1181.4559166666666,199.05004902606228L1181.9861666666666,198.9503322987951L1182.1629166666667,198.84919972606704L1184.4606666666666,199.8077581000106L1185.3444166666666,196.94842341493845L1185.9335833333332,198.65098983422908L1186.8173333333334,199.28397123638436L1186.9351666666666,199.1171194326872L1187.4065,199.3228770956671L1188.3491666666666,192.0968932622828L1188.4080833333333,192.7018582089731L1189.5275000000001,193.04811251899616L1190.9415000000001,192.87809873535787L1192.2376666666667,193.36545661523505L1193.8873333333333,194.11380582617667L1194.5943333333332,192.37540977546598L1197.0688333333333,190.7456029222088L1197.2455833333333,189.62267453234557L1199.6611666666668,188.04520435919602L1200.1325,188.86151969432092L1204.90475,183.66045298500225L1204.9636666666665,184.85456290434712L1210.0894166666667,185.23299063437534L1210.56075,184.95975899784153L1213.1530833333334,184.89613428086375L1213.212,185.92869730415148L1216.21675,187.4578160883697L1216.747,189.06046173224104L1219.75175,187.02373250598905L1220.3409166666668,186.84164161414176L1220.7533333333333,184.24666576075995L1221.0479166666667,185.9020927453264L1222.4619166666666,185.44532253174467L1224.6418333333334,187.60392444955818L1225.6434166666666,186.85260180657028L1228.1179166666666,189.0050363379571L1230.9459166666666,188.39103705047853L1231.06375,189.63419250512362L1233.3025833333334,191.1502946182037L1234.7755,191.62829072050914L1234.95225,191.98322409855936L1235.8949166666666,193.5722175760828L1236.1895,194.33572343572158L1236.4840833333333,194.03546252199789L1237.5445833333333,194.77526954923425L1237.8391666666666,194.718718960131L1238.13375,191.62539902685202L1238.84075,193.19704296140458L1240.078,193.73792021290737L1242.8470833333333,194.74652712298897L1243.6129999999998,192.95461914336857L1244.0843333333335,194.49346476223337L1246.26425,194.75326434773777L1247.2069166666665,194.75680113519144L1249.2100833333334,196.61122425061996L1249.8581666666666,197.50230633665802L1250.6240833333334,197.4944496781368L1252.804,197.82940204248777L1253.2164166666666,197.9594962932941L1253.4520833333333,198.3522034972844L1254.925,199.03340017252788L1256.4568333333332,195.95093982923248L1258.8135,196.5785839668127L1261.2290833333334,195.58487039328523L1261.288,196.20016962284683L1261.4058333333332,195.98823453542443L1261.7004166666668,197.08935325209126L1264.64625,198.42893953373937L1265.8245833333333,199.41135344879234L1266.7083333333335,199.08657699046455L1266.8850833333333,200.6758728879059L1267.0029166666666,201.05011988692826L1268.1812499999999,201.0075017245964L1268.53475,200.11669555742495L1269.8898333333334,195.5876172260853L1271.36275,195.18267227479356L1271.4805833333335,194.7817847486665L1272.2465,194.2358088951383L1273.48375,195.51755666119328L1274.6031666666665,196.51386242680297L1274.9566666666667,197.50103509867563L1275.7815,197.2410559017849L1276.4295833333333,197.5167128946946L1276.9598333333333,196.34229246919003L1277.01875,196.33726261725965" style="fill: none;" fill="none"></path></g></g></g></g><g opacity="0.2"><g><g><g><path stroke="rgb(0, 119, 187)" stroke-width="2px" d="M118.89383333333333,156.2667696866122L120.30783333333333,153.46368671764026L120.48458333333333,142.8532533125444L122.01641666666667,172.01638516512784L123.3715,190.55056103793058L126.96541666666667,133.148210698908L127.14216666666667,192.56659844138406L127.67241666666668,192.56452726884322L131.32525,196.908837890625L131.61983333333333,171.65298614501953L132.85708333333335,176.30444641113283L133.56408333333334,198.5974202936346L133.91758333333334,203.16089505282315L135.97966666666667,196.26940924904562L136.0975,192.03543444546787L136.56883333333332,225.6529767816717L138.27741666666665,198.33270346901634L139.45575,201.29706261374733L142.63725000000002,191.90298427234998L144.935,169.87748003872957L145.75983333333332,170.94201028997247L149.41266666666667,179.07035314386542L151.00341666666665,199.1820546236905L151.94608333333335,181.4814077203924L152.3585,147.17679977416992L152.41741666666667,139.21706085205076L154.36166666666665,184.60252054387874L155.1865,211.6370638067072L155.95241666666666,203.70781569047406L156.77725,187.74177579012783L157.36641666666665,215.3933973832564L159.89983333333333,175.82535011985087L160.37116666666665,191.50642027421432L160.8425,170.43383893099698L162.90458333333333,163.96593412919478L163.14025,169.52209042635832L163.25808333333333,190.84074804132635L164.08291666666668,198.8894031871449L164.20075,215.74720084450462L164.61316666666667,183.8947432084517L165.08450000000002,154.22603551691228L165.43800000000002,198.09054669466886L167.08766666666668,139.64782541448417L173.50958333333332,208.1721101240678L175.04141666666666,167.06246816461737L175.10033333333334,220.2520797729492L175.45383333333334,141.36616453690962L175.80733333333333,197.03444532914594L176.86783333333332,171.90226093639026L177.04458333333335,195.46596471613103L177.57483333333332,202.4943052118475L180.46175,117.61737920587711L180.6385,204.24244037974964L181.34550000000002,190.02473227761007L182.22924999999998,193.0748222351074L182.58274999999998,201.60076467340642L182.87733333333333,183.4025382302024L185.941,156.86051455411044L186.23558333333335,175.0418176824396L186.2945,183.31172124689274L187.35500000000002,219.31108578768644L188.12091666666666,213.91017567027697L191.12566666666666,199.33567532626066L192.12725,215.06949483698065L195.36766666666665,194.7964647466486L195.54441666666668,211.05725347345526L196.36925,186.40518784956498L196.60491666666667,215.24526922052556L199.43291666666667,193.30836660211736L199.84533333333334,212.96370225386187L201.14149999999998,183.56869083751334L201.84849999999997,165.88945042003286L202.43766666666667,219.1968304720792L204.20516666666666,195.47461644952946L204.85325,192.8973961570046L205.67808333333332,196.9697932850231L207.56341666666665,156.7483173023571L209.272,155.04808127663352L210.21466666666666,171.77143624045632L211.15733333333336,190.8759579745206L211.393,174.56799108331856L212.39458333333334,190.79579835371538L214.45666666666668,147.76464573253284L216.93116666666668,194.5036428971724L217.46141666666665,204.23052458329633L218.1095,150.78999959772284L218.52191666666667,191.38114055286755L219.05216666666666,210.82068099975587L219.877,182.72535657015715L219.99483333333333,199.00979336825284L220.17158333333333,200.87045350508257L222.76391666666666,188.39385431463066L225.4151666666667,207.3066090670499L226.47566666666668,197.5257458079945L227.00591666666668,149.4861833745783L227.77183333333332,139.63861000754616L227.94858333333335,183.6072172685103L228.41991666666667,195.7228556546298L230.77658333333335,201.1184043190696L231.77816666666666,214.88232900446113L232.36733333333333,195.93437742753463L232.54408333333336,216.5009372364391L235.7255833333333,197.45554878928445L236.43258333333333,214.98700186989524L237.78766666666667,198.3374488136985L239.96758333333332,150.79960826526988L240.14433333333335,143.0284378051758L240.20325,197.21674783880061L240.67458333333332,201.9042307767001L240.91025,212.5622880415483L241.32266666666666,201.89057152488016L244.44525,201.80894373113458L244.85766666666666,196.54787708629263L246.68408333333332,223.8317475752397L246.91975,201.42778244018555L247.3910833333333,216.6233199379661L247.8624166666667,194.9231864235618L248.09808333333334,134.55629341819068L249.27641666666668,192.30286476828834L249.571,193.7611537586559L249.62991666666667,201.525900962136L250.80825000000002,201.0680145263672L251.10283333333334,193.7876726323908L252.22225,192.8316429831765L253.16491666666664,183.5521607832475L253.75408333333334,201.02147868763316L254.46108333333333,194.80489363236862L255.99291666666664,193.35710470026189L256.52316666666667,170.08693063909357L258.58525000000003,166.96938337846234L258.64416666666665,205.62503981156783L258.762,208.12772410999645L261.35433333333333,207.34398193359377L261.8256666666667,178.2240300958807L262.35591666666664,180.51964957497339L262.47375,183.03674032037907L262.7683333333333,203.16642691872337L264.24125000000004,172.15164059725677L264.30016666666666,186.65982409390537L264.8893333333333,170.95046539306642L265.0071666666667,205.93979249434037L265.30174999999997,196.35617564808237L266.1265833333333,185.74055120294744L266.48008333333337,211.84946386163884L267.01033333333334,191.2156040538441L267.89408333333336,215.2373122475364L268.24758333333335,205.13672811334783L271.3701666666667,190.12509238503196L276.02458333333334,203.2789649963379L277.08508333333333,161.13744652488015L279.265,197.62129502729937L280.08983333333333,221.7958898370916L282.1519166666667,207.77984577525746L287.04200000000003,206.54433891989967L288.45599999999996,185.15433072176847L292.6390833333333,194.56274996670808L293.1104166666667,198.58035278320312L295.23141666666663,222.7079136241566L296.35083333333336,158.9190896467729L296.82216666666665,186.8831699024547L296.9989166666667,189.25661565607246L300.41608333333335,169.21477036909621L304.06891666666667,207.4926999872381L305.01158333333336,179.34209622469814L306.07208333333335,221.8182925831188L306.131,214.54138516512785L308.13416666666666,217.00243627374823L308.7233333333333,205.58707705411044L308.9000833333333,211.41050636985085L308.959,197.72510271939365L309.0768333333333,214.00830730091442L309.13575000000003,202.69438310102984L310.6086666666667,203.35011894919657L312.55291666666665,158.73145190152255L314.90958333333333,205.15822635997424L316.736,209.56313844160601L318.32675,194.2448905251243L318.6213333333333,201.78806159279563L319.9175,160.36575123180043L321.0369166666667,183.33371762362393L321.92066666666665,145.40523938265713L322.86333333333334,186.88415305397726L324.57191666666665,216.06309398304333L324.7486666666667,219.14469722401012L326.22158333333334,200.42596414739435L329.93333333333334,156.47981206720524L330.9938333333333,195.65499198219993L331.1116666666667,183.08931926380504L331.22950000000003,205.42678402987394L331.58299999999997,208.18757837468928L333.23266666666666,212.6733448375355L334.0575,178.32711681019177L337.3568333333333,209.2339137684215L337.5925,186.33651143854317L338.24058333333335,193.5341244090687L341.30425,203.7075272993608L342.5415,203.6655139576305L342.8360833333333,207.5310953313654L342.95391666666666,216.33495504205877L343.54308333333336,180.33219535134057L345.48733333333337,201.370222195712L346.1943333333333,188.25001269253815L349.258,185.94557106711648L350.90766666666667,214.30575651689009L352.5573333333333,207.433750221946L354.7961666666667,218.6132579456676L355.44425,192.75984670465644L355.621,150.54151132757013L358.97925000000004,196.2930835377086L359.2738333333333,214.50587373213335L359.9219166666667,179.6049253983931L364.2228333333333,195.54234903508967L364.9298333333333,176.7536680048162L365.04766666666666,156.5157954129306L365.34225000000004,206.2943562594327L365.4011666666667,209.03138455477628L366.8740833333334,166.29647515036842L367.16866666666664,186.5471418207342L367.3454166666666,194.42883162064985L367.81675,184.06600820367987L368.99508333333335,184.9156608581543L369.1718333333333,210.1366828224876L370.11449999999996,195.09826604669743L371.41066666666666,205.6166240345348L372.1765833333333,180.98333005038174L372.2944166666666,208.64492735429243L375.24025000000006,223.00846959894355L376.65424999999993,210.45494863336737L377.06666666666666,205.55888026844372L377.4201666666667,198.6936773820357L378.8341666666667,203.72071463844992L379.0109166666667,213.82625385631215L382.487,202.2618619745428L383.48858333333334,197.48576431274412L384.72583333333336,187.33781849254262L387.55383333333333,200.19943292791194L387.73058333333336,190.07061268199575L388.67325,189.9985673384233L390.49966666666666,204.085411418568L392.1493333333333,214.73534129749643L392.6206666666667,149.90165009932085L392.85633333333334,202.0009335604581L393.3276666666667,191.0068088878285L395.50758333333334,192.9923817027699L395.80216666666666,209.86920006491923L397.6875,139.59211349487305L398.15883333333335,201.75985169844193L398.6890833333333,154.97126437100496L399.92633333333333,217.00157110040837L400.6333333333333,180.4824077952992L400.7511666666666,196.95284375277433L402.98999999999995,224.8943115234375L403.69699999999995,173.78098484386098L406.1715,190.77125889171253L410.17783333333335,172.7506289395419L410.7080833333333,202.75255945379084L410.88483333333335,205.46493030894888L415.3625,205.28004538796165L415.48033333333336,208.14481783780184L415.53925,207.6511446866122L418.6618333333333,183.19316628196023L420.3115,201.5895436373624L424.2,203.13731252496893L426.49774999999994,211.84690766768023L429.4435833333334,203.5681295221502L431.80025,181.8544809514826L432.74291666666664,181.8681664206765L433.56775,200.25114669799805L437.16166666666663,205.68433040272106L438.4578333333333,173.0031677939675L441.5804166666667,188.51125571511008L442.75874999999996,142.1877121665261L442.8765833333333,139.37399805242364L444.76191666666665,144.66004985462533L446.17591666666664,195.71862154873935L447.00075,192.41801147460936L449.5341666666667,172.81006372625177L451.1838333333333,206.3455063559792L451.3016666666667,220.6596681768244L451.5373333333334,150.59052470814098L452.42108333333334,174.33508904197L454.83666666666664,173.866846743497L455.0134166666666,165.62098451094195L458.136,193.23237554376774L459.9624166666666,193.8967631253329L460.0213333333333,160.47585109363902L461.0229166666667,208.50897716175425L461.19966666666664,196.43410679210317L463.20283333333333,208.44305357499556L463.3206666666667,163.31818147139117L463.73308333333335,227.56469525423918L465.85408333333334,139.26718847101384L467.0913333333333,169.8830512306907L468.5053333333333,137.85327238603074L468.79991666666666,227.6146786776456L469.15341666666666,183.49488892988725L470.74416666666673,205.5612136147239L471.9225,212.38275146484375L472.2170833333334,202.07356879494407L473.10083333333336,198.48936538696287L473.3954166666667,202.9608958157626L475.92883333333333,167.0026270086115L477.40175,175.17357309514827L477.51958333333334,136.28547342473811L478.46225,176.14073201959783L479.0514166666666,207.54415158358486L481.99724999999995,131.21289658979936L483.1166666666667,216.2132539922541L483.88258333333334,219.44472885131836L484.2360833333333,221.90903091430664L485.00200000000007,160.0823283108798L488.36025,185.62565356167877L489.7153333333333,191.58842821988193L490.0099166666667,194.11570441506126L491.4239166666667,193.69736688787287L492.07199999999995,189.71733356822622L492.7200833333333,170.9810348510742L493.486,200.88156967163084L494.9,190.67139691439542L500.4970833333333,217.12019160877574L500.556,203.34483614834872L500.7916666666667,188.68266490589488L501.96999999999997,214.33831849531694L502.02891666666665,197.34343018965288L505.1515,189.48019742098722L505.7406666666667,201.94954750754616L506.8600833333333,211.44928186590022L510.04158333333334,181.87541552456943L510.5718333333333,171.95642603093927L510.92533333333336,190.50635854547673L511.2788333333333,186.99843458695844L511.4555833333334,191.50727233886718L511.868,136.09227759621362L512.3393333333333,196.02733112681997L512.5160833333333,187.58044717962093L513.2230833333333,198.91915990656074L514.8138333333333,166.19214311079546L515.0495000000001,216.18891116055576L515.6975833333333,226.7861572265625L520.352,162.7123372858221L521.1768333333333,207.45207616632635L521.6481666666667,175.17688959295097L522.5319166666667,177.4234563654119L526.3615000000001,143.86262220902879L528.0700833333333,193.47295927567916L528.2468333333334,210.9122713955966L529.7786666666666,226.0443890658292L531.0748333333333,183.9317752491344L535.6114166666667,177.17453550858932L536.4951666666667,200.41286856911398L536.9665,174.80226953679866L538.3215833333333,177.2547344554554L539.3820833333333,184.8837280967019L541.73875,218.24617538452148L542.976,224.99447500055487L544.8024166666667,191.35369096235794L547.9250000000001,208.52431432550603L548.5730833333333,183.87952402288263L549.6335833333333,222.24458708329635L550.22275,198.0191961115057L550.2816666666666,164.99486118663444L551.4010833333333,184.94962546608664L552.7561666666667,218.48856811523436L553.8755833333333,209.91116097190164L556.1733333333333,167.4541164051403L556.3500833333334,179.95254155939276L556.7624999999999,218.19132863825018L557.3516666666667,190.4097999572754L557.5284166666667,187.2348366477273L558.4121666666667,115.6313344782049L560.3564166666666,167.1311314669522L561.4758333333333,190.14222543889827L566.1302499999999,188.83286424116656L568.1923333333333,177.3542424982244L569.1939166666667,197.38997913707388L570.0776666666667,192.33007840243252L570.7257500000001,197.00936841097746L571.07925,199.07937427867543L572.5521666666666,186.07315791736949L572.84675,163.40691417347298L573.1413333333334,186.41787705854938L574.2018333333334,196.6502034967596L574.8499166666667,179.99755679043858L575.0266666666666,201.3504411870783L576.2049999999999,209.43435870083894L576.6763333333333,204.65974232066762L577.2655,161.080122236772L579.3275833333333,216.07084121704102L579.6221666666667,190.89441500577058L583.2160833333334,141.0887978293679L583.275,197.33220915360883L585.1603333333334,218.63218688964844L588.1650833333333,183.91422271728516L588.6364166666667,193.6811514420943L590.6985,218.53168258666992L591.3465833333333,171.88757920698686L592.0535833333333,148.98729296597568L593.0551666666667,202.8803691517223L596.5901666666666,201.29213374744762L599.7716666666666,183.89012895063922L600.0073333333333,208.71517680775034L600.8321666666667,151.23444962935014L601.83375,222.64573912187055L602.18725,163.57875595092773L604.66175,202.92708851207388L605.6044166666667,189.00814049460672L606.2525,226.65805913751777L607.2540833333334,195.37458405928177L608.4324166666667,174.47494562322444L608.727,176.132643959739L608.8448333333333,200.41960643421518L609.1983333333334,200.2297008861195L610.3766666666667,164.8499708695845L610.5534166666667,200.3090608770197L610.848,218.3375691500577L611.37825,194.81153973666105L616.68075,180.31324018998578L616.7396666666666,215.14757017655805L616.8575000000001,197.57439214533025L618.5071666666666,209.63053020130505L618.80175,193.33672069202768L619.0963333333334,171.47090648304334L622.5134999999999,194.28137200095438L624.0453333333334,230.71717716563833L624.5755833333333,210.85254821777343L626.5198333333333,203.39145063920455L626.57875,211.38896879716353L627.109,178.65723287409003L629.3478333333334,203.20916123823687L629.8191666666667,203.23780371926048L630.11375,181.8517936706543L631.9990833333334,117.36506319912996L634.7681666666667,209.4281320745295L635.0038333333333,200.4527451948686L636.3589166666667,199.19204344315963L637.4194166666666,214.10521982366387L637.5961666666667,195.51470281427558L638.8334166666666,195.85887139060281L639.4815,182.19901657104492L640.8955,184.52957070090554L641.3079166666666,198.41687434803356L642.3095,222.01424123590644L642.4273333333333,183.19878990866923L642.6040833333334,194.81751729791816L643.8413333333333,190.0704291603782L644.25375,177.40469783436166L644.9018333333333,166.74886904629795L645.6088333333333,209.7425701488148L646.6104166666667,194.0035858154297L647.6709166666667,223.7158667824485L648.0244166666666,220.07158626209608L648.6135833333333,178.42598252729934L649.7330000000001,176.70751231800423L651.32375,213.15869397250088L651.7950833333334,206.9644592285156L653.0323333333333,205.21876227638938L657.2154166666667,209.849222425981L660.8093333333334,197.12041209827768L661.3985,174.44701101129704L661.8109166666667,207.00336581143466L663.4016666666666,211.09373494928533L664.6389166666667,177.97556804310193L666.17075,205.66616176258432L666.7009999999999,195.03057278719817L668.5863333333333,196.43709557273172L669.8235833333333,175.5317810752175L672.357,211.87111941250888L672.53375,170.55116167935458L673.7120833333333,184.61257490678267L674.1245,174.46781449751418L675.6563333333334,207.05030801946467L679.7805,163.31670018976385L680.31075,199.11586886319247L680.7231666666667,203.02064521095969L681.4890833333333,220.79898730191317L682.78525,209.57464786876332L683.4333333333334,207.651642816717L684.0814166666667,211.49372031471947L685.0240833333334,212.54628233476117L686.4380833333333,195.9682896007191L686.7915833333334,171.03643216219814L688.1466666666666,158.87736469615592L689.2071666666667,214.1965742631392L692.8010833333333,147.8700789018111L693.3313333333333,219.26600501320578L695.9236666666666,199.71091149070045L697.5733333333334,187.04532436024058L697.7500833333334,196.27972578568892L700.1067499999999,195.21956072720613L701.52075,171.05089104392312L705.3503333333333,213.39491251165217L709.9458333333333,209.31138610839844L710.2404166666666,185.83864350752398L710.4171666666666,186.98119666359642L711.242,187.9919681895863L711.949,202.37893565784802L713.3040833333333,197.21933025013317L713.6575833333333,193.02755230990323L714.5413333333333,173.05361002141777L714.8948333333334,149.0827373157848L715.484,212.94114220359108L716.898,201.08114943070845L717.8995833333333,190.69879407015713L719.19575,179.22706749655984L721.4345833333334,199.60467869151722L722.0826666666667,183.50567737926136L723.261,195.11804705533115L723.6734166666666,204.24377746582033L723.968,161.67471916892313L730.3309999999999,174.72711743441494L730.50775,192.88499533913352L731.3915,215.3706407026811L731.7449999999999,189.57269231622868L732.0395833333333,218.34083321311257L734.573,146.83277539339932L735.2210833333332,206.3364089272239L735.81025,213.1581958423961L736.0459166666667,183.9767249367454L736.1048333333333,129.93373780684036L737.7545000000001,163.71745896772904L738.2847499999999,205.7465835571289L739.6398333333334,204.2264871077104L739.6987499999999,162.4514875238592L740.40575,219.54923130382193L742.2321666666667,191.58846754594282L742.7624166666667,154.96735798228872L743.764,204.4897357593883L744.0585833333332,193.63023730191318L744.5888333333332,156.93910113247958L745.0601666666668,166.86436968716706L745.5315,179.11230094216089L746.5330833333333,201.09518883445045L748.3005833333333,190.0198296286843L748.88975,189.28545476740058L751.0696666666666,178.059384987571L751.5999166666667,167.0133499145508L751.6588333333333,168.44767622514203L752.9549999999999,216.30040054321287L753.3674166666667,219.45689371282404L755.0170833333333,187.52123524058948L755.60625,213.38171206387605L755.9008333333333,189.52504223910245L756.5489166666666,169.63529704700818L757.0791666666667,191.77644611705435L757.904,176.27706236405808L760.1428333333333,202.8683747031472L760.3195833333333,212.93069458007812L762.3227499999999,202.26495562466707L762.5584166666666,193.55123124556107L763.9135,190.31002974076705L764.2669999999999,184.8980821089311L764.3848333333333,188.1740478515625L766.7415,205.37663019353693L767.095,204.00027049671522L767.2128333333333,180.44044688831676L767.8609166666666,138.68179383711382L768.1555,202.58855667114258L768.9803333333333,165.8663660222834L769.5105833333333,222.29674654873935L770.45325,133.0249103892933L771.9261666666667,186.98640081232244L773.0455833333334,158.7157476945357L773.5758333333334,196.54753626043146L774.6363333333333,168.15699109164152L776.2270833333333,166.22210956920276L777.5821666666667,207.22621348987926L777.7,209.34073645851828L777.7589166666667,194.1875006935813L781.235,207.82931795987216L781.4117500000001,211.43522935347124L781.9420000000001,194.99937411221592L784.1808333333333,166.3423555547541L787.1855833333334,214.99903564453123L790.1314166666667,206.39678753939543L790.60275,179.0553568059748L792.7237500000001,187.25136670199308L793.7253333333333,183.13436071222478L794.9036666666667,216.02565557306463L796.5533333333334,224.0206961891868L796.7300833333333,231.80569631403142L797.1424999999999,119.68684761740946L797.2603333333333,189.2127802068537L798.2619166666667,206.28402661410246L798.73325,195.05516468394885L799.2635,193.3929700678045L800.14725,195.54447264237837L801.0899166666668,211.74055689031428L803.3876666666667,166.5232292175293L804.0946666666666,168.97511735395952L804.8016666666667,227.07325057983397L805.4497500000001,190.55851801091976L806.2745833333333,204.32156441428444L806.3924166666666,180.85689676458185L808.5134166666667,170.45785404552112L810.6344166666667,96.56954706365411L812.2251666666667,144.17753219604492L812.5786666666667,192.73858441439543L813.1089166666667,176.9152194630016L814.8764166666666,214.41130766435103L816.2904166666666,199.4999927173961L817.3509166666666,163.8756021673029L819.2951666666667,210.8088962901722L820.8859166666666,220.82605674050072L821.6518333333332,213.1869431929155L821.7696666666667,215.14367689652877L821.8285833333333,147.2434443387118L823.0069166666667,174.53043469515714L823.3015,190.5247893593528L824.1263333333333,177.9902235551314L824.7155,199.56682080355557L825.0100833333333,220.84204933860084L825.4225,131.5570651661266L826.5419166666666,181.84202769886363L827.2489166666667,191.65416828502308L829.311,178.97659981467507L832.9638333333332,203.86876414905893L833.8475833333332,206.3904953696511L834.4956666666666,211.1669338573109L834.7313333333334,169.8293711575595L835.674,194.64028785011985L837.61825,199.040218630704L838.1485,209.09037364612928L840.7408333333334,186.83203291459517L841.9191666666667,220.126577203924L842.0959166666667,212.35321759310636L843.0385833333333,185.21381794322622L843.98125,198.71496588967062L848.1643333333333,213.31066298051314L848.6945833333333,212.13727819269354L850.5210000000001,183.0658153880726L851.6404166666666,221.63803502863104L851.8171666666667,181.28446280739524L853.1133333333335,200.62931920831855L856.9429166666667,187.898188643022L857.41425,151.05606661709874L858.6514999999999,193.6841926574707L859.9476666666666,197.82682613026012L861.65625,225.70049577192827L864.3664166666667,166.53396523215554L866.0160833333333,161.90422606034713L869.4921666666667,231.64622913707385L870.4348333333334,206.53019464666193L872.2612499999999,227.81678841330788L872.7325833333334,199.35132709849964L873.9698333333333,173.3770406549627L875.44275,208.03892586447975L875.7373333333333,228.75791348544035L876.50325,197.30042058771306L877.2691666666666,218.43488804210315L877.6226666666668,171.84661456021396L880.0971666666666,210.08705333362926L880.1560833333333,160.40751550847835L881.3344166666667,176.03603293678978L884.7515833333333,230.1203386480158L885.7531666666666,205.586054576527L887.3439166666667,205.92096841985528L887.4028333333334,193.15017096779562L887.8741666666667,164.95643962513316L888.5811666666666,192.76549654873935L889.2881666666667,200.11374144120649L890.1719166666667,138.83895388516513L890.4075833333333,165.92003298672762L891.4091666666666,182.25632775046608L892.4696666666666,206.72654966874555L893.5301666666667,174.16377161199398L894.4139166666666,202.66720879294655L895.0030833333333,180.1822450811213L895.1798333333334,204.8643427068537L895.8868333333334,207.61801903464578L895.94575,182.5895112471147L896.1814166666667,203.16646624478426L897.8310833333333,223.46086349487305L899.3629166666666,199.6714936689897L901.3071666666666,208.46917918812144L902.1909166666666,193.47700985995206L904.3119166666667,182.591005637429L907.4345000000001,158.13617331764917L907.6701666666667,205.32827224731446L908.8485000000001,210.30600773204455L911.7354166666667,174.01591873168945L913.4440000000001,211.13257598876953L915.9185000000001,175.88617442737927L918.9232499999999,215.19115656072444L919.8069999999999,148.4697620045055L920.2783333333334,231.43578227650036L920.6318333333334,211.56819076538088L923.5776666666667,159.3584928339178L923.7544166666668,172.50418562455613L923.9311666666666,177.71363026012077L924.6970833333334,196.6840239091353L926.2878333333333,213.637737829035L927.7607499999999,205.7328587618741L928.1731666666666,203.53693084716795L929.4693333333333,191.5612014770508L930.7065833333332,114.44200952703301L931.4725,177.49362716674804L933.5345833333332,219.2850126093084L934.8896666666667,156.11565274325287L935.0664166666668,216.2954192421653L935.8323333333334,157.89570756392047L936.0680000000001,212.7340642755682L938.9549166666666,207.50731617320668L939.0138333333334,206.53567407781426L940.13325,193.0229904868386L940.3100000000001,188.0226949518377L940.8402500000001,216.4652291731401L940.8991666666667,219.64285354614256L941.2526666666666,215.5961363358931L942.4309999999999,190.4766018260609L942.5488333333333,140.52158494429156L947.3800000000001,212.09951206554067L947.7335,215.58325049660422L952.1522499999999,220.94517537897283L953.8019166666667,214.28824331110175L955.68725,233.33667297363283L956.04075,227.85443656227804L957.3958333333334,186.007155678489L959.5757500000001,209.99947419600053L959.6346666666666,199.97952159534802L959.9881666666666,215.2515876076438L960.5184166666667,214.88928971724076L961.5200000000001,206.28975511030717L962.227,210.29323987093838L962.5804999999999,184.82652178677645L963.7588333333333,206.61624006791547L963.9944999999999,203.03987565474077L965.4085,187.25539106889207L966.0565833333333,198.52453599409623L969.0024166666666,207.4366079157049L970.4164166666666,207.88613100918857L971.7715000000001,185.25319643887607L973.8924999999999,208.46637392911043L975.3064999999999,228.28649888472123L975.4243333333333,193.7162958318537L975.48325,206.75451049804687L979.01825,199.35954624522816L979.9019999999999,210.06744273792614L980.2555000000001,113.50762232000176L982.023,191.66866649280897L982.55325,198.77341752485796L982.7889166666666,206.19891190962358L983.1424166666666,187.5217989141291L984.0850833333334,197.15491416237572L986.6184999999999,185.92981442538175L987.3255,190.79805304787376L988.56275,220.26739071932707L988.6216666666668,190.33572276722302L988.8573333333334,201.18815564242277L989.093,209.29834296486595L989.3286666666667,177.8467751936479L990.33025,209.37474039251154L990.68375,102.47304423939096L990.9194166666667,205.4190892306241L992.5101666666666,179.24818559126422L994.1009166666666,173.77749793312765L995.2203333333333,206.47728798606178L997.1056666666667,206.14874496459962L997.1645833333333,225.87038435502487L997.2235000000001,215.4673434864391L998.6375,195.8209217418324L1002.4670833333333,226.49159192171965L1003.1740833333333,198.01403128884056L1006.8858333333333,185.01590298739347L1009.3603333333333,210.7461843317205L1009.596,181.77818839333273L1012.1883333333333,196.22223108465022L1013.3077499999999,178.42613983154297L1015.4876666666667,196.0334135575728L1017.2551666666667,193.60422966696999L1017.6675833333333,210.57915344238282L1018.25675,137.95043397383256L1019.3172500000001,190.93118487271394L1020.6723333333333,196.06297364668413L1021.6739166666666,203.93898738514295L1022.0274166666668,159.7792816855691L1022.4398333333332,173.1426704406738L1025.2089166666667,211.25887818769976L1025.5035,208.0399483420632L1026.4461666666666,161.6352358037775L1026.7996666666666,198.2928006258878L1027.3888333333334,213.79635294133968L1028.4493333333335,219.57982697920366L1029.4509166666667,172.06448093761097L1029.5687500000001,179.25513319535688L1031.4540833333333,206.38635302456942L1032.6324166666666,180.11945447054777L1033.2805,206.3056690562855L1036.0495833333332,206.0299409346147L1036.7565833333333,163.86001593849878L1037.4046666666668,217.10001733953303L1041.1753333333334,162.96959526755595L1043.00175,197.73295482288708L1045.1816666666666,215.42612977461383L1046.5956666666666,213.9817491011186L1047.1259166666666,161.97632383866744L1047.4794166666666,216.34044758189808L1048.3631666666665,206.65690321488813L1049.36475,208.29953967007722L1050.1895833333333,221.0721330122514L1050.3663333333334,183.17875983498314L1051.48575,161.13831169822L1052.6051666666665,186.37507719560105L1059.26275,205.34865625554866L1059.7340833333333,190.75387677279386L1060.0875833333332,208.33630953702058L1061.5015833333332,183.4144540266557L1061.5605,138.21678938432171L1063.7993333333334,227.9688491821289L1065.3900833333335,223.20262236161665L1066.0970833333333,190.84739414561878L1067.0986666666668,208.42067704634232L1067.3343333333335,220.77817070700905L1070.8104166666667,171.12082588889382L1071.5763333333334,162.15536228526722L1072.1655,191.06902271617543L1072.4011666666665,206.88183517456056L1073.8740833333334,183.28661811135032L1075.1702500000001,222.70551473444158L1079.41225,205.45838907415217L1080.7084166666666,207.88641940030183L1080.9440833333333,218.15977602871982L1081.0619166666668,225.58900638927113L1081.1208333333332,198.96850100430575L1081.71,170.78280528675427L1082.8883333333333,217.0942495172674L1084.4201666666668,193.02347550825638L1086.4233333333334,200.01471841985528L1086.9535833333334,206.3916227167303L1090.2529166666666,202.89199655706233L1093.4344166666667,213.42116921164774L1094.96625,184.73723851984198L1095.2608333333333,207.84652966586026L1096.4391666666666,210.52666625976562L1099.4439166666666,198.75324325561522L1099.6795833333333,185.6486986333674L1101.5649166666667,186.17165659124203L1104.4518333333333,210.60451875166459L1105.6301666666668,165.44171010797675L1107.5155,199.71445083618164L1108.1046666666666,200.0481848976829L1108.1635833333332,223.32724664861504L1109.6364999999998,215.02897588556462L1109.9310833333334,203.0900557084517L1110.1667499999999,193.8608977577903L1110.9915833333334,169.69646218039773L1113.4660833333335,236.10954041914508L1114.939,184.73051376342775L1119.3577500000001,203.97655688199129L1123.3051666666668,201.3711922385476L1125.1315833333333,185.39015600031072L1127.13475,212.6655713861639L1127.1936666666668,185.08313744284888L1128.4898333333333,214.34610505537555L1130.7286666666666,205.3555776422674L1131.02325,222.1322980707342L1131.3178333333333,176.87110873135654L1131.907,227.61247641823508L1133.49775,173.49591022838248L1133.5566666666666,190.6193554271351L1133.9690833333334,202.3401863791726L1134.7939166666667,208.29913330078125L1135.442,210.33619703813034L1136.5025,162.45042572021484L1136.6203333333333,212.28885394009677L1137.9754166666667,188.47852332375268L1138.0343333333333,213.64541951959782L1138.09325,231.00746903852982L1138.27,213.9324735468084L1139.3894166666666,214.85114343816585L1141.4515000000001,193.11346664428712L1142.2174166666666,202.54042157259855L1142.4530833333333,208.48791150179775L1143.219,223.8847197792747L1143.2779166666667,189.1976527820934L1143.8670833333333,216.52402163418856L1144.5151666666666,195.8091501409357L1145.1043333333332,205.78805944269354L1145.5756666666666,189.91957439075819L1146.1648333333333,191.05512750799005L1149.05175,209.39758883389558L1149.5230833333333,237.67191238403322L1149.75875,178.88356746326792L1151.4084166666667,177.31886215209963L1152.23325,200.51410695856268L1152.58675,205.59856026389383L1153.4115833333333,181.04617309570312L1153.5294166666667,209.39420679265803L1153.9418333333333,186.77453821355644L1154.1775,212.07355686534535L1154.3542499999999,198.94662260575728L1154.4131666666667,166.85839212590997L1154.6488333333334,169.14827000011098L1156.12175,187.35141220092774L1156.7109166666667,160.65447006225585L1156.9465833333334,212.0581279407848L1157.88925,183.28223980990322L1158.7140833333333,196.89582096446642L1160.8350833333334,201.64436416625975L1160.894,221.15750989046964L1161.3064166666666,201.3426939530806L1161.9545,145.7153253728693L1163.722,164.5793027010831L1164.8414166666666,181.133293429288L1164.9003333333333,164.8035136829723L1165.1949166666666,220.72733521894975L1166.7856666666667,215.89163235751064L1167.8461666666667,199.13055059259588L1169.0245,206.3254238475453L1175.56425,209.7501994046298L1176.0945,201.96732288707386L1177.0371666666667,218.66978260387074L1177.2139166666666,180.81801639903676L1177.7441666666666,222.05928268432618L1179.3938333333333,208.14088523171165L1181.397,201.63209443525835L1181.4559166666666,214.29726208773528L1181.9861666666666,197.13241965553976L1182.1629166666667,197.00547513094816L1184.4606666666666,217.28301460959696L1185.3444166666666,144.82055261785334L1185.9335833333332,229.6900853243741L1186.8173333333334,210.8237091064453L1186.9351666666666,196.07528270374647L1187.4065,203.07399756691672L1188.3491666666666,60.361649530584145L1188.4080833333333,203.7308345447887L1189.5275000000001,199.36059494018556L1190.9415000000001,189.7786166797985L1192.2376666666667,202.25036565607243L1193.8873333333333,207.75678759488193L1194.5943333333332,160.68311254327946L1197.0688333333333,161.03297028975055L1197.2455833333333,169.1508261940696L1199.6611666666668,159.2867096640847L1200.1325,203.74357618852096L1204.90475,88.84100605357776L1204.9636666666665,206.62410528009588L1210.0894166666667,192.13201925104315L1210.56075,179.97853608564898L1213.1530833333334,183.7362067482688L1213.212,204.7531154979359L1216.21675,215.33482776988635L1216.747,218.27792462435636L1219.75175,149.8925919966264L1220.3409166666668,183.5219845858487L1220.7533333333333,136.93825981833717L1221.0479166666667,216.0818000793457L1222.4619166666666,177.1180501764471L1224.6418333333334,226.95689787431198L1225.6434166666666,173.15541208440607L1228.1179166666666,228.24557356400922L1230.9459166666666,177.19735773259944L1231.06375,212.2978727167303L1233.3025833333334,218.79000237204812L1234.7755,200.3425273548473L1234.95225,198.4539326060902L1235.8949166666666,222.54079097401012L1236.1895,208.25502256913617L1236.4840833333333,188.5614750948819L1237.5445833333333,208.2625207380815L1237.8391666666666,193.68775822032583L1238.13375,135.23179716630418L1238.84075,221.84932084517047L1240.078,203.59852856722745L1242.8470833333333,213.13420694524592L1243.6129999999998,160.28675828413532L1244.0843333333335,222.54780412153764L1246.26425,199.489610637318L1247.2069166666665,194.82127949107777L1249.2100833333334,230.41878412420098L1249.8581666666666,213.7474182128906L1250.6240833333334,197.35121674971148L1252.804,203.93584130027077L1253.2164166666666,200.3312145579945L1253.4520833333333,205.51155790849165L1254.925,211.4521395596591L1256.4568333333332,139.7553166476163L1258.8135,208.0210193980824L1261.2290833333334,177.46870755282316L1261.288,207.4175478848544L1261.4058333333332,192.1244948647239L1261.7004166666668,217.16359447132456L1264.64625,222.85062789916992L1265.8245833333333,217.32151482321999L1266.7083333333335,193.16565232710406L1266.8850833333333,229.6499596335671L1267.0029166666666,207.87293056141246L1268.1812499999999,200.2305398420854L1268.53475,183.87661389437588L1269.8898333333334,113.01903533935547L1271.36275,187.8002143166282L1271.4805833333335,187.47329677234995L1272.2465,184.28224910389292L1273.48375,218.88480439619585L1274.6031666666665,214.67728292291815L1274.9566666666667,215.4979522705078L1275.7815,192.50143515846946L1276.4295833333333,202.54215191927824L1276.9598333333333,174.93170471191408L1277.01875,196.24556454745206" style="fill: none;" fill="none"></path></g></g></g></g></g></g><g transform="translate(46, 378)" clip-path="url(#clip_1)"><clipPath id="clip_1"><rect width="1414" height="22"></rect></clipPath><g><g><line x1="0" y1="0" x2="0" y2="5" style="visibility: inherit;" fill="rgb(0, 0, 0)" stroke="rgb(204, 204, 204)" stroke-width="1px"></line><line x1="117.83333333333333" y1="0" x2="117.83333333333333" y2="5" style="visibility: inherit;" fill="rgb(0, 0, 0)" stroke="rgb(204, 204, 204)" stroke-width="1px"></line><line x1="235.66666666666666" y1="0" x2="235.66666666666666" y2="5" style="visibility: inherit;" fill="rgb(0, 0, 0)" stroke="rgb(204, 204, 204)" stroke-width="1px"></line><line x1="353.5" y1="0" x2="353.5" y2="5" style="visibility: inherit;" fill="rgb(0, 0, 0)" stroke="rgb(204, 204, 204)" stroke-width="1px"></line><line x1="471.3333333333333" y1="0" x2="471.3333333333333" y2="5" style="visibility: inherit;" fill="rgb(0, 0, 0)" stroke="rgb(204, 204, 204)" stroke-width="1px"></line><line x1="589.1666666666667" y1="0" x2="589.1666666666667" y2="5" style="visibility: inherit;" fill="rgb(0, 0, 0)" stroke="rgb(204, 204, 204)" stroke-width="1px"></line><line x1="707" y1="0" x2="707" y2="5" style="visibility: inherit;" fill="rgb(0, 0, 0)" stroke="rgb(204, 204, 204)" stroke-width="1px"></line><line x1="824.8333333333334" y1="0" x2="824.8333333333334" y2="5" style="visibility: inherit;" fill="rgb(0, 0, 0)" stroke="rgb(204, 204, 204)" stroke-width="1px"></line><line x1="942.6666666666666" y1="0" x2="942.6666666666666" y2="5" style="visibility: inherit;" fill="rgb(0, 0, 0)" stroke="rgb(204, 204, 204)" stroke-width="1px"></line><line x1="1060.5" y1="0" x2="1060.5" y2="5" style="visibility: inherit;" fill="rgb(0, 0, 0)" stroke="rgb(204, 204, 204)" stroke-width="1px"></line><line x1="1178.3333333333335" y1="0" x2="1178.3333333333335" y2="5" style="visibility: inherit;" fill="rgb(0, 0, 0)" stroke="rgb(204, 204, 204)" stroke-width="1px"></line><line x1="1296.1666666666665" y1="0" x2="1296.1666666666665" y2="5" style="visibility: inherit;" fill="rgb(0, 0, 0)" stroke="rgb(204, 204, 204)" stroke-width="1px"></line><line x1="1414" y1="0" x2="1414" y2="5" style="visibility: inherit;" fill="rgb(0, 0, 0)" stroke="rgb(204, 204, 204)" stroke-width="1px"></line></g><g transform="translate(0, 8)"><text x="0" y="0" dx="0em" dy="0.95em" style="text-anchor: middle; visibility: hidden; font-family: &quot;Helvetica Neue&quot;, sans-serif; font-size: 12px; font-weight: 200;" fill="rgb(50, 49, 63)" stroke="none" stroke-width="1px">-2k</text><text x="117.83333333333333" y="0" dx="0em" dy="0.95em" style="text-anchor: middle; visibility: inherit; font-family: &quot;Helvetica Neue&quot;, sans-serif; font-size: 12px; font-weight: 200;" fill="rgb(50, 49, 63)" stroke="none" stroke-width="1px">0</text><text x="235.66666666666666" y="0" dx="0em" dy="0.95em" style="text-anchor: middle; visibility: inherit; font-family: &quot;Helvetica Neue&quot;, sans-serif; font-size: 12px; font-weight: 200;" fill="rgb(50, 49, 63)" stroke="none" stroke-width="1px">2k</text><text x="353.5" y="0" dx="0em" dy="0.95em" style="text-anchor: middle; visibility: inherit; font-family: &quot;Helvetica Neue&quot;, sans-serif; font-size: 12px; font-weight: 200;" fill="rgb(50, 49, 63)" stroke="none" stroke-width="1px">4k</text><text x="471.3333333333333" y="0" dx="0em" dy="0.95em" style="text-anchor: middle; visibility: inherit; font-family: &quot;Helvetica Neue&quot;, sans-serif; font-size: 12px; font-weight: 200;" fill="rgb(50, 49, 63)" stroke="none" stroke-width="1px">6k</text><text x="589.1666666666667" y="0" dx="0em" dy="0.95em" style="text-anchor: middle; visibility: inherit; font-family: &quot;Helvetica Neue&quot;, sans-serif; font-size: 12px; font-weight: 200;" fill="rgb(50, 49, 63)" stroke="none" stroke-width="1px">8k</text><text x="707" y="0" dx="0em" dy="0.95em" style="text-anchor: middle; visibility: inherit; font-family: &quot;Helvetica Neue&quot;, sans-serif; font-size: 12px; font-weight: 200;" fill="rgb(50, 49, 63)" stroke="none" stroke-width="1px">10k</text><text x="824.8333333333334" y="0" dx="0em" dy="0.95em" style="text-anchor: middle; visibility: inherit; font-family: &quot;Helvetica Neue&quot;, sans-serif; font-size: 12px; font-weight: 200;" fill="rgb(50, 49, 63)" stroke="none" stroke-width="1px">12k</text><text x="942.6666666666666" y="0" dx="0em" dy="0.95em" style="text-anchor: middle; visibility: inherit; font-family: &quot;Helvetica Neue&quot;, sans-serif; font-size: 12px; font-weight: 200;" fill="rgb(50, 49, 63)" stroke="none" stroke-width="1px">14k</text><text x="1060.5" y="0" dx="0em" dy="0.95em" style="text-anchor: middle; visibility: inherit; font-family: &quot;Helvetica Neue&quot;, sans-serif; font-size: 12px; font-weight: 200;" fill="rgb(50, 49, 63)" stroke="none" stroke-width="1px">16k</text><text x="1178.3333333333335" y="0" dx="0em" dy="0.95em" style="text-anchor: middle; visibility: inherit; font-family: &quot;Helvetica Neue&quot;, sans-serif; font-size: 12px; font-weight: 200;" fill="rgb(50, 49, 63)" stroke="none" stroke-width="1px">18k</text><text x="1296.1666666666665" y="0" dx="0em" dy="0.95em" style="text-anchor: middle; visibility: inherit; font-family: &quot;Helvetica Neue&quot;, sans-serif; font-size: 12px; font-weight: 200;" fill="rgb(50, 49, 63)" stroke="none" stroke-width="1px">20k</text><text x="1414" y="0" dx="0em" dy="0.95em" style="text-anchor: middle; visibility: hidden; font-family: &quot;Helvetica Neue&quot;, sans-serif; font-size: 12px; font-weight: 200;" fill="rgb(50, 49, 63)" stroke="none" stroke-width="1px">22k</text></g><line x1="0" y1="0" x2="1414" y2="0" fill="rgb(0, 0, 0)" stroke="rgb(204, 204, 204)" stroke-width="1px"></line></g></g></g></g></svg>