<svg viewBox="0 0 1460 400" xmlns="http://www.w3.org/2000/svg"><g><g><g><g><g><line x1="58" y1="378" x2="53" y2="378" style="visibility: inherit;" fill="rgb(0, 0, 0)" stroke="rgb(204, 204, 204)" stroke-width="1px"></line><line x1="58" y1="346.50000000000006" x2="53" y2="346.50000000000006" style="visibility: inherit;" fill="rgb(0, 0, 0)" stroke="rgb(204, 204, 204)" stroke-width="1px"></line><line x1="58" y1="315" x2="53" y2="315" style="visibility: inherit;" fill="rgb(0, 0, 0)" stroke="rgb(204, 204, 204)" stroke-width="1px"></line><line x1="58" y1="283.5" x2="53" y2="283.5" style="visibility: inherit;" fill="rgb(0, 0, 0)" stroke="rgb(204, 204, 204)" stroke-width="1px"></line><line x1="58" y1="252" x2="53" y2="252" style="visibility: inherit;" fill="rgb(0, 0, 0)" stroke="rgb(204, 204, 204)" stroke-width="1px"></line><line x1="58" y1="220.49999999999997" x2="53" y2="220.49999999999997" style="visibility: inherit;" fill="rgb(0, 0, 0)" stroke="rgb(204, 204, 204)" stroke-width="1px"></line><line x1="58" y1="189" x2="53" y2="189" style="visibility: inherit;" fill="rgb(0, 0, 0)" stroke="rgb(204, 204, 204)" stroke-width="1px"></line><line x1="58" y1="157.49999999999994" x2="53" y2="157.49999999999994" style="visibility: inherit;" fill="rgb(0, 0, 0)" stroke="rgb(204, 204, 204)" stroke-width="1px"></line><line x1="58" y1="126" x2="53" y2="126" style="visibility: inherit;" fill="rgb(0, 0, 0)" stroke="rgb(204, 204, 204)" stroke-width="1px"></line><line x1="58" y1="94.49999999999994" x2="53" y2="94.49999999999994" style="visibility: inherit;" fill="rgb(0, 0, 0)" stroke="rgb(204, 204, 204)" stroke-width="1px"></line><line x1="58" y1="62.99999999999994" x2="53" y2="62.99999999999994" style="visibility: inherit;" fill="rgb(0, 0, 0)" stroke="rgb(204, 204, 204)" stroke-width="1px"></line><line x1="58" y1="31.499999999999886" x2="53" y2="31.499999999999886" style="visibility: inherit;" fill="rgb(0, 0, 0)" stroke="rgb(204, 204, 204)" stroke-width="1px"></line><line x1="58" y1="0" x2="53" y2="0" style="visibility: inherit;" fill="rgb(0, 0, 0)" stroke="rgb(204, 204, 204)" stroke-width="1px"></line></g><g transform="translate(48, 0)"><text x="0" y="378" dx="0em" dy="0.3em" style="text-anchor: end; visibility: hidden; font-family: &quot;Helvetica Neue&quot;, sans-serif; font-size: 12px; font-weight: 200;" fill="rgb(50, 49, 63)" stroke="none" stroke-width="1px">0.55</text><text x="0" y="346.50000000000006" dx="0em" dy="0.3em" style="text-anchor: end; visibility: inherit; font-family: &quot;Helvetica Neue&quot;, sans-serif; font-size: 12px; font-weight: 200;" fill="rgb(50, 49, 63)" stroke="none" stroke-width="1px">0.6</text><text x="0" y="315" dx="0em" dy="0.3em" style="text-anchor: end; visibility: inherit; font-family: &quot;Helvetica Neue&quot;, sans-serif; font-size: 12px; font-weight: 200;" fill="rgb(50, 49, 63)" stroke="none" stroke-width="1px">0.65</text><text x="0" y="283.5" dx="0em" dy="0.3em" style="text-anchor: end; visibility: inherit; font-family: &quot;Helvetica Neue&quot;, sans-serif; font-size: 12px; font-weight: 200;" fill="rgb(50, 49, 63)" stroke="none" stroke-width="1px">0.7</text><text x="0" y="252" dx="0em" dy="0.3em" style="text-anchor: end; visibility: inherit; font-family: &quot;Helvetica Neue&quot;, sans-serif; font-size: 12px; font-weight: 200;" fill="rgb(50, 49, 63)" stroke="none" stroke-width="1px">0.75</text><text x="0" y="220.49999999999997" dx="0em" dy="0.3em" style="text-anchor: end; visibility: inherit; font-family: &quot;Helvetica Neue&quot;, sans-serif; font-size: 12px; font-weight: 200;" fill="rgb(50, 49, 63)" stroke="none" stroke-width="1px">0.8</text><text x="0" y="189" dx="0em" dy="0.3em" style="text-anchor: end; visibility: inherit; font-family: &quot;Helvetica Neue&quot;, sans-serif; font-size: 12px; font-weight: 200;" fill="rgb(50, 49, 63)" stroke="none" stroke-width="1px">0.85</text><text x="0" y="157.49999999999994" dx="0em" dy="0.3em" style="text-anchor: end; visibility: inherit; font-family: &quot;Helvetica Neue&quot;, sans-serif; font-size: 12px; font-weight: 200;" fill="rgb(50, 49, 63)" stroke="none" stroke-width="1px">0.9</text><text x="0" y="126" dx="0em" dy="0.3em" style="text-anchor: end; visibility: inherit; font-family: &quot;Helvetica Neue&quot;, sans-serif; font-size: 12px; font-weight: 200;" fill="rgb(50, 49, 63)" stroke="none" stroke-width="1px">0.95</text><text x="0" y="94.49999999999994" dx="0em" dy="0.3em" style="text-anchor: end; visibility: inherit; font-family: &quot;Helvetica Neue&quot;, sans-serif; font-size: 12px; font-weight: 200;" fill="rgb(50, 49, 63)" stroke="none" stroke-width="1px">1</text><text x="0" y="62.99999999999994" dx="0em" dy="0.3em" style="text-anchor: end; visibility: inherit; font-family: &quot;Helvetica Neue&quot;, sans-serif; font-size: 12px; font-weight: 200;" fill="rgb(50, 49, 63)" stroke="none" stroke-width="1px">1.05</text><text x="0" y="31.499999999999886" dx="0em" dy="0.3em" style="text-anchor: end; visibility: inherit; font-family: &quot;Helvetica Neue&quot;, sans-serif; font-size: 12px; font-weight: 200;" fill="rgb(50, 49, 63)" stroke="none" stroke-width="1px">1.1</text><text x="0" y="0" dx="0em" dy="0.3em" style="text-anchor: end; visibility: hidden; font-family: &quot;Helvetica Neue&quot;, sans-serif; font-size: 12px; font-weight: 200;" fill="rgb(50, 49, 63)" stroke="none" stroke-width="1px">1.15</text></g><line x1="58" y1="0" x2="58" y2="378" fill="rgb(0, 0, 0)" stroke="rgb(204, 204, 204)" stroke-width="1px"></line></g></g><g transform="translate(58, 0)" clip-path="url(#clip_0)"><clipPath id="clip_0"><rect width="1402" height="378"></rect></clipPath><g><g><g><line x1="0" y1="0" x2="0" y2="378" fill="rgb(0, 0, 0)" stroke="rgb(60, 60, 60)" stroke-width="1px" opacity="0.25"></line><line x1="116.83333333333333" y1="0" x2="116.83333333333333" y2="378" fill="rgb(0, 0, 0)" stroke="rgb(60, 60, 60)" stroke-width="1px" opacity="0.25"></line><line x1="233.66666666666666" y1="0" x2="233.66666666666666" y2="378" fill="rgb(0, 0, 0)" stroke="rgb(60, 60, 60)" stroke-width="1px" opacity="0.25"></line><line x1="350.5" y1="0" x2="350.5" y2="378" fill="rgb(0, 0, 0)" stroke="rgb(60, 60, 60)" stroke-width="1px" opacity="0.25"></line><line x1="467.3333333333333" y1="0" x2="467.3333333333333" y2="378" fill="rgb(0, 0, 0)" stroke="rgb(60, 60, 60)" stroke-width="1px" opacity="0.25"></line><line x1="584.1666666666667" y1="0" x2="584.1666666666667" y2="378" fill="rgb(0, 0, 0)" stroke="rgb(60, 60, 60)" stroke-width="1px" opacity="0.25"></line><line x1="701" y1="0" x2="701" y2="378" fill="rgb(0, 0, 0)" stroke="rgb(60, 60, 60)" stroke-width="1px" opacity="0.25"></line><line x1="817.8333333333334" y1="0" x2="817.8333333333334" y2="378" fill="rgb(0, 0, 0)" stroke="rgb(60, 60, 60)" stroke-width="1px" opacity="0.25"></line><line x1="934.6666666666666" y1="0" x2="934.6666666666666" y2="378" fill="rgb(0, 0, 0)" stroke="rgb(60, 60, 60)" stroke-width="1px" opacity="0.25"></line><line x1="1051.5" y1="0" x2="1051.5" y2="378" fill="rgb(0, 0, 0)" stroke="rgb(60, 60, 60)" stroke-width="1px" opacity="0.25"></line><line x1="1168.3333333333335" y1="0" x2="1168.3333333333335" y2="378" fill="rgb(0, 0, 0)" stroke="rgb(60, 60, 60)" stroke-width="1px" opacity="0.25"></line><line x1="1285.1666666666665" y1="0" x2="1285.1666666666665" y2="378" fill="rgb(0, 0, 0)" stroke="rgb(60, 60, 60)" stroke-width="1px" opacity="0.25"></line><line x1="1402" y1="0" x2="1402" y2="378" fill="rgb(0, 0, 0)" stroke="rgb(60, 60, 60)" stroke-width="1px" opacity="0.25"></line></g><g><line x1="0" y1="378" x2="1402" y2="378" fill="rgb(0, 0, 0)" stroke="rgb(60, 60, 60)" stroke-width="1px" opacity="0.25"></line><line x1="0" y1="346.50000000000006" x2="1402" y2="346.50000000000006" fill="rgb(0, 0, 0)" stroke="rgb(60, 60, 60)" stroke-width="1px" opacity="0.25"></line><line x1="0" y1="315" x2="1402" y2="315" fill="rgb(0, 0, 0)" stroke="rgb(60, 60, 60)" stroke-width="1px" opacity="0.25"></line><line x1="0" y1="283.5" x2="1402" y2="283.5" fill="rgb(0, 0, 0)" stroke="rgb(60, 60, 60)" stroke-width="1px" opacity="0.25"></line><line x1="0" y1="252" x2="1402" y2="252" fill="rgb(0, 0, 0)" stroke="rgb(60, 60, 60)" stroke-width="1px" opacity="0.25"></line><line x1="0" y1="220.49999999999997" x2="1402" y2="220.49999999999997" fill="rgb(0, 0, 0)" stroke="rgb(60, 60, 60)" stroke-width="1px" opacity="0.25"></line><line x1="0" y1="189" x2="1402" y2="189" fill="rgb(0, 0, 0)" stroke="rgb(60, 60, 60)" stroke-width="1px" opacity="0.25"></line><line x1="0" y1="157.49999999999994" x2="1402" y2="157.49999999999994" fill="rgb(0, 0, 0)" stroke="rgb(60, 60, 60)" stroke-width="1px" opacity="0.25"></line><line x1="0" y1="126" x2="1402" y2="126" fill="rgb(0, 0, 0)" stroke="rgb(60, 60, 60)" stroke-width="1px" opacity="0.25"></line><line x1="0" y1="94.49999999999994" x2="1402" y2="94.49999999999994" fill="rgb(0, 0, 0)" stroke="rgb(60, 60, 60)" stroke-width="1px" opacity="0.25"></line><line x1="0" y1="62.99999999999994" x2="1402" y2="62.99999999999994" fill="rgb(0, 0, 0)" stroke="rgb(60, 60, 60)" stroke-width="1px" opacity="0.25"></line><line x1="0" y1="31.499999999999886" x2="1402" y2="31.499999999999886" fill="rgb(0, 0, 0)" stroke="rgb(60, 60, 60)" stroke-width="1px" opacity="0.25"></line><line x1="0" y1="0" x2="1402" y2="0" fill="rgb(0, 0, 0)" stroke="rgb(60, 60, 60)" stroke-width="1px" opacity="0.25"></line></g></g></g><g><g><line x1="0" y1="724.5000000000001" x2="1402" y2="724.5000000000001" fill="rgb(0, 0, 0)" stroke="rgb(153, 153, 153)" stroke-width="1.5px"></line></g></g><g><g><line x1="116.83333333333333" y1="0" x2="116.83333333333333" y2="378" fill="rgb(0, 0, 0)" stroke="rgb(153, 153, 153)" stroke-width="1.5px"></line></g></g><g><g><g><g><g><path stroke="rgb(0, 119, 187)" stroke-width="2px" d="M117.88483333333333,302.5478274822235L119.28683333333333,302.3130763634517L119.46208333333333,302.3246652017202L120.98091666666667,302.3899350632393L122.32449999999999,302.4698122166959L125.88791666666667,302.67201532357063L126.06316666666667,302.71696607088273L126.58891666666668,302.61775716841976L130.21075,302.4314111979859L130.50283333333334,302.44900617592344L131.72958333333335,302.44253445618097L132.43058333333335,302.3996172914532L132.78108333333333,302.29936904595854L134.82566666666665,302.25981779502985L134.9425,302.1693178790293L135.40983333333332,302.10776053713454L137.10391666666666,302.0200221563214L138.27225,301.9191340366477L141.42675,301.85241621266624L143.70499999999998,301.79379051683463L144.52283333333332,301.772917832032L148.14466666666667,301.7673074032739L149.72191666666666,301.7690348937092L150.65658333333334,301.72262147263575L151.0655,301.6420683388014L151.12391666666664,301.6477395538724L153.05166666666665,301.5895639144502L153.8695,301.5343221212779L154.62891666666667,301.45729370156056L155.44675,301.37278563757843L156.03091666666666,301.31614347458094L158.54283333333333,301.297920262048L159.01016666666666,301.17615262787973L159.4775,301.15061386340994L161.52208333333334,301.15923161362974L161.75575,301.0858599593977L161.87258333333332,301.0480923611292L162.69041666666666,301.059348099495L162.80725,300.9797206271834L163.21616666666668,300.8972052703058L163.6835,300.8887635465287L164.03400000000002,300.80117536303214L165.66966666666667,300.816519335429L172.03708333333333,300.7485899377021L173.55591666666666,300.7911152824634L173.61433333333335,300.7258229592212L173.96483333333333,300.7330703632074L174.31533333333334,300.6438903735263L175.36683333333332,300.63551861940215L175.54208333333335,300.5747138136479L176.0678333333333,300.4587525986585L178.93024999999997,300.49864846906763L179.1055,300.44186957949955L179.8065,300.3611999303307L180.68275,300.3393119991826L181.03324999999998,300.2800333540625L181.32533333333333,300.21172285436114L184.363,300.29986082990774L184.65508333333335,300.29446394028093L184.7135,300.26796099339015L185.76500000000001,300.180715476713L186.52441666666667,300.1466918493794L189.50366666666665,300.10307525303244L190.49675,300.0317130795514L193.70966666666666,300.06300530516285L193.88491666666667,299.9859623688665L194.70275,299.953403821261L194.93641666666667,299.86351498527495L197.74041666666668,299.7928646852983L198.14933333333335,299.699624882849L199.43449999999999,299.61744870512354L200.13549999999998,299.6183634761878L200.71966666666665,299.6289009857144L202.47216666666665,299.5696063872697L203.11475000000002,299.54113245506835L203.93258333333333,299.47067195272945L205.80191666666664,299.48384983030655L207.49599999999998,299.5141236312703L208.43066666666667,299.5281371701959L209.36533333333335,299.4351133041201L209.599,299.3975970776082L210.59208333333333,299.4007851448963L212.63666666666668,299.4172015609487L215.09016666666668,299.37397908294673L215.61591666666666,299.24964403475985L216.2585,299.26159278559817L216.66741666666667,299.2513643950456L217.19316666666668,299.2028317917976L218.011,299.1125431627274L218.1278333333333,299.1049779253477L218.30308333333335,299.02685355380765L220.87341666666666,298.96056650608966L223.50216666666668,298.86341016191216L224.5536666666667,298.82337191957606L225.07941666666667,298.82523689717084L225.83883333333333,298.94924475430037L226.01408333333333,298.8401200351706L226.48141666666666,298.82826298380456L228.81808333333336,298.740139140593L229.81116666666665,298.6635436655524L230.39533333333333,298.5734439045566L230.57058333333336,298.50391276776196L233.72508333333332,298.5152816024789L234.4260833333333,298.42087978973L235.76966666666667,298.349199832504L237.9310833333333,298.3614632858461L238.10633333333334,298.4500797977535L238.16475,298.3999685886042L238.63208333333333,298.41080191166327L238.86575,298.3209952586842L239.27466666666666,298.24355707283667L242.37075000000002,298.1732165634497L242.77966666666666,298.0518462117783L244.5905833333333,297.9323936048131L244.82425,297.90503927711706L245.29158333333334,297.86427614272884L245.7589166666667,297.8052492332239L245.99258333333333,297.91843554347565L247.16091666666668,297.9031881998296L247.45299999999997,297.85686156561445L247.5114166666667,297.8546746492167L248.67975,297.7770415059505L248.97183333333334,297.7038695387684L250.08175,297.66744327190406L251.01641666666666,297.6776647706769L251.60058333333333,297.65948314908826L252.30158333333333,297.61158125216014L253.82041666666666,297.57307407490475L254.34616666666668,297.6057169186113L256.39075,297.70287280108744L256.44916666666666,297.70154685793483L256.566,297.6225090007208L259.1363333333333,297.53892680343137L259.6036666666667,297.4427766698246L260.12941666666666,297.5545079719376L260.24625000000003,297.5002636398366L260.5383333333333,297.4126352718729L261.99875000000003,297.4616419829793L262.05716666666666,297.3964151594013L262.6413333333333,297.4272389523982L262.7581666666667,297.3412740067464L263.05025,297.35567065507036L263.86808333333335,297.2595280756336L264.21858333333336,297.17946033461004L264.7443333333333,297.10604076758204L265.62058333333334,297.10207430363477L265.97108333333335,297.0772662729249L269.0671666666667,296.9958591673916L273.68208333333337,297.0523333302705L274.73358333333334,296.97908228843437L276.89500000000004,296.9468953991851L277.7128333333333,296.88721760814695L279.7574166666667,296.83133629997724L284.606,296.82347288308586L286.008,296.8333800815699L290.1555833333333,296.7502760430219L290.6229166666667,296.6760168577905L292.72591666666665,296.57846927287426L293.83583333333337,296.53703533941905L294.30316666666664,296.49753809342593L294.47841666666665,296.38027406822425L297.8665833333333,296.4127640876926L301.48841666666664,296.25538932988627L302.42308333333335,296.3648129910227L303.4745833333333,296.31308114742365L303.533,296.25199645778036L305.5191666666667,296.18815024785647L306.1033333333333,296.1260489201448L306.27858333333336,296.062986772953L306.337,296.07187343141754L306.4538333333333,296.09942418645426L306.51225,296.04027477736827L307.97266666666667,296.0250004448515L309.9004166666667,296.08486860257307L312.2370833333333,296.1611317170074L314.048,296.0664788466251L315.62525,296.0436946619502L315.9173333333333,295.90772617602784L317.2025,295.94966660678494L318.31241666666665,295.9739461575082L319.1886666666667,296.0134053475229L320.12333333333333,295.89311486813665L321.8174166666667,295.80013878471163L321.99266666666665,295.65217343237305L323.4530833333333,295.50146369648934L327.1333333333333,295.56679701358314L328.18483333333336,295.4307562800761L328.3016666666667,295.44633943615406L328.4185,295.3280141930258L328.769,295.230265183612L330.4046666666667,295.1188787770034L331.22249999999997,295.095013900567L334.4938333333333,295.1357888296325L334.72749999999996,295.1319113471973L335.3700833333333,295.04123851239865L338.40775,294.93959682426294L339.6345,294.9271952183233L339.9265833333333,295.0270781872987L340.04341666666664,294.9736413580254L340.62758333333335,295.0376513702495L342.55533333333335,294.9708942573909L343.2563333333333,294.996153322752L346.294,294.98537619389333L347.92966666666666,294.87342268555295L349.56533333333334,294.7603667579784L351.78516666666667,294.6722207669537L352.42775,294.6025518280393L352.603,294.6206700893294L355.93275,294.5773600838104L356.2248333333333,294.4466627858972L356.86741666666666,294.41550608845614L361.1318333333333,294.3040940501288L361.8328333333333,294.25108833095436L361.94966666666664,294.39467851202744L362.24175,294.33028624089815L362.3001666666667,294.2869531273519L363.76058333333333,294.50105952384536L364.05266666666665,294.5759959204488L364.22791666666666,294.4866300316872L364.69525,294.42560095936403L365.86358333333334,294.5317281164153L366.03883333333334,294.4903136131119L366.9735,294.4368334141077L368.25866666666667,294.3919160500504L369.0180833333333,294.4409629875173L369.13491666666664,294.37871780677915L372.05575000000005,294.2458832883558L373.45775,294.1353138950541L373.8666666666667,294.1052360470002L374.2171666666667,294.05377268173993L375.61916666666673,294.025445372952L375.7944166666667,293.96266417366957L379.24100000000004,293.9178960330283L380.23408333333333,293.93978608807726L381.46083333333337,294.0552767716449L384.26483333333334,294.23405575657387L384.44008333333335,294.06789250519057L385.37474999999995,294.04626475619824L387.1856666666667,293.9082450956536L388.8213333333333,293.8265820277416L389.2886666666667,293.8947709050004L389.52233333333334,293.87693974105764L389.98966666666666,293.80070640296157L392.15108333333336,293.9028910912325L392.4431666666666,293.8330271322343L394.3125,294.11924980216554L394.7798333333334,294.02995747809643L395.3055833333333,294.08838891945913L396.5323333333333,294.01922032717937L397.23333333333335,294.0406059325853L397.35016666666667,293.96856594914743L399.57,293.837500185535L400.27099999999996,293.8998803199562L402.72450000000003,293.8169886793615L406.69683333333336,293.9324813524253L407.2225833333333,293.8092378466181L407.3978333333334,293.7400066792712L411.83750000000003,293.6659244702829L411.95433333333335,293.59923469856346L412.01275,293.52128201013306L415.1088333333333,293.36273159079553L416.7445,293.18640674887735L420.59999999999997,293.2553613120848L422.87825,293.20317681910893L425.7990833333334,293.1095194168905L428.13575000000003,293.2225541519528L429.07041666666663,293.1217363362471L429.88824999999997,293.1510583640242L433.45166666666665,293.0166256362185L434.7368333333333,292.95109216200836L437.8329166666667,292.8726950065068L439.00124999999997,292.87106382347685L439.1180833333333,293.11892932818915L440.98741666666666,293.2360204879486L442.38941666666665,293.1055251341155L443.20725,292.96595612954206L445.7191666666667,292.99583368896145L447.3548333333333,292.9103591912383L447.47166666666664,292.8438199774092L447.7053333333334,293.0546193241812L448.58158333333336,293.09066892034775L450.97666666666663,293.1578183154376L451.15191666666664,293.2037263633688L454.248,293.2283728895028L456.0589166666666,293.0651895549137L456.1173333333333,293.145973370476L457.11041666666665,293.00194228227804L457.28566666666666,292.848449871638L459.27183333333335,292.75121635236354L459.38866666666667,292.82615249720243L459.79758333333336,292.7083630394684L461.9005833333334,293.1008119444411L463.1273333333333,293.15318932296054L464.5293333333333,293.4132702381862L464.82141666666666,293.22934216053727L465.1719166666666,292.9577364538226L466.7491666666667,292.8488293129078L467.91749999999996,292.77617748726993L468.20958333333334,292.72014026798416L469.08583333333337,292.7476555048353L469.37791666666664,292.7607548374223L471.88983333333334,292.9889718903287L473.35025,293.00297456401006L473.46708333333333,293.2169110522062L474.40175,293.0764062594575L474.98591666666664,292.8922162589273L477.90675,292.9828694603218L479.01666666666665,292.80802665569456L479.77608333333336,292.61024053023766L480.1265833333333,292.453663375625L480.886,292.4585384613316L484.21574999999996,292.52443024016475L485.5593333333333,292.57843677380345L485.8514166666667,292.3494709470057L487.2534166666667,292.06748969508067L487.89599999999996,292.06628813703094L488.5385833333333,292.0862220399164L489.29799999999994,292.1836216971634L490.7,292.05513744019754L496.2495833333333,292.0339914290757L496.308,291.8363145535053L496.5416666666667,291.78666449287573L497.71,291.6846623830311L497.7684166666666,291.4947605782699L500.8645,291.350588194552L501.4486666666667,291.22926449548976L502.55858333333333,291.28765064844424L505.7130833333334,291.4533780667208L506.2388333333333,291.2455982407372L506.58933333333334,291.3158858314812L506.9398333333333,291.12607913136844L507.11508333333336,291.022186311639L507.524,291.09388873584084L507.99133333333333,291.0128677657552L508.16658333333334,291.12365665640164L508.8675833333333,291.20139431337964L510.4448333333333,291.3044593935341L510.67850000000004,291.18761396406234L511.3210833333334,291.07541125332347L515.936,291.1697636015651L516.7538333333333,290.99341320371707L517.2211666666667,291.126196888417L518.0974166666666,291.3105615397777L521.8945,291.4245357172779L523.5885833333333,291.355056275283L523.7638333333333,291.153369414795L525.2826666666666,291.05977534318833L526.5678333333333,290.96287828340735L531.0659166666667,290.95431007887544L531.9421666666667,290.8360229160936L532.4095,290.6486433410162L533.7530833333333,290.7309225500719L534.8045833333333,290.71621736276904L537.14125,290.67019874099867L538.368,290.45722576938005L540.1789166666666,290.5804999401241L543.275,290.5190499754007L543.9175833333334,290.33092282626984L544.9690833333333,290.291440863745L545.55325,290.217864540338L545.6116666666667,290.2522196230254L546.7215833333333,290.3478919723306L548.0651666666668,290.2338561514264L549.1750833333333,290.03140409162796L551.4533333333333,290.1319725662724L551.6285833333334,290.004063262369L552.0375,289.8954213021297L552.6216666666667,289.7498629464307L552.7969166666667,289.5404008443687L553.6731666666667,289.88138065550083L555.6009166666666,290.00294048712163L556.7108333333333,289.81711405506593L561.32575,289.96064401340135L563.3703333333333,290.15019735246074L564.3634166666667,290.20419805005724L565.2396666666667,290.14128576310657L565.88225,290.21471398233115L566.23275,290.08680185624394L567.6931666666667,290.16855799055566L567.9852500000001,290.1720574403842L568.2773333333333,290.15172444423825L569.3288333333334,290.1686410976432L569.9714166666668,290.0327288627817L570.1466666666666,289.8548003472207L571.3149999999999,289.7454397078037L571.7823333333333,289.5734075146885L572.3665,289.65278717621584L574.4110833333333,289.57685531117556L574.7031666666667,289.4587269216969L578.2665833333333,289.71344267585056L578.3249999999999,289.6324665614146L580.1943333333334,289.4657876149091L583.1735833333333,289.52362755966647L583.6409166666667,289.3452999679417L585.6855,289.2913794047048L586.3280833333333,289.4027406118484L587.0290833333333,289.6559331900637L588.0221666666666,289.55154190779035L591.5271666666666,289.40829681713984L594.6816666666667,289.4390926019604L594.9153333333334,289.47035876567037L595.7331666666666,289.8073400518988L596.7262499999999,289.60295553040095L597.0767500000001,289.66922534939437L599.53025,289.557486297265L600.4649166666667,289.4275615825684L601.1075000000001,289.20873662480506L602.1005833333334,289.1961960939429L603.2689166666667,289.5287333275941L603.561,289.44107896627963L603.6778333333333,289.37251228674023L604.0283333333333,289.419565742043L605.1966666666666,289.57872647482014L605.3719166666667,289.6302054367898L605.664,289.4654951793192L606.18975,289.40486559279606L611.4472499999999,289.2814712480782L611.5056666666667,289.1171416913299L611.6225000000001,289.05824962604277L613.2581666666666,288.9718336673235L613.55025,288.9019982305892L613.8423333333334,289.118262367201L617.2305,289.0163264301073L618.7493333333333,288.77607584199416L619.2750833333333,288.5468791827702L621.2028333333333,288.5392116721934L621.26125,288.64909590400737L621.787,288.585322792556L624.0068333333334,288.28402821111706L624.4741666666666,288.4406913780325L624.76625,288.2244006619105L626.6355833333333,288.6920795028595L629.3811666666667,288.5560844288104L629.6148333333333,288.56091749777926L630.9584166666667,288.6088499890286L632.0099166666666,288.5692892635494L632.1851666666666,288.69307443405785L633.4119166666667,288.9360971641164L634.0545,288.7878681387065L635.4565,288.8283243123069L635.8654166666666,288.6445903734177L636.8584999999999,288.48134933436074L636.9753333333333,288.4500959676975L637.1505833333333,288.4291453445369L638.3773333333334,288.65764537892096L638.78625,288.7937693962954L639.4288333333334,288.8956575341158L640.1298333333333,288.7348982241368L641.1229166666667,288.88977882908307L642.1744166666667,288.67696299862973L642.5249166666666,288.433503073953L643.1090833333333,288.26310628363154L644.219,288.44766725004115L645.79625,288.18200036705326L646.2635833333334,288.144962891678L647.4903333333333,287.86091215603153L651.6379166666667,287.78276507141584L655.2013333333333,287.7151117056007L655.7855,287.5958882048367L656.1944166666667,287.6887652169444L657.7716666666666,287.5068765897373L658.9984166666667,287.6076958497624L660.51725,287.4045954452723L661.043,287.28921905926836L662.9123333333333,287.0608830139583L664.1390833333334,287.5328753690294L666.651,287.79112813583913L666.8262500000001,288.1718716920954L667.9945833333334,287.9050851099716L668.4035,288.0426385779506L669.9223333333333,287.9095586857383L674.0115000000001,288.26952828189974L674.5372500000001,288.09912510829724L674.9461666666666,287.87767174878934L675.7055833333333,287.6189197125527L676.99075,287.57771942612726L677.6333333333333,287.4892224557605L678.2759166666667,287.32299587071424L679.2105833333334,287.16364787415114L680.6125833333333,287.41474948373514L680.9630833333333,287.72527610942564L682.3066666666667,288.0671984280493L683.3581666666666,288.18136862385626L686.9215833333333,288.591418890717L687.4473333333334,288.2940426060711L690.0176666666666,288.0860298105982L691.6533333333333,288.2053501370957L691.8285833333333,288.21542261041344L694.16525,287.87290299341214L695.56725,288.1270257020014L699.3643333333333,287.83658722226187L703.9208333333333,287.5748966488309L704.2129166666667,287.60631409060045L704.3881666666666,287.3646875413547L705.206,287.183324861992L705.9069999999999,287.1451338199259L707.2505833333333,286.93210275236424L707.6010833333333,287.0041917540825L708.4773333333333,287.00558363280004L708.8278333333334,286.99095780892645L709.412,286.85792045786764L710.814,286.5050634496905L711.8070833333334,286.6085105570871L713.09225,286.82742780969744L715.3120833333334,286.59704291433894L715.9546666666668,286.51876592364937L717.1229999999999,286.35413220005427L717.5319166666667,286.2021814703579L717.8240000000001,286.272771169962L724.1329999999999,286.3415530315341L724.30825,286.13188200177257L725.1845,286.2028897830891L725.535,286.0572532564337L725.8270833333333,285.91759451561535L728.3389999999999,286.07060684804173L728.9815833333333,286.1544977881289L729.5657500000001,285.9581425983479L729.7994166666667,285.89137692916734L729.8578333333332,286.38892853806055L731.4935,286.6726416458397L732.0192499999999,286.4141172025999L733.3628333333334,286.1163340564936L733.42125,286.3777270831506L734.12225,286.20008859599744L735.9331666666667,286.3026523904377L736.4589166666667,286.4848660209103L737.452,286.5400785549732L737.7440833333333,286.885567200656L738.2698333333333,287.02976411134665L738.7371666666667,287.0913170707824L739.2044999999999,287.2228057132669L740.1975833333333,287.2018108725239L741.9500833333333,286.9466175651733L742.53425,286.9875568753226L744.6956666666666,287.24103757507055L745.2214166666668,287.37508978659514L745.2798333333333,287.45289230143476L746.5649999999999,287.2240022887993L746.9739166666667,286.98024960845277L748.6095833333333,286.8057578585952L749.19375,286.6099096107606L749.4858333333333,286.3200287340661L750.1284166666667,286.6892772750472L750.6541666666667,286.84851992401695L751.4720000000001,287.2265144044858L753.6918333333333,287.2461780640142L753.8670833333333,287.25927173981654L755.85325,286.9600360397431L756.0869166666666,286.80205255831555L757.4305,286.5434455619736L757.781,286.34174231430546L757.8978333333333,286.0696704277409L760.2345,286.18124003318786L760.5849999999999,285.9665725976847L760.7018333333333,285.9613983427277L761.3444166666667,286.3759668853146L761.6365000000001,286.161860496896L762.4543333333332,286.1668095223511L762.9800833333333,285.96493835992806L763.91475,286.3209152097737L765.3751666666667,286.3593429605288L766.4850833333334,286.70976610342234L767.0108333333334,286.5405525790937L768.0623333333333,286.6451984302469L769.6395833333333,286.7143748736921L770.9831666666668,286.4005116457783L771.1,286.1189673521142L771.1584166666667,285.81249685199697L774.605,285.82764988777865L774.78025,285.73674770324095L775.306,285.6957176578241L777.5258333333334,285.8246512843652L780.5050833333333,285.59633315354L783.4259166666667,285.29609748020215L783.89325,285.41196610537304L785.99625,285.1534737284855L786.9893333333333,285.18417007080814L788.1576666666667,284.9730612842816L789.7933333333334,284.769169354293L789.9685833333333,284.34488152699953L790.3774999999999,284.926508206814L790.4943333333333,284.894019208866L791.4874166666667,284.8501076063977L791.95475,284.7103471211862L792.4805,284.5052371486777L793.35675,284.30500719823306L794.2914166666667,284.2099512205542L796.5696666666668,284.5594144028374L797.2706666666667,284.6677931380199L797.9716666666667,284.3031327408816L798.6142500000001,284.2820390096891L799.4320833333334,284.18265724145823L799.5489166666666,284.11063517154605L801.6519166666667,284.57615953548986L803.7549166666666,285.4023631118864L805.3321666666667,285.49629001110475L805.6826666666667,285.1991613896947L806.2084166666667,285.20888885782796L807.9609166666667,284.97335776629495L809.3629166666666,284.9026346924845L810.4144166666666,285.3948510841282L812.3421666666667,285.1607624775224L813.9194166666666,284.7139033627488L814.6788333333333,284.48854110050945L814.7956666666668,284.19703387776497L814.8540833333333,284.59588147559157L816.0224166666667,284.6252226046697L816.3145000000001,284.4669232880426L817.1323333333333,284.5446631864462L817.7165000000001,284.68103671086374L818.0085833333333,284.3912434159506L818.4175,284.6740394758276L819.5274166666666,284.86997198038125L820.2284166666667,284.5179879330222L822.273,284.6373058087198L825.8948333333333,284.3447135407911L826.7710833333333,284.2425003268906L827.4136666666666,284.42854872950136L827.6473333333334,284.5097642122566L828.582,284.20315485302194L830.5097499999999,284.14514720907016L831.0355,283.92083793510744L833.6058333333334,284.1206291356982L834.7741666666667,284.2590826979933L834.9494166666666,284.0115131682169L835.8840833333334,283.9318438495813L836.81875,283.49396246328814L840.9663333333333,283.13833833536313L841.4920833333333,282.87443877878957L843.303,283.00927735331425L844.4129166666667,282.94216559792255L844.5881666666668,283.18254558833974L845.8733333333334,282.92980295310144L849.6704166666667,282.71556002393817L850.13775,283.45239420999786L851.3644999999999,283.16982252279604L852.6496666666666,282.9705078982705L854.34375,282.70413318191544L857.0309166666667,283.5424353678526L858.6665833333333,283.6407475413807L862.1131666666666,283.3689662978795L863.0478333333334,283.61510481034986L864.85875,283.32516760754896L865.3260833333334,283.28905743016446L866.5528333333333,283.47710663826916L868.0132500000001,283.08993333785304L868.3053333333332,282.79036094838096L869.0647499999999,282.7031385838274L869.8241666666665,282.6132718949359L870.1746666666667,282.7720733777028L872.6281666666666,282.43246148888113L872.6865833333334,282.73874662759823L873.8549166666667,282.96570831119914L877.2430833333333,282.7510862213149L878.2361666666666,282.53838064370177L879.8134166666666,282.3525619694843L879.8718333333334,282.10688573378445L880.3391666666666,282.2954559576978L881.0401666666666,282.0483870186151L881.7411666666667,281.81356424873064L882.6174166666667,282.1839148831384L882.8510833333333,282.80935630408453L883.8441666666666,282.60568023722107L884.8956666666667,282.7504112685988L885.9471666666667,282.7459262777046L886.8234166666666,282.4452410360877L887.4075833333333,282.5363710482545L887.5828333333334,282.23837374569246L888.2838333333334,281.9403878029323L888.34225,282.315431871551L888.5759166666667,281.9880974383889L890.2115833333332,281.68642876916806L891.7304166666665,281.47596944374095L893.6581666666666,281.3379018882725L894.5344166666666,281.01036655450497L896.6374166666667,281.12114104128193L899.7335,281.3927922963152L899.9671666666667,281.12579538393607L901.1355000000001,280.887375988426L903.9979166666667,280.9616697362794L905.692,280.5823994793975L908.1455000000001,280.97380070633915L911.12475,280.6914344147481L912.001,281.4513752242748L912.4683333333334,281.29146916661864L912.8188333333334,281.37794899327065L915.7396666666667,281.65507366838665L915.9149166666667,281.86161993599256L916.0901666666666,281.67360546420207L916.8495833333333,281.80831476070705L918.4268333333333,281.3732288729477L919.88725,281.05030027491443L920.2961666666666,280.7781771423275L921.5813333333333,280.7773603650886L922.8080833333332,281.3093172952934L923.5674999999999,281.4943701116883L925.6120833333333,280.9584973194633L926.9556666666667,281.1392650727466L927.1309166666667,280.8209224121556L927.8903333333334,281.4593317076755L928.124,281.1304964237813L930.9864166666666,280.8935938628422L931.0448333333334,280.48772442698555L932.15475,280.4682088985975L932.33,280.61557782852634L932.8557500000001,280.3674856963104L932.9141666666667,280.06906174951234L933.2646666666666,279.81346753780144L934.433,279.51513884401135L934.5498333333333,280.4491374241029L939.34,280.0882239980584L939.6905,279.7325208339737L944.07175,279.2377999650693L945.7074166666667,278.87654780167725L947.5767500000001,278.56359698041115L947.92725,278.01322569458995L949.2708333333334,278.2569391325397L951.4322500000001,277.9043973732321L951.4906666666666,278.0245397231792L951.8411666666666,277.68885500526835L952.3669166666666,277.5059678421517L953.36,277.7535700395368L954.061,277.54243509909907L954.4114999999999,278.09800673608436L955.5798333333333,277.7782976805772L955.8135,277.6672525374757L957.2154999999999,278.21742715063647L957.8580833333333,278.2518850732105L960.7789166666666,278.2837994142679L962.1809166666666,277.9113166207079L963.5245,278.22659244590557L965.6274999999999,278.1058908436097L967.0295,277.9554139816027L967.1463333333332,277.7235903327675L967.20475,277.37335532667146L970.70975,277.50051337757L971.5859999999999,277.6398065848332L971.9365,278.36795316587836L973.689,278.06795060892404L974.21475,277.6734813132882L974.4484166666666,277.46744435243727L974.7989166666666,277.1170322332169L975.7335833333334,276.9560712142437L978.2455,277.25769346800837L978.9465,277.05784764932923L980.1732499999999,276.8003088770794L980.2316666666667,276.65368908612777L980.4653333333333,276.29068767971273L980.6990000000001,276.33474294325964L980.9326666666667,276.574142664256L981.92575,276.4907182216287L982.2762500000001,276.9110626232762L982.5099166666668,276.76026332988613L984.0871666666666,277.0762579765949L985.6644166666666,276.8478521755166L986.7743333333333,276.6151340701763L988.6436666666667,276.40297422550697L988.7020833333333,276.32930580158995L988.7605000000001,275.9911235092899L990.1625,275.54962457989075L993.9595833333334,275.2917318644737L994.6605833333333,275.4594887451012L998.3408333333333,275.25345712005935L1000.7943333333333,275.17441543232053L1001.0279999999999,275.41652563130395L1003.5983333333334,274.94432097701167L1004.7082499999999,275.299947460676L1006.8696666666666,275.0034958545518L1008.6221666666668,274.85125445211884L1009.0310833333333,274.61593424557583L1009.6152500000001,275.0195433543963L1010.6667500000001,274.8688555706746L1012.0103333333333,274.9468910171835L1013.0034166666667,274.86376831253244L1013.3539166666667,275.5142937932336L1013.7628333333333,275.8671774662494L1016.5084166666667,275.6259396824358L1016.8004999999999,275.34791456019445L1017.7351666666666,275.4259762089358L1018.0856666666666,275.9266244649311L1018.6698333333334,275.8380269387652L1019.7213333333334,275.50327545423977L1020.7144166666667,276.1163796123926L1020.8312500000001,276.50715276840697L1022.7005833333333,276.6875017531188L1023.8689166666667,276.52879528540404L1024.5115,276.41249532302663L1027.2570833333332,275.9442249180359L1027.9580833333334,276.336194199654L1028.6006666666667,275.86831420164435L1032.3393333333333,276.0666599467503L1034.15025,275.8401464607876L1036.3116666666667,275.45588080994884L1037.7136666666665,275.15114102603144L1038.2394166666666,275.5041241676152L1038.5899166666666,275.1590978450927L1039.4661666666666,275.36825889306175L1040.45925,274.8678157585377L1041.2770833333334,274.4472633718773L1041.4523333333334,274.27675445774383L1042.56225,274.72322327185105L1043.6721666666665,275.0174037114126L1050.27325,274.5881550065662L1050.7405833333332,274.54187158680776L1051.0910833333332,274.3162873247872L1052.4930833333333,273.72035292042403L1052.5515,274.89989321052974L1054.7713333333334,274.6252851868839L1056.3485833333334,274.2712999639851L1057.0495833333332,274.76439851591283L1058.0426666666667,274.5196099519103L1058.2763333333335,274.37058480371263L1061.7229166666666,274.63109170715194L1062.4823333333334,274.8639248421543L1063.0665,274.60401607209377L1063.3001666666667,274.22496940513383L1064.7605833333334,274.0130581011503L1066.04575,273.92944809157876L1070.2517500000001,273.48009453825705L1071.5369166666667,273.1593004315366L1071.7705833333334,273.0843738385347L1071.8874166666667,272.7310276043371L1071.9458333333332,272.7053353168303L1072.53,272.5083727412712L1073.6983333333333,272.38720066581965L1075.2171666666668,272.53001661104554L1077.2033333333334,272.21343056216296L1077.7290833333334,271.9872127681376L1081.0004166666665,271.6903096833738L1084.1549166666666,271.45875719870816L1085.6737500000002,272.04501742353074L1085.9658333333332,271.7804709549156L1087.1341666666667,271.3984141299214L1090.1134166666668,271.813930828068L1090.3470833333333,272.3364733082864L1092.2164166666666,272.5331157476928L1095.0788333333333,272.17357625921596L1096.2471666666668,272.4198706949284L1098.1165,272.3065108794665L1098.7006666666666,271.9724858660185L1098.7590833333334,271.9440566432905L1100.2195,271.6072126661087L1100.5115833333332,271.31278669776117L1100.74525,271.8099090565903L1101.5630833333335,272.2607329211991L1104.0165833333333,271.8926734259922L1105.4769999999999,272.1591886725005L1109.85825,271.9440023422624L1113.7721666666666,271.6524665314084L1115.5830833333334,271.2160964502L1117.56925,271.02285596961394L1117.6276666666668,271.2617620894354L1118.9128333333333,270.77307012755193L1121.1326666666666,270.82743522300757L1121.42475,270.5686409136272L1121.7168333333334,270.90232657335844L1122.301,270.54479193454614L1123.87825,270.83089763182227L1123.9366666666667,270.8693857930145L1124.3455833333333,270.4884139664427L1125.1634166666668,270.16211916044824L1125.806,270.10566157410176L1126.8574999999998,270.7776754968716L1126.9743333333333,270.61992316626896L1128.3179166666666,270.5954000660763L1128.3763333333334,270.23851098610146L1128.4347500000001,270.08883328789017L1128.6100000000001,270.02514434155586L1129.7199166666667,270.01775623362596L1131.7645,270.3138286866075L1132.5239166666668,270.59532157896615L1132.7575833333333,270.20118981661483L1133.517,270.0044999297744L1133.5754166666668,270.18465932551214L1134.1595833333333,270.0967831305399L1134.8021666666666,269.9950942679012L1135.3863333333334,269.8298467571943L1135.8536666666666,270.25929898960266L1136.4378333333334,269.9665437408074L1139.30025,269.9072748712957L1139.7675833333333,269.56230889354777L1140.00125,269.52952569830126L1141.6369166666666,269.9982236211906L1142.45475,269.52628472286153L1142.80525,269.34905504705637L1143.6230833333334,269.7782138440905L1143.7399166666667,269.278316872189L1144.1488333333334,269.14694613090387L1144.3825,268.966461345652L1144.55775,269.1584586477619L1144.6161666666667,269.40295292607664L1144.8498333333334,269.4137034931262L1146.31025,269.47992431707365L1146.8944166666668,270.15291397230476L1147.1280833333333,269.87073638726173L1148.06275,270.0822146783379L1148.8805833333333,270.7216943635446L1150.9835833333334,271.0071088225583L1151.042,270.7913864206364L1151.4509166666667,270.35355184404386L1152.0935,270.9853286352561L1153.846,271.20307853810516L1154.9559166666668,270.9148235130798L1155.0143333333333,271.2169699679265L1155.3064166666666,270.99556007292927L1156.8836666666668,270.5545695350478L1157.9351666666666,270.25816439097747L1159.1035,270.02582840132044L1165.58775,269.6093483639454L1166.1135,269.34167587893353L1167.0481666666667,269.3473511980574L1167.2234166666667,269.92280703172855L1167.7491666666667,269.80535653131915L1169.3848333333333,269.498018350234L1171.371,269.4858299097586L1171.4294166666666,269.32941611157935L1171.9551666666666,269.0872251701617L1172.1304166666666,268.6359811120854L1174.4086666666667,268.4456164245563L1175.2849166666667,269.5721420800397L1175.8690833333333,269.5359654504073L1176.7453333333333,269.3459189774549L1176.8621666666668,269.6504881116325L1177.3295,269.3862843652646L1178.2641666666668,270.9732045081453L1178.3225833333333,270.4875185175282L1179.4325000000001,270.3287371919153L1180.8345000000002,270.16292911806374L1182.1196666666665,270.3183581296271L1183.7553333333335,269.7993538837786L1184.4563333333333,270.0830195308105L1186.9098333333334,270.36784669407564L1187.0850833333332,270.8435860446954L1189.4801666666667,271.11824719879303L1189.9475,270.9413206535683L1194.6792500000001,272.4623557208662L1194.7376666666667,271.91488043691646L1199.8199166666666,271.3995975677786L1200.28725,271.1755194482145L1202.8575833333334,270.8852666930414L1202.916,270.9858590724093L1205.89525,270.55287310814833L1206.421,270.8902061283042L1209.40025,271.2511616073329L1209.9844166666667,270.66545875771044L1210.3933333333332,271.6924998894159L1210.6854166666667,271.1158240154399L1212.0874166666667,270.49065054665334L1214.2488333333333,270.0172245583076L1215.2419166666666,269.9567847724079L1217.6954166666667,269.4307761430146L1220.4994166666665,269.66505621351325L1220.61625,269.10826775261455L1222.8360833333334,268.6753622347673L1224.2965,268.21444693793086L1224.47175,267.84307892507894L1225.4064166666667,267.88079795927285L1225.6985,267.55397617692324L1225.9905833333332,267.26172686601774L1227.0420833333333,266.70975337384016L1227.3341666666665,266.28360917552374L1227.62625,267.2917171421458L1228.32725,267.0591350761914L1229.554,266.9605198601022L1232.2995833333332,266.76027159694627L1233.059,267.14203884547953L1233.5263333333335,266.5978356277149L1235.68775,266.23500297205555L1236.6224166666666,265.87674422993854L1238.6085833333334,265.2943656281034L1239.2511666666667,264.99009886574333L1240.0105833333334,265.470329545514L1242.172,265.10676084403417L1242.5809166666668,264.9987000929229L1242.8145833333333,264.8077996337963L1244.2749999999999,265.2206243522163L1245.7938333333332,265.599625827704L1248.1305,264.98952899867174L1250.5255833333333,265.36392844402985L1250.584,264.8086263191762L1250.7008333333333,264.96244394530413L1250.9929166666668,264.6136982808369L1253.91375,264.44895508911463L1255.0820833333335,264.51345902813364L1255.9583333333335,264.13332785135486L1256.1335833333333,263.5768102245703L1256.2504166666665,264.0982604974947L1257.41875,263.6396542365561L1257.7692499999998,263.4712132788201L1259.1128333333334,265.0769907502454L1260.57325,264.7154778151292L1260.6900833333334,265.1461703896257L1261.4495000000002,264.6877430575596L1262.67625,264.11082151687503L1263.7861666666665,263.9950680424396L1264.1366666666665,263.9405702599052L1264.9545,263.7089717865049L1265.5970833333333,263.4826680816706L1266.1228333333333,263.9399505331542L1266.1812499999999,263.802035244083" style="fill: none;" fill="none"></path></g></g></g></g><g opacity="0.2"><g><g><g><path stroke="rgb(0, 119, 187)" stroke-width="2px" d="M117.88483333333333,302.5478274822235L119.28683333333333,302.09053230285645L119.46208333333333,302.34606635570526L120.98091666666667,302.56607723236084L122.32449999999999,302.7498890161514L125.88791666666667,303.53582990169525L126.06316666666667,302.941624045372L126.58891666666668,302.0536572933197L130.21075,301.25029277801514L130.50283333333334,302.57140946388245L131.72958333333335,302.39371848106384L132.43058333333335,302.05204260349274L132.78108333333333,301.43466782569885L134.82566666666665,301.8989099264145L134.9425,301.30064857006073L135.40983333333332,301.489266872406L137.10391666666666,301.101140499115L138.27225,300.8218367099762L141.42675,301.1012531518936L143.70499999999998,301.11248087882996L144.52283333333332,301.5231753587723L148.14466666666667,301.6983504295349L149.72191666666666,301.79080080986023L150.65658333333334,301.1242343187332L151.0655,300.58117282390594L151.12391666666664,301.7239226102829L153.05166666666665,300.7935608625412L153.8695,300.7653976678848L154.62891666666667,300.3678460121155L155.44675,300.15958857536316L156.03091666666666,300.4915763139725L158.54283333333333,301.0291553735733L159.01016666666666,299.35821425914764L159.4775,300.7649470567703L161.52208333333334,301.2907726764679L161.75575,299.954598069191L161.87258333333332,300.4602588415146L162.69041666666666,301.2360985279083L162.80725,299.71885335445404L163.21616666666668,299.5803279876709L163.6835,300.75304341316223L164.03400000000002,299.3831856250763L165.66966666666667,301.06655609607697L172.03708333333333,299.6348143815994L173.55591666666666,301.4924211502075L173.61433333333335,299.6431506872177L173.96483333333333,300.85386765003204L174.31533333333334,299.1502196788788L175.36683333333332,300.49465548992157L175.54208333333335,299.5471705198288L176.0678333333333,298.49108827114105L178.93024999999997,301.17823255062103L179.1055,299.4711674451828L179.8065,298.97729766368866L180.68275,299.9625964164734L181.03324999999998,299.25663900375366L181.32533333333333,299.02896773815155L184.363,301.8301166296005L184.65508333333335,300.2005190849304L184.7135,299.80548334121704L185.76500000000001,298.6547352075577L186.52441666666667,299.5502872467041L189.50366666666665,299.3369228839874L190.49675,298.77572429180145L193.70966666666666,300.61478090286255L193.88491666666667,298.62506997585297L194.70275,299.37732768058777L194.93641666666667,298.27055168151855L197.74041666666668,298.5389657020569L198.14933333333335,298.04246735572815L199.43449999999999,298.1549699306488L200.13549999999998,299.6346641778946L200.71966666666665,299.8168988227844L202.47216666666665,298.51053965091705L203.11475000000002,299.03200936317444L203.93258333333333,298.20953142642975L205.80191666666664,299.7199423313141L207.49599999999998,300.05699944496155L208.43066666666667,299.7796483039856L209.36533333333335,297.764177441597L209.599,298.72319054603577L210.59208333333333,299.45813727378845L212.63666666666668,299.71273255348206L215.09016666666668,298.59536719322205L215.61591666666666,297.008465051651L216.2585,299.47710049152374L216.66741666666667,299.0667815208435L217.19316666666668,298.3265401124954L218.011,297.4814940690994L218.1278333333333,298.9682478904724L218.30308333333335,297.61423659324646L220.87341666666666,297.76147377491L223.50216666666668,297.1051962375641L224.5536666666667,298.09853088855743L225.07941666666667,298.8590122461319L225.83883333333333,301.1958439350128L226.01408333333333,296.8625046014786L226.48141666666666,298.6133165359497L228.81808333333336,297.14214634895325L229.81116666666665,297.2742129564285L230.39533333333333,296.9387329816818L230.57058333333336,297.24206936359406L233.72508333333332,298.7216509580612L234.4260833333333,296.70689356327057L235.76966666666667,297.0474804639816L237.9310833333333,298.5842145681381L238.10633333333334,300.0600035190582L238.16475,297.4894173145294L238.63208333333333,298.60768389701843L238.86575,296.68860626220703L239.27466666666666,296.8357683420181L242.37075000000002,296.89427268505096L242.77966666666666,295.8447618484497L244.5905833333333,295.7598967552185L244.82425,297.4074811935425L245.29158333333334,297.12273252010345L245.7589166666667,296.7313392162323L245.99258333333333,299.97791719436646L247.16091666666668,297.62572717666626L247.45299999999997,297.0137597322464L247.5114166666667,297.81487119197845L248.67975,296.3639409542084L248.97183333333334,296.37186419963837L250.08175,297.00429689884186L251.01641666666666,297.8637624979019L251.60058333333333,297.3284364938736L252.30158333333333,296.7393375635147L253.82041666666666,296.8718547821045L254.34616666666668,298.20018124580383L256.39075,299.47229397296906L256.44916666666666,297.67739725112915L256.566,296.1829079389572L259.1363333333333,296.01648223400116L259.6036666666667,295.6913287639618L260.12941666666666,299.58986592292786L260.24625000000003,296.5120793581009L260.5383333333333,295.81622314453125L261.99875000000003,298.35447800159454L262.05716666666666,296.2080295085907L262.6413333333333,297.9888446331024L262.7581666666667,295.7749546766281L263.05025,297.6179916858673L263.86808333333335,295.50766718387604L264.21858333333336,295.7204682826996L264.7443333333333,295.7681579589844L265.62058333333334,297.0297939777374L265.97108333333335,296.6251827478409L269.0671666666667,295.5123234987259L273.68208333333337,298.081520318985L274.73358333333334,295.6441272497177L276.89500000000004,296.36029851436615L277.7128333333333,295.7995880842209L279.7574166666667,295.8128811120987L284.606,296.6801573038101L286.008,297.01394748687744L290.1555833333333,295.2356107234955L290.6229166666667,295.32254111766815L292.72591666666665,294.80050814151764L293.83583333333337,295.78182649612427L294.30316666666664,295.7776207923889L294.47841666666665,294.2428768873215L297.8665833333333,297.0049728155136L301.48841666666664,293.3868284225464L302.42308333333335,298.35935962200165L303.4745833333333,295.3701181411743L303.533,295.1385415792465L305.5191666666667,295.0243492126465L306.1033333333333,294.9940456151962L306.27858333333336,294.9134613275528L306.337,296.23386454582214L306.4538333333333,296.60163831710815L306.51225,294.9620522260666L307.97266666666667,295.7465661764145L309.9004166666667,297.17620503902435L312.2370833333333,297.55133879184723L314.048,294.3410350084305L315.62525,295.62835586071014L315.9173333333333,293.42911076545715L317.2025,296.7142159938812L318.31241666666665,296.4165498018265L319.1886666666667,296.732728600502L320.12333333333333,293.7002660036087L321.8174166666667,294.1052151918411L321.99266666666665,292.95480501651764L323.4530833333333,292.754057765007L327.1333333333333,296.7578126192093L328.18483333333336,292.9507495164871L328.3016666666667,295.73041927814484L328.4185,293.17094814777374L328.769,293.4482992887497L330.4046666666667,293.08829855918884L331.22249999999997,294.65995502471924L334.4938333333333,295.8791209459305L334.72749999999996,295.0612242221832L335.3700833333333,293.3882553577423L338.40775,293.08664631843567L339.6345,294.70111083984375L339.9265833333333,296.8479723930359L340.04341666666664,293.999471783638L340.62758333333335,296.2045748233795L342.55533333333335,293.75388872623444L343.2563333333333,295.4566354751587L346.294,294.7889049053192L347.92966666666666,292.83246409893036L349.56533333333334,292.69930851459503L351.78516666666667,293.06527984142303L352.42775,293.3324546813965L352.603,294.9509747028351L355.93275,293.7877972126007L356.2248333333333,292.0639843940735L356.86741666666666,293.8475031852722L361.1318333333333,292.27299284935L361.8328333333333,293.2847650051117L361.94966666666664,297.0124078989029L362.24175,293.15637838840485L362.3001666666667,293.4969652891159L363.76058333333333,298.4043456315994L364.05266666666665,295.94213140010834L364.22791666666666,292.857435464859L364.69525,293.3130033016205L365.86358333333334,296.4664925336838L366.03883333333334,293.73530101776123L366.9735,293.46185517311096L368.25866666666667,293.5730434656143L369.0180833333333,295.335120677948L369.13491666666664,293.24394714832306L372.05575000000005,291.82422173023224L373.45775,292.11955976486206L373.8666666666667,293.55689656734467L374.2171666666667,293.1155605316162L375.61916666666673,293.50901913642883L375.7944166666667,292.8181196451187L379.24100000000004,293.1017417907715L380.23408333333333,294.3388570547104L381.46083333333337,296.1607528924942L384.26483333333334,297.4933226108551L384.44008333333335,291.0386188030243L385.37474999999995,293.6519755125046L387.1856666666667,291.39204812049866L388.8213333333333,292.33780574798584L389.2886666666667,295.137903213501L389.52233333333334,293.5518647432327L389.98966666666666,292.4109174013138L392.15108333333336,295.76579225063324L392.4431666666666,292.55935621261597L394.3125,299.3372983932495L394.7798333333334,292.4020929336548L395.3055833333333,295.15363705158234L396.5323333333333,292.75822591781616L397.23333333333335,294.4304813146591L397.35016666666667,292.65522372722626L399.57,291.44807410240173L400.27099999999996,295.0371165275574L402.72450000000003,292.3058123588562L406.69683333333336,296.0379989147186L407.2225833333333,291.5624166727066L407.3978333333334,292.47787070274353L411.83750000000003,292.31535029411316L411.95433333333335,292.38343012332916L412.01275,292.10014593601227L415.1088333333333,290.47223818302155L416.7445,289.97187209129333L420.59999999999997,294.51245498657227L422.87825,292.2518141269684L425.7990833333334,291.4020742177963L428.13575000000003,295.28326284885406L429.07041666666663,291.28375124931335L429.88824999999997,293.6856211423874L433.45166666666665,290.5658150911331L434.7368333333333,291.7563672065735L437.8329166666667,291.4434553384781L439.00124999999997,292.84132611751556L439.1180833333333,297.63770592212677L440.98741666666666,295.37068140506744L442.38941666666665,290.7264955043793L443.20725,290.42150688171387L445.7191666666667,293.54052436351776L447.3548333333333,291.3520939350128L447.47166666666664,291.63075935840607L447.7053333333334,296.89765226840973L448.58158333333336,293.7478805780411L450.97666666666663,294.38200306892395L451.15191666666664,294.0406651496887L454.248,293.6776978969574L456.0589166666666,290.0902326107025L456.1173333333333,294.6187241077423L457.11041666666665,290.376145362854L457.28566666666666,290.05016577243805L459.27183333333335,290.9785748720169L459.38866666666667,294.1922957897186L459.79758333333336,290.5609710216522L461.9005833333334,300.25545608997345L463.1273333333333,294.10806906223297L464.5293333333333,298.15474462509155L464.82141666666666,289.8761923313141L465.1719166666666,288.006156206131L466.7491666666667,290.86336863040924L467.91749999999996,291.45167899131775L468.20958333333334,291.6985387802124L469.08583333333337,293.24927937984467L469.37791666666664,292.99956572055817L471.88983333333334,297.1495438814163L473.35025,293.2582540512085L473.46708333333333,297.1171374320984L474.40175,290.5148960351944L474.98591666666664,289.53429114818573L477.90675,294.6355469226837L479.01666666666665,289.62050807476044L479.77608333333336,289.00444757938385L480.1265833333333,289.5991415977478L480.886,292.54741501808167L484.21574999999996,293.72568798065186L485.5593333333333,293.56301736831665L485.8514166666667,288.17524802684784L487.2534166666667,286.92675483226776L487.89599999999996,292.04438281059265L488.5385833333333,292.44963240623474L489.29799999999994,293.9592922925949L490.7,289.7127707004547L496.2495833333333,291.6484833955765L496.308,288.2325131893158L496.5416666666667,290.88150572776794L497.71,289.8250855207443L497.7684166666666,288.0327047109604L500.8645,288.7222148180008L501.4486666666667,289.017440199852L502.55858333333333,292.35207509994507L505.7130833333334,294.4747163057327L506.2388333333333,287.45761227607727L506.58933333333334,292.59728264808655L506.9398333333333,287.66575706005096L507.11508333333336,289.12814033031464L507.524,292.40107905864716L507.99133333333333,289.53579318523407L508.16658333333334,293.1434233188629L508.8675833333333,292.618611574173L510.4448333333333,293.18341505527496L510.67850000000004,289.05743193626404L511.3210833333334,289.029869556427L515.936,292.88987946510315L516.7538333333333,287.77840983867645L517.2211666666667,293.5469455718994L518.0974166666666,294.6716709136963L521.8945,293.50237262248993L523.5885833333333,290.0883926153183L523.7638333333333,287.47646284103394L525.2826666666666,289.3534834384918L526.5678333333333,289.1963703632355L531.0659166666667,290.7981051206589L531.9421666666667,288.67955696582794L532.4095,287.23256957530975L533.7530833333333,292.23093581199646L534.8045833333333,290.4481304883957L537.14125,289.8312438726425L538.368,286.5745646953583L540.1789166666666,292.8278828859329L543.275,289.39876985549927L543.9175833333334,286.901220202446L544.9690833333333,289.5716543197632L545.55325,288.8765115737915L545.6116666666667,290.8785392045975L546.7215833333333,292.09207248687744L548.0651666666668,288.15489542484283L549.1750833333333,286.34054732322693L551.4533333333333,291.9654132127762L551.6285833333334,287.6721782684326L552.0375,287.9147948026657L552.6216666666667,287.0962221622467L552.7969166666667,285.7217456102371L553.6731666666667,296.09770488739014L555.6009166666666,292.2190697193146L556.7108333333333,286.42935526371L561.32575,292.5773055553436L563.3703333333333,293.60590052604675L564.3634166666667,291.18867230415344L565.2396666666667,288.99434638023376L565.88225,291.55336689949036L566.23275,287.7548654079437L567.6931666666667,291.65903520584106L567.9852500000001,290.23585510253906L568.2773333333333,289.78103828430176L569.3288333333334,290.47704470157623L569.9714166666668,287.5549442768097L570.1466666666666,286.6110266447067L571.3149999999999,287.7517111301422L571.7823333333333,286.4371283054352L572.3665,291.09993946552277L574.4110833333333,288.19255900382996L574.7031666666667,287.3051555156708L578.2665833333333,294.3571068048477L578.3249999999999,288.15620970726013L580.1943333333334,286.4271022081375L583.1735833333333,290.5780942440033L583.6409166666667,286.0942507982254L585.6855,288.30836606025696L586.3280833333333,291.4329410791397L587.0290833333333,294.2718286514282L588.0221666666666,287.64840853214264L591.5271666666666,286.79682862758636L594.6816666666667,290.0005234479904L594.9153333333334,290.04036498069763L595.7331666666666,295.9507681131363L596.7262499999999,285.8768684864044L597.0767500000001,290.877375125885L599.53025,287.5203974246979L600.4649166666667,287.05893409252167L601.1075000000001,285.21938931941986L602.1005833333334,288.9675725698471L603.2689166666667,295.5911428928375L603.561,287.8430725336075L603.6778333333333,288.1224889755249L604.0283333333333,290.27738642692566L605.1966666666666,292.4803490638733L605.3719166666667,290.5687065124512L605.664,286.46270048618317L606.18975,288.29954159259796L611.4472499999999,287.03189742565155L611.5056666666667,286.1212874650955L611.6225000000001,287.9846019744873L613.2581666666666,287.3964042663574L613.55025,287.628844499588L613.8423333333334,293.06092393398285L617.2305,287.1579558849335L618.7493333333333,284.3961228132248L619.2750833333333,284.36844778060913L621.2028333333333,288.39942705631256L621.26125,290.6523699760437L621.787,287.42268991470337L624.0068333333334,282.79119622707367L624.4741666666666,291.2967814207077L624.76625,284.281254529953L626.6355833333333,297.21822452545166L629.3811666666667,286.07678961753845L629.6148333333333,288.64902806282043L630.9584166666667,289.48269617557526L632.0099166666666,287.8480668067932L632.1851666666666,290.949773311615L633.4119166666667,293.36658847332L634.0545,286.08553898334503L635.4565,289.5658714771271L635.8654166666666,285.29497933387756L636.8584999999999,285.50533962249756L636.9753333333333,287.8803230524063L637.1505833333333,288.04719936847687L638.3773333333334,292.8233767747879L638.78625,291.27541494369507L639.4288333333334,290.7531566619873L640.1298333333333,285.80413234233856L641.1229166666667,291.71337139606476L642.1744166666667,284.79716670513153L642.5249166666666,283.99504137039185L643.1090833333333,285.15664172172546L644.219,291.81235563755035L645.79625,283.33868873119354L646.2635833333334,287.4697412252426L647.4903333333333,282.68244874477386L651.6379166666667,286.3580836057663L655.2013333333333,286.4817388057709L655.7855,285.4223520755768L656.1944166666667,289.38198459148407L657.7716666666666,284.19090700149536L658.9984166666667,289.4457085132599L660.51725,283.7019188404083L661.043,285.18581879138947L662.9123333333333,282.89814126491547L664.1390833333334,296.137659072876L666.651,292.4992747306824L666.8262500000001,295.11311960220337L667.9945833333334,283.04136049747467L668.4035,290.5503441095352L669.9223333333333,285.4834098815918L674.0115000000001,294.8320509195328L674.5372500000001,284.99254417419434L674.9461666666666,283.84040665626526L675.7055833333333,282.90167105197906L676.99075,286.8266065120697L677.6333333333333,285.8758546113968L678.2759166666667,284.29255735874176L679.2105833333334,284.2586113214493L680.6125833333333,291.9925249814987L680.9630833333333,293.3864153623581L682.3066666666667,294.30070531368256L683.3581666666666,290.26277911663055L686.9215833333333,296.0669506788254L687.4473333333334,282.8726441860199L690.0176666666666,284.29379653930664L691.6533333333333,290.380651473999L691.8285833333333,288.3990515470505L694.16525,281.62850689888L695.56725,292.75987815856934L699.3643333333333,282.5416703224182L703.9208333333333,282.8040761947632L704.2129166666667,288.1790782213211L704.3881666666666,282.959649682045L705.206,283.8769437074661L705.9069999999999,286.44888174533844L707.2505833333333,283.04838252067566L707.6010833333333,288.31842970848083L708.4773333333333,287.03095865249634L708.8278333333334,286.72431778907776L709.412,284.43254721164703L710.814,280.0722087621689L711.8070833333334,288.49443089962006L713.09225,290.8184577226639L715.3120833333334,282.39694905281067L715.9546666666668,285.091716170311L717.1229999999999,283.3527327775955L717.5319166666667,283.43200278282166L717.8240000000001,287.55967569351196L724.1329999999999,287.59549927711487L724.30825,282.30941784381866L725.1845,287.4974162578583L725.535,283.4021873474121L725.8270833333333,283.37150824069977L728.3389999999999,288.8601393699646L728.9815833333333,287.68389415740967L729.5657500000001,282.3784364461899L729.7994166666667,284.6741874217987L729.8578333333332,295.4596771001816L731.4935,291.84494984149933L732.0192499999999,281.7010177373886L733.3628333333334,280.6875182390213L733.42125,291.14312303066254L734.12225,282.9616023302078L735.9331666666667,288.1724692583084L736.4589166666667,289.8067606687546L737.452,287.5466455221176L737.7440833333333,293.1840909719467L738.2698333333333,289.65858471393585L738.7371666666667,288.2134748697281L739.2044999999999,289.6199448108673L740.1975833333333,286.8190587759018L741.9500833333333,282.29424726963043L742.53425,287.7339119911194L744.6956666666666,291.862185716629L745.2214166666668,289.81896471977234L745.2798333333333,288.8712919950485L746.5649999999999,283.0511612892151L746.9739166666667,282.53645074367523L748.6095833333333,283.62463903427124L749.19375,283.03944540023804L749.4858333333333,281.0352773666382L750.1284166666667,293.4209622144699L750.6541666666667,289.7516359090805L751.4720000000001,294.11764454841614L753.6918333333333,287.60466170310974L753.8670833333333,287.4979795217514L755.85325,281.5047390460968L756.0869166666666,283.9218921661377L757.4305,281.82884109020233L757.781,282.6645369529724L757.8978333333333,281.1095906496048L760.2345,288.2152397632599L760.5849999999999,282.05302011966705L760.7018333333333,285.867067694664L761.3444166666667,293.93387031555176L761.6365000000001,282.25853633880615L762.4543333333332,286.25703406333923L762.9800833333333,282.28467178344727L763.91475,292.8106470108032L765.3751666666667,287.0599104166031L766.4850833333334,293.0982495546341L767.0108333333334,283.455659866333L768.0623333333333,288.5529727935791L769.6395833333333,287.97551465034485L770.9831666666668,280.67854356765747L771.1,280.9861983060837L771.1584166666667,280.2253038883209L774.605,286.103901386261L774.78025,284.07953095436096L775.306,284.9477083683014L777.5258333333334,288.17521047592163L780.5050833333333,281.4339179992676L783.4259166666667,279.8225702047348L783.89325,287.52434027194977L785.99625,280.4409588575363L786.9893333333333,285.7437880039215L788.1576666666667,281.12438571453094L789.7933333333334,281.0520626306534L789.9685833333333,276.6097880601883L790.3774999999999,295.5300099849701L790.4943333333333,284.30171978473663L791.4874166666667,284.0495653152466L791.95475,282.1624059677124L792.4805,280.76592457294464L793.35675,280.65466117858887L794.2914166666667,282.4770076274872L796.5696666666668,290.9303970336914L797.2706666666667,286.6436208486557L797.9716666666667,277.6550931930542L798.6142500000001,283.8974840641022L799.4320833333334,282.37085115909576L799.5489166666666,282.7976174354553L801.6519166666667,293.0630267858505L803.7549166666666,300.4646898508072L805.3321666666667,287.20864963531494L805.6826666666667,279.7822780609131L806.2084166666667,285.3862280845642L807.9609166666667,280.6794447898865L809.3629166666666,283.6132986545563L810.4144166666666,294.36833453178406L812.3421666666667,280.893147110939L813.9194166666666,276.5673179626465L814.6788333333333,280.3800137042999L814.7956666666668,278.88263297080994L814.8540833333333,291.86717998981476L816.0224166666667,285.16013395786285L816.3145000000001,281.58100497722626L817.1323333333333,285.96192133426666L817.7165000000001,287.16723096370697L818.0085833333333,279.10808873176575L818.4175,289.82962918281555L819.5274166666666,288.4419722557068L820.2284166666667,278.1010479927063L822.273,286.8125624656677L825.8948333333333,279.0105314254761L826.7710833333333,282.3790748119354L827.4136666666666,287.82035422325134L827.6473333333334,285.9903849363327L828.582,278.6134303808212L830.5097499999999,283.08762323856354L831.0355,279.8315073251724L833.6058333333334,287.76297640800476L834.7741666666667,286.7831976413727L834.9494166666666,279.4981302022934L835.8840833333334,282.4794108867645L836.81875,275.5110479593277L840.9663333333333,276.65503692626953L841.4920833333333,278.06334686279297L843.303,285.4674882888794L844.4129166666667,281.7186666727066L844.5881666666668,287.56485772132874L845.8733333333334,278.3221102952957L849.6704166666667,278.80974662303925L850.13775,296.88544821739197L851.3644999999999,278.018323302269L852.6496666666666,279.3368489742279L854.34375,277.8479171991348L857.0309166666667,298.8253290653229L858.6665833333333,285.4330540895462L862.1131666666666,278.41418516635895L863.0478333333334,288.10239923000336L864.85875,278.03938937187195L865.3260833333334,282.63074111938477L866.5528333333333,286.9053883552551L868.0132500000001,276.03146624565125L868.3053333333332,277.3289258480072L869.0647499999999,281.11300778388977L869.8241666666665,280.97493302822113L870.1746666666667,285.66714656352997L872.6281666666666,276.24107551574707L872.6865833333334,288.32256031036377L873.8549166666667,287.1033943891525L877.2430833333333,278.8383604288101L878.2361666666666,278.6605943441391L879.8134166666666,278.96494460105896L879.8718333333334,277.6280189752579L880.3391666666666,285.7332361936569L881.0401666666666,277.5441302061081L881.7411666666667,277.5325645208359L882.6174166666667,288.9356918334961L882.8510833333333,294.211634516716L883.8441666666666,278.89250886440277L884.8956666666667,285.38896930217743L885.9471666666667,282.6641614437103L886.8234166666666,276.9635177850723L887.4075833333333,284.1977412700653L887.5828333333334,276.8056536912918L888.2838333333334,276.50787484645844L888.34225,289.1527737379074L888.5759166666667,276.0205389261246L890.2115833333332,276.1867768764496L891.7304166666665,277.6391340494156L893.6581666666666,278.82082414627075L894.5344166666666,275.0391454696655L896.6374166666667,283.14064514636993L899.7335,286.3452036380768L899.9671666666667,276.25823628902435L901.1355000000001,276.5408070087433L903.9979166666667,282.3161019086838L905.692,273.6680109500885L908.1455000000001,288.10934615135193L911.12475,275.5436797142029L912.001,295.30568075180054L912.4683333333334,278.37625873088837L912.8188333333334,282.9545427560806L915.7396666666667,286.7072696685791L915.9149166666667,285.6271172761917L916.0901666666666,278.2459570169449L916.8495833333333,284.26416885852814L918.4268333333333,273.4412784576416L919.88725,275.16306352615356L920.2961666666666,275.81716310977936L921.5813333333333,280.76246988773346L922.8080833333332,291.0073013305664L923.5674999999999,284.86802530288696L925.6120833333333,271.18912410736084L926.9556666666667,284.43480026721954L927.1309166666667,275.0172908306122L927.8903333333334,293.09802424907684L928.124,275.13557624816895L930.9864166666666,276.57467794418335L931.0448333333334,273.08841240406036L932.15475,280.1124258041382L932.33,283.3022267818451L932.8557500000001,275.84457528591156L932.9141666666667,274.62856364250183L933.2646666666666,275.15378844738007L934.433,274.0763772726059L934.5498333333333,297.47664999961853L939.34,273.5084946155548L939.6905,273.2477785348892L944.07175,270.21865797042847L945.7074166666667,272.29064297676086L947.5767500000001,272.8582627773285L947.92725,267.97953379154205L949.2708333333334,282.70002257823944L951.4322500000001,271.47728991508484L951.4906666666666,280.21482717990875L951.8411666666666,271.5690643787384L952.3669166666666,274.1717941761017L953.36,282.2675485610962L954.061,273.6932827234268L954.4114999999999,288.22650504112244L955.5798333333333,271.94975566864014L955.8135,275.6428141593933L957.2154999999999,288.2475335597992L957.8580833333333,278.88007950782776L960.7789166666666,278.8656224012375L962.1809166666666,271.12066876888275L963.5245,283.97431325912476L965.6274999999999,275.9054077863693L967.0295,275.21210503578186L967.1463333333332,273.49726688861847L967.20475,270.9883017539978L970.70975,279.8187024593353L971.5859999999999,280.1792289018631L971.9365,291.64262545108795L973.689,272.59867322444916L974.21475,270.48200261592865L974.4484166666666,273.7112320661545L974.7989166666666,270.7287497520447L975.7335833333334,274.0216280221939L978.2455,282.756499171257L978.9465,273.41450464725494L980.1732499999999,272.1051789522171L980.2316666666667,273.98069751262665L980.4653333333333,269.6728928089142L980.6990000000001,277.1379042863846L980.9326666666667,280.9385837316513L981.92575,274.96982645988464L982.2762500000001,284.5742644071579L982.5099166666668,274.0110762119293L984.0871666666666,282.83708345890045L985.6644166666666,272.68383872509L986.7743333333333,272.3725039958954L988.6436666666667,272.5351370573044L988.7020833333333,274.98627376556396L988.7605000000001,269.8258001804352L990.1625,267.5007594823837L993.9595833333334,270.5901492834091L994.6605833333333,278.5178257226944L998.3408333333333,271.4973421096802L1000.7943333333333,273.7334246635437L1001.0279999999999,279.83038079738617L1003.5983333333334,266.3356668949127L1004.7082499999999,281.7832918167114L1006.8696666666666,269.59895503520966L1008.6221666666668,272.07577657699585L1009.0310833333333,270.3258658647537L1009.6152500000001,282.3776478767395L1010.6667500000001,272.12170135974884L1012.0103333333333,276.36953723430634L1013.0034166666667,273.3483774662018L1013.3539166666667,287.3738737106323L1013.7628333333333,282.30051827430725L1016.5084166666667,271.22798931598663L1016.8004999999999,270.2793027162552L1017.7351666666666,276.84910011291504L1018.0856666666666,285.0538272857666L1018.6698333333334,274.22282588481903L1019.7213333333334,269.40049839019775L1020.7144166666667,287.2937400341034L1020.8312500000001,283.63124799728394L1022.7005833333333,279.9754024744034L1023.8689166666667,273.63545429706573L1024.5115,274.29225754737854L1027.2570833333332,267.4072952270508L1027.9580833333334,283.4820957183838L1028.6006666666667,267.3385019302368L1032.3393333333333,279.68265545368195L1034.15025,271.71063137054443L1036.3116666666667,268.4504224061966L1037.7136666666665,269.5955003499985L1038.2394166666666,281.9392783641815L1038.5899166666666,268.8690025806427L1039.4661666666666,279.18142569065094L1040.45925,265.74435245990753L1041.2770833333334,266.7802698612213L1041.4523333333334,271.1682457923889L1042.56225,282.86269319057465L1043.6721666666665,280.38053941726685L1050.27325,266.7626209259033L1050.7405833333332,273.6980892419815L1051.0910833333332,270.2037127017975L1052.4930833333333,262.85601031780243L1052.5515,296.4038200378418L1054.7713333333334,269.6189696788788L1056.3485833333334,267.8178770542145L1057.0495833333332,283.7539644241333L1058.0426666666667,270.0569261312485L1058.2763333333335,271.65374171733856L1061.7229166666666,279.38033294677734L1062.4823333333334,279.1086519956589L1063.0665,269.8656792640686L1063.3001666666667,267.3146570920944L1064.7605833333334,270.1497520208359L1066.04575,272.4051733016968L1070.2517500000001,265.2880336046219L1071.5369166666667,267.310977101326L1071.7705833333334,271.7184044122696L1071.8874166666667,266.289253950119L1071.9458333333332,272.2369451522827L1072.53,268.9175934791565L1073.6983333333333,270.1781405210495L1075.2171666666668,275.1336611509323L1077.2033333333334,266.44182336330414L1077.7290833333334,267.8630883693695L1081.0004166666665,266.27753806114197L1084.1549166666666,267.23737728595734L1085.6737500000002,282.7329922914505L1085.9658333333332,266.95758533477783L1087.1341666666667,264.4332243204117L1090.1134166666668,279.38911986351013L1090.3470833333333,281.862824678421L1092.2164166666666,276.11805868148804L1095.0788333333333,265.61889481544495L1096.2471666666668,276.9100077152252L1098.1165,270.23987424373627L1098.7006666666666,265.8829529285431L1098.7590833333334,271.4257700443268L1100.2195,265.4662878513336L1100.5115833333332,265.94517481327057L1100.74525,280.87283205986023L1101.5630833333335,280.47959876060486L1104.0165833333333,265.18266570568085L1105.4769999999999,277.01796662807465L1109.85825,268.02099001407623L1113.7721666666666,266.33754444122314L1115.5830833333334,263.2607342004776L1117.56925,267.49993336200714L1117.6276666666668,275.6172044277191L1118.9128333333333,261.86383974552155L1121.1326666666666,271.81855273246765L1121.42475,265.8506215810776L1121.7168333333334,276.98567283153534L1122.301,264.0266604423523L1123.87825,276.0468245744705L1123.9366666666667,271.57105457782745L1124.3455833333333,263.54300451278687L1125.1634166666668,264.21351385116577L1125.806,269.0763963460922L1126.8574999999998,283.0290062427521L1126.9743333333333,267.74397683143616L1128.3179166666666,270.14832508563995L1128.3763333333334,263.73214852809906L1128.4347500000001,267.3600937128067L1128.6100000000001,268.8640458583832L1129.7199166666667,269.88306534290314L1131.7645,275.71145725250244L1132.5239166666668,275.7271535396576L1132.7575833333333,263.015864610672L1133.517,266.4186919927597L1133.5754166666668,273.4691036939621L1134.1595833333333,268.4947324991226L1134.8021666666666,268.14122807979584L1135.3863333333334,266.8172575235367L1135.8536666666666,278.08854353427887L1136.4378333333334,264.62939035892487L1139.30025,268.82675778865814L1139.7675833333333,263.27331376075745L1140.00125,268.9318628311157L1141.6369166666666,278.5429472923279L1142.45475,260.92247557640076L1142.80525,266.1180217266083L1143.6230833333334,277.602108836174L1143.7399166666667,260.16481053829193L1144.1488333333334,266.7519564628601L1144.3825,265.6760848760605L1144.55775,272.65871715545654L1144.6161666666667,273.860271692276L1144.8498333333334,269.6096946001053L1146.31025,270.6871808767319L1146.8944166666668,282.42203307151794L1147.1280833333333,264.7264219522476L1148.06275,273.9376266002655L1148.8805833333333,282.379900932312L1150.9835833333334,276.21043395996094L1151.042,266.85860109329224L1151.4509166666667,262.3714907169342L1152.0935,282.5031055212021L1153.846,275.1728267669678L1154.9559166666668,265.6597126722336L1155.0143333333333,276.72533226013184L1155.3064166666666,266.9590873718262L1156.8836666666668,262.51497280597687L1157.9351666666666,264.8544706106186L1159.1035,265.7901645898819L1165.58775,262.0165969133377L1166.1135,264.46180057525635L1167.0481666666667,269.45081663131714L1167.2234166666667,280.4138095378876L1167.7491666666667,267.6641435623169L1169.3848333333333,263.8950068950653L1171.371,269.2636252641678L1171.4294166666666,266.4778722524643L1171.9551666666666,264.6718980073929L1172.1304166666666,260.4094548225403L1174.4086666666667,264.9751217365265L1175.2849166666667,290.1095713376999L1175.8690833333333,268.876437664032L1176.7453333333333,265.8812255859375L1176.8621666666668,275.2030177116394L1177.3295,264.56964683532715L1178.2641666666668,299.9039794206619L1178.3225833333333,261.63308930397034L1179.4325000000001,267.43403148651123L1180.8345000000002,267.14012038707733L1182.1196666666665,273.15194857120514L1183.7553333333335,260.3375072479248L1184.4563333333333,275.25446248054504L1186.9098333333334,275.5604649782181L1187.0850833333332,279.5166803598404L1189.4801666666667,276.1255313158035L1189.9475,267.7158136367798L1194.6792500000001,300.1919950246811L1194.7376666666667,261.933984875679L1199.8199166666666,262.0055944919586L1200.28725,267.0904029607773L1202.8575833333334,265.59373569488525L1202.916,272.8197355270386L1205.89525,262.6592059135437L1206.421,277.04004657268524L1209.40025,277.83165764808655L1209.9844166666667,259.98764526844025L1210.3933333333332,290.4162497520447L1210.6854166666667,260.6025792360306L1212.0874166666667,259.0932573080063L1214.2488333333333,261.3863046169281L1215.2419166666666,268.8549209833145L1217.6954166666667,259.8412342071533L1220.4994166666665,273.9361621141434L1220.61625,258.957585811615L1222.8360833333334,260.78316164016724L1224.2965,259.8116065263748L1224.47175,261.07275438308716L1225.4064166666667,268.5684449672699L1225.6985,261.5957636833191L1225.9905833333332,261.933797121048L1227.0420833333333,256.646852016449L1227.3341666666665,258.5146726369858L1227.62625,285.6703008413315L1228.32725,262.81898510456085L1229.554,265.1626886129379L1232.2995833333332,263.1095917224884L1233.059,274.1019494533539L1233.5263333333335,256.6765923500061L1235.68775,259.62028455734253L1236.6224166666666,259.34541177749634L1238.6085833333334,254.67715573310852L1239.2511666666667,259.44308173656464L1240.0105833333334,274.2253042459488L1242.172,258.4786237478256L1242.5809166666668,263.0286694765091L1242.8145833333333,261.3275374174118L1244.2749999999999,272.74673652648926L1245.7938333333332,272.5091142654419L1248.1305,253.86699450016022L1250.5255833333333,272.1895183324814L1250.584,254.6850414276123L1250.7008333333333,267.7666575908661L1250.9929166666668,258.2557965517044L1253.91375,261.4455599784851L1255.0820833333335,265.6894154548645L1255.9583333333335,257.20324409008026L1256.1335833333333,253.4310657978058L1256.2504166666665,273.604700088501L1257.41875,255.27890932559967L1257.7692499999998,260.40040504932404L1259.1128333333334,294.35154926776886L1260.57325,258.1248189210892L1260.6900833333334,272.9980273246765L1261.4495000000002,256.33026015758514L1262.67625,253.59309804439545L1263.7861666666665,261.8847931623459L1264.1366666666665,262.9470337629318L1264.9545,259.4867534637451L1265.5970833333333,259.35697746276855L1266.1228333333333,272.2765613794327L1266.1812499999999,261.2877334356308" style="fill: none;" fill="none"></path></g></g></g></g></g></g><g transform="translate(58, 378)" clip-path="url(#clip_1)"><clipPath id="clip_1"><rect width="1402" height="22"></rect></clipPath><g><g><line x1="0" y1="0" x2="0" y2="5" style="visibility: inherit;" fill="rgb(0, 0, 0)" stroke="rgb(204, 204, 204)" stroke-width="1px"></line><line x1="116.83333333333333" y1="0" x2="116.83333333333333" y2="5" style="visibility: inherit;" fill="rgb(0, 0, 0)" stroke="rgb(204, 204, 204)" stroke-width="1px"></line><line x1="233.66666666666666" y1="0" x2="233.66666666666666" y2="5" style="visibility: inherit;" fill="rgb(0, 0, 0)" stroke="rgb(204, 204, 204)" stroke-width="1px"></line><line x1="350.5" y1="0" x2="350.5" y2="5" style="visibility: inherit;" fill="rgb(0, 0, 0)" stroke="rgb(204, 204, 204)" stroke-width="1px"></line><line x1="467.3333333333333" y1="0" x2="467.3333333333333" y2="5" style="visibility: inherit;" fill="rgb(0, 0, 0)" stroke="rgb(204, 204, 204)" stroke-width="1px"></line><line x1="584.1666666666667" y1="0" x2="584.1666666666667" y2="5" style="visibility: inherit;" fill="rgb(0, 0, 0)" stroke="rgb(204, 204, 204)" stroke-width="1px"></line><line x1="701" y1="0" x2="701" y2="5" style="visibility: inherit;" fill="rgb(0, 0, 0)" stroke="rgb(204, 204, 204)" stroke-width="1px"></line><line x1="817.8333333333334" y1="0" x2="817.8333333333334" y2="5" style="visibility: inherit;" fill="rgb(0, 0, 0)" stroke="rgb(204, 204, 204)" stroke-width="1px"></line><line x1="934.6666666666666" y1="0" x2="934.6666666666666" y2="5" style="visibility: inherit;" fill="rgb(0, 0, 0)" stroke="rgb(204, 204, 204)" stroke-width="1px"></line><line x1="1051.5" y1="0" x2="1051.5" y2="5" style="visibility: inherit;" fill="rgb(0, 0, 0)" stroke="rgb(204, 204, 204)" stroke-width="1px"></line><line x1="1168.3333333333335" y1="0" x2="1168.3333333333335" y2="5" style="visibility: inherit;" fill="rgb(0, 0, 0)" stroke="rgb(204, 204, 204)" stroke-width="1px"></line><line x1="1285.1666666666665" y1="0" x2="1285.1666666666665" y2="5" style="visibility: inherit;" fill="rgb(0, 0, 0)" stroke="rgb(204, 204, 204)" stroke-width="1px"></line><line x1="1402" y1="0" x2="1402" y2="5" style="visibility: inherit;" fill="rgb(0, 0, 0)" stroke="rgb(204, 204, 204)" stroke-width="1px"></line></g><g transform="translate(0, 8)"><text x="0" y="0" dx="0em" dy="0.95em" style="text-anchor: middle; visibility: hidden; font-family: &quot;Helvetica Neue&quot;, sans-serif; font-size: 12px; font-weight: 200;" fill="rgb(50, 49, 63)" stroke="none" stroke-width="1px">-2k</text><text x="116.83333333333333" y="0" dx="0em" dy="0.95em" style="text-anchor: middle; visibility: inherit; font-family: &quot;Helvetica Neue&quot;, sans-serif; font-size: 12px; font-weight: 200;" fill="rgb(50, 49, 63)" stroke="none" stroke-width="1px">0</text><text x="233.66666666666666" y="0" dx="0em" dy="0.95em" style="text-anchor: middle; visibility: inherit; font-family: &quot;Helvetica Neue&quot;, sans-serif; font-size: 12px; font-weight: 200;" fill="rgb(50, 49, 63)" stroke="none" stroke-width="1px">2k</text><text x="350.5" y="0" dx="0em" dy="0.95em" style="text-anchor: middle; visibility: inherit; font-family: &quot;Helvetica Neue&quot;, sans-serif; font-size: 12px; font-weight: 200;" fill="rgb(50, 49, 63)" stroke="none" stroke-width="1px">4k</text><text x="467.3333333333333" y="0" dx="0em" dy="0.95em" style="text-anchor: middle; visibility: inherit; font-family: &quot;Helvetica Neue&quot;, sans-serif; font-size: 12px; font-weight: 200;" fill="rgb(50, 49, 63)" stroke="none" stroke-width="1px">6k</text><text x="584.1666666666667" y="0" dx="0em" dy="0.95em" style="text-anchor: middle; visibility: inherit; font-family: &quot;Helvetica Neue&quot;, sans-serif; font-size: 12px; font-weight: 200;" fill="rgb(50, 49, 63)" stroke="none" stroke-width="1px">8k</text><text x="701" y="0" dx="0em" dy="0.95em" style="text-anchor: middle; visibility: inherit; font-family: &quot;Helvetica Neue&quot;, sans-serif; font-size: 12px; font-weight: 200;" fill="rgb(50, 49, 63)" stroke="none" stroke-width="1px">10k</text><text x="817.8333333333334" y="0" dx="0em" dy="0.95em" style="text-anchor: middle; visibility: inherit; font-family: &quot;Helvetica Neue&quot;, sans-serif; font-size: 12px; font-weight: 200;" fill="rgb(50, 49, 63)" stroke="none" stroke-width="1px">12k</text><text x="934.6666666666666" y="0" dx="0em" dy="0.95em" style="text-anchor: middle; visibility: inherit; font-family: &quot;Helvetica Neue&quot;, sans-serif; font-size: 12px; font-weight: 200;" fill="rgb(50, 49, 63)" stroke="none" stroke-width="1px">14k</text><text x="1051.5" y="0" dx="0em" dy="0.95em" style="text-anchor: middle; visibility: inherit; font-family: &quot;Helvetica Neue&quot;, sans-serif; font-size: 12px; font-weight: 200;" fill="rgb(50, 49, 63)" stroke="none" stroke-width="1px">16k</text><text x="1168.3333333333335" y="0" dx="0em" dy="0.95em" style="text-anchor: middle; visibility: inherit; font-family: &quot;Helvetica Neue&quot;, sans-serif; font-size: 12px; font-weight: 200;" fill="rgb(50, 49, 63)" stroke="none" stroke-width="1px">18k</text><text x="1285.1666666666665" y="0" dx="0em" dy="0.95em" style="text-anchor: middle; visibility: inherit; font-family: &quot;Helvetica Neue&quot;, sans-serif; font-size: 12px; font-weight: 200;" fill="rgb(50, 49, 63)" stroke="none" stroke-width="1px">20k</text><text x="1402" y="0" dx="0em" dy="0.95em" style="text-anchor: middle; visibility: hidden; font-family: &quot;Helvetica Neue&quot;, sans-serif; font-size: 12px; font-weight: 200;" fill="rgb(50, 49, 63)" stroke="none" stroke-width="1px">22k</text></g><line x1="0" y1="0" x2="1402" y2="0" fill="rgb(0, 0, 0)" stroke="rgb(204, 204, 204)" stroke-width="1px"></line></g></g></g></g></svg>